<?xml version="1.0" encoding="UTF-8"?>
<svg xmlns="http://www.w3.org/2000/svg" viewBox="0 0 360 120">
  <defs>
    <style>
      .cls-1 {
        fill-rule: evenodd;
      }

      .cls-1, .cls-2, .cls-3 {
        fill: #fff;
      }

      .cls-3 {
        opacity: 0;
      }

      .cls-4 {
        fill: #9a1b2b;
      }
    </style>
  </defs>
  <g id="Layer_1" data-name="Layer 1">
    <rect class="cls-3" width="200" height="280"/>
  </g>
  <g id="web">
    <path class="cls-4" d="M11,0h349v120H11c-6.07107,0-11-4.92893-11-11V11C0,4.92893,4.92893,0,11,0Z"/>
    <g>
      <g>
        <g>
          <path class="cls-1" d="M149.29892,22.26544c9.34453,0,16.91989,7.54132,16.91989,16.84385s-7.57536,16.84351-16.92006,16.84351-16.91955-7.54084-16.91955-16.84351,7.57471-16.84385,16.91955-16.84385h.00017ZM149.29793,20.90578c5.04883,0,9.62182,2.03757,12.93051,5.33176,3.30787,3.29416,5.35566,7.84507,5.35566,12.87124,0,5.02682-2.04745,9.57841-5.35566,12.87175-3.30937,3.29433-7.88151,5.33224-12.92986,5.33224-5.04951-.00014-9.62032-2.03825-12.92935-5.33224-3.30971-3.29334-5.35583-7.84527-5.35583-12.87175-.00034-5.02617,2.04646-9.57691,5.35583-12.87124,3.3092-3.29419,7.88035-5.33176,12.9287-5.33176h0Z"/>
          <path class="cls-1" d="M152.80824,28.29752c-.00867-.05344.24762.13398.05287.31558-.19527.18191-.04505-.26211-.05287-.31541v-.00017h0ZM153.91809,28.66569c.1479-.10756.16357.23756.15825.36804-.00536.13146.02899.05426-.04135-.06408-.07038-.11752-.26496-.19622-.11723-.30396h.00034ZM148.8974,21.51183c-.04235.12963-.06837.11171-.21176.05297-.14356-.05895.2538-.18229.21176-.05297h0ZM147.10039,21.72229c-.03783-.00944-.07554-.01907-.11389-.02886.03835.00979.07537.01941.11372.02886h.00017ZM143.08386,22.14326c0-.00748.02233.01295.0155.01577-.00683.00282-.01585-.00846-.01585-.01577h.00034ZM140.07145,24.11546c0,.0186-.03869.02655-.05269.02655-.01482,0-.01216-.02043,0-.02655.01168-.00565.05269-.01843.05269,0h0ZM140.01876,24.14201c-.01048.03767-.01967.07554-.02933.11338.00966-.03801.01885-.07554.02933-.11338h0ZM156.40207,24.56281c-.09155.1675-.28013-.18293-.26445-.31555.01616-.13279.13438-.11735.20927-.05926.0752.05909.14606.20782.05519.37481h0ZM140.33573,24.35234c.00734,0,.01219.01261.0155.01591.00318.00282-.02298-.01591-.01567-.01591h.00017ZM139.22606,24.87836h0ZM139.22606,24.87836h0ZM157.3005,26.03533c.17139-.24616.29494-.2415.05283-.42045-.24243-.17909-.22426.66747-.05283.42079v-.00034h0ZM154.6049,26.24601c0,.13993.05887.00714.03285.00017s-.03302-.1401-.03302,0l.00017-.00017h0ZM147.20595,21.67001c.03217,0,.04785.03471.0532.05228.00482.01813-.02718.00949-.03169.02176-.00468.0118.02319.01792-.03203.01313-.05519-.00398-.07151.01659-.09521-.03489-.02315-.05126.07356-.05228.10573-.05228h0ZM156.13796,31.40096c.05334.2359.59294-.40948.36949-.42063-.22279-.01129-.42304.18494-.36984.42097l.00034-.00034h0ZM157.14208,29.45467c.18792.13496.34399-.18721.21125-.36783-.13253-.18127-.39951.23274-.21125.36783h0ZM158.72732,27.3507c.01451-.14309-.22279-.38429-.36984-.26326-.14742.12167-.00184.07734.14322.17344.14524.09547.2121.23274.22661.08982h0ZM156.56049,30.98033c.11638.15805.37899-.13775.21159-.2631-.16808-.12581-.32814.10526-.21176.2631h.00017ZM159.04464,27.3507c.14957-.01047.0015-.02706-.08923-.06905-.0907-.04219-.14554-.18511-.12222-.03604.02302.14873.06188.11521.21128.10508h.00017ZM157.08939,29.66517c.0712.07105.12673-.05195.06068-.02839-.06536.02373-.13257-.043-.06068.02856v-.00017h0ZM157.03601,29.13895c.00769.05976.05389.01363.06338.00996.00851-.00313.05703.05412.02251-.01326-.03419-.06892-.09306-.0563-.08589.0033h0ZM157.08939,29.87547c.007,0,.01185-.01244.01533-.01561.00318-.00312-.02319.01561-.01533.01561h0ZM157.14208,29.77042c.00734,0,.01233-.01231.0155-.01577.00352-.00316-.02285.01577-.0155.01577h0ZM156.93049,30.50626c.00731,0,.0125-.0121.01581-.0151.00318-.0035-.02315.01527-.01581.01527v-.00017h0ZM151.8036,35.60895h0ZM133.04217,36.29285c.00751,0,.0125.01244.01602.01577.00284.00299-.02349-.01577-.01619-.01577h.00017ZM133.09504,36.39776c.00734,0,.01284.01295.01585.01577.003.0033-.02336-.01543-.01585-.01543v-.00034h0ZM141.12844,37.55508c0-.00714.0225.01278.0155.01594-.00666.00248-.0155-.00846-.0155-.01594h0ZM133.5706,34.66193h0ZM150.37725,47.75996c.00519-.00534.01533.01193.01533.01574,0,.00333.00068.00068,0,0-.00031-.00082-.02032-.01078-.01533-.01574h0ZM156.34938,51.02073c.07202-.07204.1299.05579.05853.02723-.07137-.02822-.13124.04501-.05853-.02689v-.00034h0ZM150.32422,41.92122c-.17341.22394-.06936-.35821-.36997-.10521-.30065.25249-.07639.75328.15855,1.05173.23461.29879.21992.04151.38886.06109.1689.01992.19609-.07037.36885-.00646.17191.06391.04518.05857.14073.15604.09521.09743.19124-.04069.30095-.05199.10972-.00996-.11956.10393.06253.00034.18208-.10259,0,.09462.05204-.21662.05167-.3114.06652-.20367.18509-.4482.11836-.24484.14971-.16366.35064-.28284.2011-.11967-.1619-.0873-.17525-.25446-.01349-.1675.08923-.44738.10972-.53934.02018-.09196.00816-.01061.01735-.01907.00966-.00931-.0055.00513.04368-.03916.04938-.04416.10057.06922.11006-.09481.00983-.16447-.0347.00466-.2021-.0652-.1674-.07058-.15726-.15706-.2291-.26429-.07189-.10773-.00851-.01709-.03285-.04347-.02435-.02656.10873-.25548-.06437-.04797-.17208.20701-.51241.49798-.61062.60156-.09835.10359-.09152.19174-.29112.28883-.19977.09828-.14039.09478-.31366.32004v-.00052h0ZM136.42459,45.07698c-.26278.28767-.1062.11902-.50674.2324-.40002.11321-.392.07799-.392.39887,0,.32085.16856.25099-.09739.6399-.26527.38912-.19708.4668-.06102.78004.13673.31439.35167.20697.66413.08349.31216-.12351.24212-.34547.37803-.67645.13605-.33098.27729-.69453.38083-.97836.10238-.28451-.06068-.16002.16259-.21645.22361-.05711-.00253-.253-.02186-.42729-.02036-.1746.09521-.29032-.13691-.36168-.2316-.07139-.04501.00697-.2039.21726-.15893.21034.09654.02142-.16576.30876v-.00048h0ZM149.10885,42.70989c0-.00714.02268.01295.01567.01608-.00669.00265-.01567-.00863-.01567-.01591v-.00017h0ZM154.5522,42.39431c-.25629.21183.03152.09114.21828.20353.18741.11253.11587.09029.31014.11222.19441.02189-.26814-.07503-.26414.05276.00386.12718.05269.23474.21162.31558.15873.08016-.37868-.40288.15873-.15788.53676.24484.95396.22012,1.10934.78897.15575.56885-.42786.01911-.26445.21064.16327.19092.35034-.16464.5286-.05276.17857.11202.08804.58779.21176.2103.12372-.37732.05604-1.33277-.07687-1.39634-.13291-.0634-.63145-.16383-.71051-.12684-.07936.03753.10723-.0581-.032.01975-.13858.07771-.12174.20434-.29081.29349-.16839.08931-.15091-.04878-.25844-.12283-.10689-.07336-.03135-.02026-.03886-.02522-.00765-.00449-.01619.33962-.01967-.00962-.00301-.34944-.5359-.52755-.79271-.31575h0ZM155.18683,42.65743c.00683,0,.01202.01261.01533.01608.00318.00316-.02332-.01608-.01533-.01608h0ZM152.70268,43.13069c.07237-.07156.12974.05609.05853.02754-.07137-.02805-.13106.04497-.05887-.02723l.00034-.00031h0ZM156.13796,52.7569c.16474.16049.09405-.0035.17457-.03253.08087-.02971.13906-.06177.16976-.07469.03032-.01312.01915-.00534.02383-.00748.00417-.00201-.01984.0498.02401-.00897.04351-.05891.18208-.23885.24646-.34492.06451-.10559.31431-.29134.10105-.37317s-.46556.10573-.61595-.06588c-.15125-.1713.0545-.34115-.12407-.14458-.17877.19669-.16457.89137,0,1.05224h.00034ZM143.45353,40.55361c0,.44902.4759.39306.4759.21016,0-.18246-.0849-.22046-.15541-.31888-.07004-.0991-.16323-.20204-.26746-.20683-.10388-.00547-.01301.04613-.02401.10624-.01052.06007-.02937-.2397-.02937.20931h.00034ZM151.54014,43.91997c-.2316,0-.78202-.15536-.26479.10508.51757.26061.43271.00116.79086-.0018.35768-.00282.32998.01129.48256.00513.15108-.00564.32298.01941.28965-.13928-.03418-.15852-.01687.03236-.28364.02441-.26746-.00914-.17324-.07669-.38937-.00547-.21609.07088.07421.10124-.24727,0-.32148-.10192-.14705.0121-.37851.0121l.00051-.00017h0ZM152.7552,44.44602c-.15726.37946.23379-.08482.50657-.2324.27196-.14788.9321-.22243.49755-.29349-.43469-.07153-.84673.14574-1.00412.52588h0ZM153.97109,43.02578c.04702.12201-.01701-.0259.08606-.07503.10354-.0498.39217.2138.54758.0752.15657-.13894-.08387-.25599-.35348-.2412-.26964.01462-.32783.11902-.28029.2412l.00013-.00017h0ZM152.91362,40.0797c0-.00684.02285.01292.01598.01642-.00683.00231-.01598-.00898-.01598-.01642h0ZM151.59232,40.50098c.38654-.01727.35901-.31222.58163-.42128.22293-.10807-.13643-.26775-.21145-.15754-.0752.11021-.02117.17245-.16156.3129-.14008.14044-.5943.28318-.20862.26591h0ZM151.9098,44.13013c.02937.11936.27347.33914.42287.21064.14906-.12881-.02903-.17844-.15473-.21876-.12557-.04052-.29747-.11055-.26814.00863v-.00051h0ZM153.49522,42.97315c.12021.19055.34815.14591.31697.00017-.03152-.14608-.43735-.19106-.31697,0v-.00017h0ZM155.23953,43.60459c.1494.15006.33733-.25446.15791-.31572-.17843-.06091-.30782.1655-.15808.31572h.00017ZM154.34079,44.60356c.0812.11419.10736.05262.21142.05262.10388,0,.20643-.09845.1059-.15736-.10074-.05925-.39869-.00897-.31731.10474h0ZM146.20182,39.922c.00898.15006.04299.12582.05269.00017.00966-.12483.23177-.31738.05286-.47343-.1786-.15587-.11508.32354-.10556.47343v-.00017h0ZM154.6049,43.86738c.15657.12497.28545-.07122.1589-.21034-.12673-.13894-.31513.08551-.15907.21034h.00017ZM137.69286,39.76463c.15306.01625.24243.03138.26445-.10542.02168-.13693-.2066-.02274-.26445,0-.05703.02274-.15258.08914,0,.10559v-.00017h0ZM149.53121,42.86756c.049.03736.24628.12585.21176.00017-.035-.12548-.08804-.12915-.21176-.15767-.12291-.02839-.04921.12116,0,.15767v-.00017h0ZM156.93049,51.81005c.09254-.0171.04385-.00265.03432-.0923-.00898-.08995.03637-.2156-.08719-.118-.12324.09743-.03968.22757.05286.2103h0ZM147.73455,42.60515c.10719-.01064.03733-.12085-.00017-.15805-.03753-.03767-.15026-.10522-.15825,0-.00803.10559.05119.16784.15825.15805h.00017ZM147.41754,42.0791c.03521-.0239.09473.00333-.00833-.09277-.10255-.09631-.19707-.29896-.15005-.06459.04651.23355.12338.18062.15808.15737h.00031ZM153.17773,42.65743c-.0697.0224.11273-.01928.1354-.01945.02268-.00031,0-.00728.10337.01231.10456.01941.20729.09512.13175-.0976-.07554-.19405-.3.08234-.37052.10474h0ZM137.95731,46.44477c.03569.06823.1479.10474.15842,0,.01048-.10474,0-.14524-.10556-.15737-.10607-.01312-.08838.08914-.05286.15737h0ZM154.34079,42.65743c.03701.02424.12188.02424.15855,0,.03654-.02424.03654-.08101,0-.10474-.03633-.02458-.12154-.02458-.15855,0-.0362.02373-.03654.0805,0,.10474h0ZM156.03172,51.65237c.1786.12035.23362-.04848.1059-.21084-.12758-.16182-.28364.08999-.1059.21115v-.00031h0ZM153.81219,42.60515c.02469.1318.19926.0838.21128,0,.0125-.084-.23611-.13248-.21128,0h0ZM155.60936,42.60515c.05204.01026.2121.01026.26428,0,.05153-.01064.05153-.04249,0-.05246-.05218-.01098-.21224-.01081-.26462,0-.05184.00996-.05184.04181,0,.05246h.00034ZM135.42012,44.55127c.09504-.02292.10272-.06327.10573-.15788.00349-.0946-.08086-.03668-.1059,0-.02384.03604-.09422.18063,0,.15805l.00017-.00017h0ZM152.06805,39.81692c.05536.01877.23894-.03899.15873-.10509-.0797-.06605-.06785-.04912-.15873-.05262-.09039-.00347-.05487.13945,0,.15771h0ZM153.44269,43.81475c.04235.01078.16839.01095.21108,0,.04238-.01098.04238-.04219,0-.05263-.04269-.01047-.1689-.01047-.21108,0-.04303.01044-.04303.04164,0,.05263h0ZM153.65377,41.44749c.11857-.04681.1184-.11021,0-.15754-.11887-.04729-.11887.20486,0,.15788v-.00034h0ZM153.01948,39.44874c.11857-.04732.11857-.11021,0-.15754-.11853-.04746-.11853.20469,0,.15754h0ZM153.12555,43.91997c.10921.01594.33613.0855.15825-.05259-.17778-.13877.00782.05096-.15842.05276-.16641.00133-.1564-.04831-.21176.05229-.05454.1011.04767.01248.10238-.00364.05437-.01543-.00034-.06506.10938-.04864l.00017-.00017h0ZM154.71079,42.28926c.14356-.05895-.2538-.18178-.21145-.05246.04221.12929.06803.11137.21145.05276v-.00031h0ZM155.75675,42.51101c.01885-.12236-.02865-.18426-.14773-.16913-.1187.01492.12789.29114.14773.16913h0ZM146.572,40.86932c.11587-.10042.00683-.248-.1059-.15802-.11273.08962-.01001.2578.10556.15802h.00034ZM148.8447,42.39431c-.04535.1743.0277.05912.10774-.04215.08053-.10107.05669-.00979-.00236-.06259-.05935-.05344-.06051-.06953-.10538.10474h0ZM153.38983,41.50029c.01783.09842.10306.08482.07086.01078-.03234-.07452-.0892-.10906-.07086-.01078h0ZM152.38571,41.02669c.0712.07122.12639-.05212.06102-.02822-.0657.02389-.13274-.04283-.0612.02822h.00017ZM152.17395,41.1847c.07151.07122.12669-.05212.06133-.02822-.06567.02359-.13287-.04297-.06133.02856v-.00034h0ZM151.11693,43.65688c.07155.07122.1269-.05212.06137-.02822-.0657.02356-.13287-.04283-.06137.02838v-.00016h0ZM153.86522,43.91997c.07154.07088.1269-.05259.0612-.02852-.06553.0239-.13308-.04267-.06137.02869l.00017-.00017h0ZM152.49092,44.39339c.07151.07123.1272-.05194.0615-.02856-.06584.02407-.1327-.04232-.0615.02856h0ZM146.94167,41.71041c.07185.07122.12673-.05212.06136-.02788-.0657.02356-.13291-.043-.06136.02839v-.00051h0ZM146.1493,40.0797c0,.08448.1132.11916.08121,0-.03152-.11837.08834-.00564-.02404-.01547-.11252-.00996-.05717-.06837-.05717.01547h0ZM149.63724,41.39503c0,.08431.11389.11851.08172,0-.0322-.11902.08838-.00564-.02452-.0156-.11256-.00997-.0572-.06874-.0572.0156h0ZM151.4871,40.60623c-.02349.12748.13875-.02624.05187-.02043-.08589.00516-.02817-.10705-.05187.02043h0ZM135.84333,44.70911c0,.13962.05867.00666.03234,0-.02585-.00731-.03268-.1401-.03268,0h.00034ZM154.28826,43.81475c0,.13993.05836.0068.03268,0-.02653-.0068-.03302-.1401-.03302,0h.00034ZM150.21819,47.65454c0,.14027.05904.0068.03336,0-.02653-.0068-.03353-.13976-.03353,0h.00017ZM155.5565,44.65618c-.06137-.01196.04968.02108.05252,0,.00318-.02077-.02083-.06125-.04419-.06125-.02267,0,.24328-.00201-.00833.06125-.25226.06341-.56043-.37782-.84571-.15736-.28497.22025.4267.04415.15838.2103-.2678.16566-.69033.33102-.73967.57834-.04917.24749-.11706-.00881-.22228-.03335-.10538-.02441-.14623-.20918-.30663-.23009-.15958-.01992-.17891.04831-.39203.18892-.21275.1404-.03651.35373-.18908.39007-.15241.03621-.05153-.06888-.15838.15804-.10706.22659-.19961-.29715-.34836.01626-.14872.31375.03118-.07285-.02732.08183-.0587.1539-.00785.02757-.01301.04052-.00468.01244-.00867.02706-.01434.03882-.00468.01214.09152-.18559-.01585.03672-.10706.22257-.89959.41499-1.33179.56787-.43322.15271-.40119.09393-.52207.21744-.12055.12334-.07253.25347-.13158.45183-.05853.19905.28747.42162.07871.49502-.20875.07302-.07455-.06425-.21128-.10559-.13656-.041-.01834.09114-.01731.12667.0015.03519-.03237-.04963.01632.09893.04853.14775.16143.08832.21227.82749.05136.73917-.31783.69069-.21128,1.05139.10624.36004.33135.22243.56445.18178.23375-.041.33531-.18144.58559-.25031.25079-.06905.54509.06208.7075-.02723.16173-.08897.2386-.21611.52225-.32401.2833-.10807.22593.05412.59378-.09213.36799-.14574.83222,0,1.03814.09529.20561.09495.14974.11916.19725.22509.04788.10641.03937.04365.09121.22556.05252.18161-.19823.1911.03371.28139.23177.08948.46037-.56521.63395-.47343s-.14257.26758-.25294.4326c-.11071.16451-.35283-.0787-.11689.14622.23577.22461.12823-.39904.36984-.21064.24144.1884.09873.2241-.10521.36834-.20476.14407-.3098-.07272-.37035.05246-.06034.12517.06819.02026.2136.00231.14541-.01843.06021-.0136.15675-.05477.09589-.04215.05419-.22111.15808-.0528.10388.16865.11256-.06473.08254.3471-.03002.41152.28696.52374.6573.70483.37066.18127.19759-.17929.31731-.15788.11904.02193.12905.32769.26394.2636.13492-.06507.02103-.20119.43957-.29977.41836-.0976.3975-.15108.6011-.55892.20261-.40785.18058-.25014.22095-.30542.04019-.05579-.021.03899.02199-.03121.04286-.07021.10624-.20251.2398-.39241.13373-.19007.39183-.33714.49605-.66282.10439-.32718-.00734-.05827.12106-.30113.1284-.24283.11389-.31936.10122-.60353-.01301-.2842.17143-.48141.13673-.63263s.1299.24501-.15876.10559c-.28812-.14027-.27446-.48124-.31698-.73652-.04252-.25531-.18908-.02971-.22778-.03736-.03985-.00782-.00717-.01509-.00898-.0186-.00184-.00346.05501.16502-.00584-.02308-.0612-.18854-.1704-.47706-.40419-.59193-.23443-.11501-.15223.04749-.19875-.06541-.04671-.11334-.01236-.84276-.19629-1.01804-.18342-.17562-.13189.10277-.22641-.13894-.09422-.24236-.08121-.6721-.31732-.68407-.23529-.01244-.0867.30794-.14175.49002-.05484.18195-.40634,1.23102-.65095.82484-.24396-.40601.1254.01112.1589,0,.03302-.01129.14756-.04331,0-.05212-.14841-.00948-.00068.03419-.1589.05212-.15842.01792-.29314-.15339-.36635-.19871-.07305-.04498-.00632-.00299-.02585-.01326-.02019-.0088-.04351-.01611-.10269-.04733-.05921-.03069-.07807.06144-.19226-.10854-.11389-.17015.06601-.22509.15855-.26296.0922-.03835-.02452.08003,0,.10508.02517.02475.08155.03604.1059,0,.02466-.03702.03268-.12565,0-.15853-.03237-.03219-.06604.05477-.1059.05345-.03951-.00167-.17775-.04831-.10272-.06093.07455-.01278.36468-.22175.31448-.30742-.05068-.08564-.25612-.04066-.31714-.05294h0ZM154.02347,42.39431c.08537.0445-.02087.0498,0,.0528.02151.00299.06184-.02091.06184-.04383,0-.02308-.03917.03206-.06184-.00897-.02203-.04032-.16258-.14805-.05921-.20829.10405-.05993.12608-.04899.14691-.09696.02083-.04814.00601-.02223.00868-.02954.00348-.00748.0085-.02373.01168-.03236.004-.00846.00734-.01795.01516-.03387.00785-.01611.18792-.05843.03517-.07156-.15207-.01428-.12639.01163-.15838-.05344-.03169-.0649.21658-.08914.11689-.09444-.10023-.00551-.06523.02522-.11689.09444-.05119.06973.09087-.1884-.06037-.10226-.1519.08615-.07902.37467-.14572.52503-.06622.1504-.22979.02376-.05805.10325.17191.08002.17925-.04413.26414,0h0ZM147.94596,42.81545c.01336.01329-.02117.04963-.00034.05229.02168.00299.06154-.0204.06154-.04365.00017-.02308-.04784.00482-.06154-.00863-.01349-.0136.02168-.04963,0-.05263-.02083-.00313-.06154.02125-.06154.04382,0,.02244.04805-.00479.06154.0088h.00034ZM147.52361,42.39431c.00499.00517.01534-.01907.01534-.01526.00017.0035.00065-.00082,0,0-.00068.00034-.021.01013-.01551.01526h.00017ZM137.42871,39.81692c.00567.00513.01537-.01908.01537-.01543,0,.00364.00099-.00068,0,0,0,0-.02104.01047-.01537.01543h0ZM138.11586,43.13069c.00502.00564.01554-.01911.01554-.01543,0,.00363.00031-.00068,0,0-.00017.00031-.02087.01027-.01567.01574l.00014-.00031h0ZM152.59661,42.34189c.00567.00513.01602-.01928.01602-.01594,0,.00364.00017-.00018,0,0-.00082.00048-.021.01078-.01602.01594h0ZM135.68491,44.60356c.00499.00513.01533-.01928.01533-.01543.00034.00364.00068-.00034.00017,0-.00017.00048-.021.0106-.01551.01543h0ZM150.90585,46.54985c.007,0,.01216-.01261.01533-.01543.00335-.00333-.02336.0156-.01567.0156l.00034-.00017h0ZM155.45081,42.4471c.00714,0,.0125-.01244.0155-.01561.00348-.00329-.02284.01561-.01567.01561h.00017ZM149.79566,42.60515c.00717,0,.01233-.01261.01585-.01594.00301-.00333-.02353.01594-.01585.01594h0ZM149.10885,41.65765c.00765,0,.01233-.01197.01567-.01496.00331-.00364-.02353.01509-.01567.01509v-.00014h0ZM147.78721,42.70989c.00785,0,.01284-.01231.01601-.01561.00335-.00299-.02349.01578-.01601.01578v-.00017h0ZM147.57613,42.2368c.00683,0,.01233-.01261.01533-.01543.00318-.00367-.02302.01543-.01533.01543h0ZM152.70268,39.71183c.007,0,.01233-.01261.01568-.01577.00283-.00313-.02353.01577-.01602.01577h.00034ZM148.36914,43.34116c.00703,0,.01219-.01261.01537-.01509.00314-.00398-.02336.01509-.01585.01509h.00048ZM153.75933,43.76213c.00785,0,.01284-.01244.01567-.01543.00335-.00333-.02302.01543-.01567.01543h0ZM155.71509,44.55127c.00751-.00017.01233-.01261.0155-.01544.00301-.0035-.02302.01561-.0155.01561v-.00017h0ZM155.02811,43.34116c-.00468-.00201-.00584.01394-.00184.01479.0055.00048.00584-.01248.00184-.01479h0ZM146.4129,40.55361c.01834.02373.02001.0752.0292.1127-.00919-.03784-.02401-.08499-.0292-.1127-.00434-.02758.02151-.0498,0-.05263-.021-.00299-.0612.02091-.0612.04365,0,.02291.04354-.01526.0612.00897h0ZM152.59661,39.65904h0ZM152.27947,43.39412c.04986.02288.01902.0755.02937.11304-.01035-.0377-.05136.00449-.02954-.11304.02237-.11705.16627-.81056.15893-.57868-.00785.23141-.07803.09148.02151.23987.0992.14788.17908.22825.33115.29648.15241.06871.18492-.15971.12273-.32585-.06188-.16634-.03302.04215-.11457-.03685-.08087-.07952-.0992-.15886-.13923-.23953-.03985-.08152-.09838-.07571.02551-.15437.12423-.07887.24096.07221.33415-.04249.09357-.11521.14008-.09281,0-.21081-.13974-.11769-.37465.07435-.57108.11287-.1966.03801-.32233-.17862-.06505-.26942.25714-.09114.8359.09645.95177-.1557.11573-.25215.01503-.1318-.06301-.09845-.07721.0324.14541-.05246-.08339.04532-.22928.09828-.71116-.01941-.85288.05014-.14124.06888-.07103.01941-.15391.11239-.08271.09294-.2623.496-.27214.7287-.00983.23308.12239.00184.21145.15822.08851.15587-.09791.23654-.0532.36817.0447.13146.16207-.02342.21125,0h.00017ZM134.89187,38.29159c.1449.16498-.14039-.02458.17027.3046.30997.3285.20042.40285.32599.7269.12553.32401.41403.38694.13772.38874-.27565.00184-.37117-.37548-.67315-.53896-.30297-.16369-.13472-.07122-.2106-.15954-.07588-.08764-.03019-.20846-.18509-.39374-.15524-.18558-.27579-.09179-.30516-.38079-.02916-.28899-.20408-.38578-.42284-.63079-.21811-.24514.05283-.19337-.05303-.31572-.10487-.12201-.1409-.16814-.2231-.30341-.08237-.13479-.47123-.37103-.19926-.43311.27179-.06208.03552-.11783.31697-.05246.28146.06541.19827.27857.31048.4273.11286.14856.03883.03202.13837.23321.10057.20051.0307.05062.23812.12847.20793.07853-.0572-.10008.08653.17695.14356.2769.05802.21149.11922.41284.06154.20119.28416.2445.42854.40951h0ZM155.23953,32.50568h0ZM154.9749,34.39884h0ZM154.5522,34.39884c.00734,0,.01267.01278.01585.01628.00318.00313-.02319-.01628-.01585-.01628h0ZM154.49934,34.50426c-.02018-.03437-.04019-.06806-.06085-.10243.02083.03437.04054.06823.06085.10274v-.00031h0ZM154.1295,34.55719c-.0405-.10043.00717-.07221.15842-.05263.15108.01962.08988.10624,0,.10508-.08971-.00116-.11805.0478-.15842-.05246h0ZM154.02347,34.66193c-.00253-.11219-.00669-.10756.10603-.10474.11273.00235-.10303.21781-.10603.10491v-.00016h0ZM153.97109,34.66193c.0377.06208-.14387.06208-.10603.00016.03818-.06173.06768-.06156.1059,0l.00013-.00016h0ZM153.86522,34.66193h0ZM153.65377,35.0829h0ZM152.17395,39.39629c.02968.07054-.01485.05079.07919.18409.09439.1333.05853.16715.18509.13146.12604-.03583-.08155-.09443.0527-.21012.13489-.1159.14073-.04052.26428,0,.12338.0398.11054.03651.1059.10474-.00468.06905-.14176.07089-.05287.15836.08851.08696.16207-.03056.26394.05212.10238.08298.16323.18674.10556.31572-.05635.12932-.09186.09131-.15825.0528-.06618-.03869.09787-.13513.05921-.2085-.03869-.07353.04433-.01129-.05921.05062-.10337.06194-.12304.02389-.21125-.05229-.08855-.07683.15739-.0755.05287-.15835-.10491-.08281-.2568-.18375-.31766-.05212-.06003.13095.00898.18144.05317.3149.04487.13377.15408-.06442.18792-.07904.0332-.01543.04238-.23039.0237-.02539-.01868.20452-.15224.05762-.1059.31524.04668.25727.18444.05511.26428.05262.08004-.00183.01069-.03736.01335-.04715.00301-.00979.00352-.01479.00734-.02624.00434-.01112.01567-.04348.02001-.05494.00417-.01129-.03118-.05477.01216-.02937.0432.02458.00751.07221.15825.05263.1519-.01992-.06854-.09448,0-.10542.06905-.01095.13223-.12133.15873.0528.02687.17379-.01598.13411-.10552.1577-.08971.02305.021-.04963,0-.05262-.02135-.00282-.06154.02125-.06154.04382,0,.02274.09671-.16634.06154.0088-.03538.17512-.50541.04929-.60397.39388-.0992.34513.06854.29215.07537.18477.00683-.10739-.20527-.27339.05286-.26275.25827.01027.21978-.05711.31731.15352.09787.2105.09787.34094.37018.2671.27162-.07438-.09439-.1763,0-.31589.09336-.13945-.01134.00911.08087.07302.09306.06408-.00768.11436.07704.03253.08537-.08268.05484-.16584.02083-.33081-.03384-.16519-.08602-.20503-.12622-.30045-.04019-.09563.0405-.06874.06085-.1026-.02035.03386-.00335.13082-.06085.1026-.05771-.02856-.05252-.02275-.05252-.15835-.00068-.13513-.10521.24117-.10624.10573-.00065-.13595-.0697.0186-.05266-.15788.01701-.17712.0085.02274.0682-.08649.05918-.10919-.01468-.26044-.09254-.30756-.07871-.04766-.00751-.00316-.03787-.01696-.03084-.01424-.03285.00201-.14957-.06656-.11655-.06854-.25062-.16532-.58108-.25878-.33067-.09427.13605-.06456.04402-.17596-.0922-.11103-.3235.13662-.09671-.19221.22709-.32932.42103-.3436.10521-.57898-.31533-.23505-.35918-.0802-.45104.28849-.09139.36817-.05119.3813.13437.60604.18577.22427-.01615.11487-.05283.15771-.03654.043.02134-.04963,0-.05246-.02134-.0035-.06154.02074-.06154.04365s.03152-.06157.06154.0088h0ZM152.49092,39.39629h0ZM152.38571,39.44874h0ZM152.7552,39.44874h0ZM152.49092,39.39629c.03316.01642.03316.08863,0,.10542-.03337.01642-.10539-.0138-.10539-.05297.00017-.03916.07202-.06922.10539-.05246h0ZM152.7552,39.50171v-.05297.05297h0ZM152.8611,39.60644h0ZM153.07252,39.71183h0ZM153.07252,39.71183c.04269,0,.10521.06293.10521.10509,0,.04266-.08035.02505-.10556,0-.02466-.02471-.04235-.10509,0-.10509h.00034ZM153.17773,39.81692h0ZM151.85677,37.18738c0,.08965.02769.21298.08489.28335.05734.0699.11689.31307.17959.18959.06219-.12303.24478-.84177.05269-.84177-.19144,0-.31718.2787-.31718.36882h0ZM132.83075,34.97799c-.09138.07703-.06854.15771.10556.15771.17457-.00017.44903-.11171.36984-.26309-.07906-.15172-.38435.02805-.47539.10505v.00034h0ZM152.7552,34.87261c.09705-.0015.13424-.01295.15842-.10491.02483-.09298-.12191-.02458-.15842,0-.03633.02407-.09705.10624,0,.10491h0ZM153.33646,34.66193c.01052.04283.04238.04283.05337.00016.01035-.04249.01035-.1678,0-.21046-.011-.04249-.04286-.04215-.05337,0-.01032.04266-.01032.16814,0,.21046v-.00016h0ZM153.38983,36.60823c.05252.09679.26729-.11021.16976-.14591-.09791-.03702-.22279.04899-.16976.14608v-.00017h0ZM155.08063,33.50496c-.17341-.00231-.01335-.20748-.10573-.10525-.09172.10209.0347-.01377.10573.10525.0712.11919.06553.1713-.13557.23274-.20175.0614.03384.08798-.17457-.07635-.20828-.16468.11587-.01744-.05969-.05113-.17577-.03369.11389.41845-.05269.52619-.16709.10743-.03787-.08829-.36502.00051s-.53775.40254-.67947.59044c-.14192.18857-.11624.05096-.1184.14526-.00232.09427.10822.07401.15855.2103.05088.1368-.04617.29498.15842.31554.20527.02095.17259-.06754.17925-.27437.00683-.20683-.01834-.32469-.02049-.46197-.00236-.13727.017-.11355.05252,0,.03616.11338.13155.50015.26445.2631.13305-.23719-.01468-.14972.12038-.18738.13489-.0377.01936.10556.10637-.05793.0867-.16369-.19274-.17399-.01533-.17532.17758-.00163.02534.01992.11539.09563.09022.0752.01468.16964.14906.1147.13373-.05511.05536-.03604.12089-.14244.06488-.10688-.03599-.14108.09022-.17362.12673-.03202.16908-.00065.2623-.03967.0937-.03899.10152-.06541.17122-.10158.06922-.03668.34166-.01992.29365-.27125-.04818-.25164-.03002-.24035-.05337-.36219-.02401-.12201-.07185-.06755-.0922-.17147-.02032-.10474-.05901.10274.06519-.09264.12475-.19554-.17256-.7956-.22426-.9596-.05085-.16434.02968.02274-.15808.10525-.18758.08247-.10706.32599-.05768.4279.049.10127.07236.57401-.10105.57137h0ZM152.91362,36.97657c.07185.07122.12686-.05212.06137-.02822-.06539.02359-.13291-.04266-.06137.02822h0ZM153.65377,36.08269c-.02418.12731.13841-.02621.05269-.02108-.0867.0053-.02899-.10641-.05269.02108h0ZM153.2838,34.97799c.00816.06276.05369.01295.06301.00978.00919-.00346.06236.05695.02268-.01428-.03917-.07101-.00181-.00978-.02718-.01244-.02551-.00231-.06652-.04613-.0585.01659v.00034h0ZM131.72107,34.9252c0,.13996.05884.00649.03285,0-.02636-.00697-.03285-.13976-.03285,0h0ZM154.86918,32.18993c-.02418.04532-.05003-.02155-.05269,0-.00314.02125.02086.06144.04402.06144.02319-.00034-.07369-.10359.00867-.06144.08237.04185-.00748.14027.15893.2633.16573.12283.15507-.05677.26394-.10491.1089-.04916.08387-.06639,0-.10593-.08305-.03916-.37632.0259-.21142-.10505.16491-.13099.0305-.12466.27196-.05895.24144.06558.13639.18793.36249.11153.22628-.07635.11454-.27322.36967-.36817.2553-.09477-.10753-.079-.10573-.15767.00184-.07904.22146-.21448.11389-.26031-.10754-.04647-.05785.00551-.10371.05976-.04617.05446.00502.24103-.06287.09512-.06786-.14574-.04867.05212-.34416-.01843-.29614-.0702-.1479-.14856-.36868-.28335-.22142-.13445-.22911-.05477-.16173.16519.06669.22009.29614.2586.08185.45214-.21425.19388-.14571-.01394-.18458.07088-.03951.08468-.05519.19939-.07988.24483h0ZM152.64965,37.13461c.00519.00514.01567-.01975.01567-.0156,0,.00299.00051-.00068,0,0-.00048,0-.02117.01027-.01567.0156h0ZM152.7552,37.08165c.00567.00547.01585-.01924.01585-.01577.00034.00384.00065-.00034,0,0,0,.00068-.02083.01081-.01585.01594v-.00017h0ZM131.56249,34.7149c.00533.00513.01533-.01924.01533-.01543,0,.0033.00085-.00099,0,0,0,0-.02083.0103-.01533.01543h0ZM153.6006,36.24005c.00782,0,.01301-.01227.01615-.01526.00318-.00299-.02315.0156-.01615.0156v-.00034h0ZM154.07664,34.03118c.007,0,.01236-.01278.01602-.01628.00283-.00282-.02384.01658-.01632.01658l.00031-.0003h0ZM156.19048,31.61146c.00765,0,.01267-.01278.01585-.01594.00297-.00316-.02302.01594-.01585.01594h0ZM152.38571,38.29159c.00666,0,.01216-.01244.0155-.0156.00301-.00316-.02319.0156-.01567.0156h.00017ZM153.91809,35.50353c-.01202.02805-.04036.06891-.06102.10294.02066-.03403.03951-.08336.06068-.1026.02168-.01924.0502.02108.05321,0,.00283-.02142-.02151-.06143-.04419-.06143-.02319,0,.00301.03372-.00902.06143l.00034-.00034h0ZM140.96955,37.60787c.03835.00962.07588.01924.11423.02886-.03835-.00961-.07605-.01924-.11423-.02872v-.00014h0ZM135.57902,32.54036c.07772-.2754.17659-.14839.43721-.33629.26029-.18857.36984-.18477.58812-.15172.21876.03335.36498.15155.13772.34808-.22795.19687-.25246-.05861-.31749.1401-.06553.19854-.1284-.17447-.15842.12283-.03084.2978.36618.0973.52808.4208.16276.32337.06588.29498.1354.58031.06905.28618.007.04583.03603.0943.029.04763.00499.00748.021.02539.01533.01809-.01485-.03784.07888.0888.09405.12616.46337.48223.25762.68423-.20626.2017-.5009.02907-.75552-.08978-.25414-.11953-.09091-.04052-.11023-.04882-.01851-.00846-.29665-.10987-.19059-.48488.1059-.37596.15739.00615.2106-.21825.05334-.22512-.17126-.089-.29563-.23158-.12505-.14292.19093.15669-.11624-.14758-.30714-.30494-.09985-.1758-.34648-.50062-.24663-.32503-.21794-.01945-.14008-.29515v-.00017h0ZM133.1479,32.54036c-.1077-.03634-.13024-.0991-.06003-.19041.0697-.09128.6433-.42777.74719-.2649.10388.1625-.02401.19833-.21176.45548-.18741.2568-.36786.03634-.47539,0v-.00017h0ZM131.46895,35.05418l.02134-.09243c.03019.00646.05553.0121.07219.01591.07038.01662.00652.05694-.09353.07652h0ZM149.29793,20.90578c.15774,0,.31513.0018.47153.00598-.01448.04232-.01233.07734.02619.07417.08954-.0073.10921.00398.10955-.06989.43103.01428.85872.04266,1.28193.08584.02251.01843.0502.03185.08821.03651.02869.00367.06335-.00249.10272-.01611.56678.06391,1.12587.1539,1.67577.26809.03886.01894.0682.02342.09473.02026,2.11462.45085,4.09306,1.26553,5.8667,2.37556-.13687.0053-.27712-.08649-.40518.01975-.15391.12748-.08537.23672-.2526.40952-.16692.17345-.08971.75161-.15859.9734-.06854.22192-.65812-.21381-.79318.26326-.1339.47672-.00386-.27057-.21077-.2105-.20712.05993-.00201.11025-.13892.18327-.13704.07353-.24693-.20915-.1784.16366.06785.37266.05119.50711.21944.75545.16873.24834.067.02325.13772-.00065.07151-.02424.00649-.087.10921.00745.10255.09396-.0085-.11851.04337.09611.05252.21516-.07137.06592.18775.30729.25879.24069.18973.22124.14571.33479-.04351.11321-.15173-.09379-.20927-.05908-.05703.03468-.07352-.02655,0,.18443.07438.2108.39518.26391.26445.49964-.13021.23522-.27695.04382-.26896.26027.00803.21614.1394.1899.16091.31191.0222.12116-.17157-.09628-.20927.05908-.03719.15454.06171.20088.05269.41981-.00833.21811.11655.284-.10569.36868-.22146.08516-.22829-.25065-.35502-.43542-.12656-.18477-.00666.00034-.09705-.11304-.09104-.11389-.1062-.15869-.24642-.33367-.13991-.17528-.48226-.81886-.51675-1.03728-.03388-.21897-.07605.19238-.03903-.17113.0362-.36389.02667-.13496-.06669-.43426-.09336-.29913.01636.03485.1479-.06558.13171-.10008.12888-.22509.12556-.40768-.00318-.18259.12137-.27835.09671-.54712-.02517-.26874.14472-.11933.15855-.45231.01369-.33248-.07404-.39459-.21142-.47343-.13708-.07918-.01366.08067,0,.10525.01301.02454.06188-.01411.06188.00877,0,.02308-.04088.04681-.06188.04385-.021-.00299.09036-.13761,0-.05263-.09022.08499-.11204-.00367-.17925.18939-.06622.19323.06785.26211-.0852.3368-.15275.07438-.21377-.01561-.31697-.10539-.1034-.09016.20893-.37433,0-.31558-.20896.0586-.1494.0513-.29532.0802-.14524.02856-.1479.04498-.18543.07087-.03733.02455-.12755.09513-.12386.30774.00297.21264.05635.08849.02332.25646-.03302.16835-.23727.15373-.10573.33666.13141.1831.3612-.0103.2638.21046-.09637.22094-.42769.33748-.63364.2631-.20643-.07469.05338-.47108-.52839-.2631-.58228.20833.03019.16318-.40702.28336-.43653.12001-.29099.03104-.48406.08815-.19325.05694-.2383.02488-.32483.10175-.08636.0772-.02851.23637-.03599.29015-.00717.05395-.00369.00632-.01069.0357-.00717.0289-.02869.11521-.03552.14343-.00635.02838-.00082.01577-.00382.03318-.00253.01727-.00966.06425-.01335.08037-.00334.0156.00884-.16417-.00649.02257-.01485.1864-.10272.19602-.21446.65418-.11153.45731-.45319.34693-.26093.5818.19192.2344.20691-.0136.21142-.15818.00451-.14441.1034.12368.15859.10556.05519-.0186-.1424-.13809,0-.15768.14172-.0206.18041.06123.20176.19603.02083.13462-.11806.29729.06218.32966.18058.03257-.03483-.26109.15876-.26275.1939-.00184-.00151.27904.68681.26275.68882-.01643-.12458-.23056.05321-.42046.17792-.19055.31612.33034.36365.42678s.03367.04929.10439.26411c.07134.21445.62729.98516.74783,1.14984.1199.16481.0612-.01428.0612.0088,0,.02323-.0405.04712-.0612.04383-.02117-.00316.12789-.00897,0-.05263-.12922-.04334-.13322-.50382-.31766-.10525-.18389.3984.25346.64058.34883.75743.09487.11705.24929.09977.07404.24219-.17542.1421-.1299-.14622-.26394-.15784-.13458-.01197.13506.24599,0,.21047-.13591-.03583-.06922.08183-.19909-.38079-.13025-.46261-.1786-.40571-.2303-.61237-.05184-.20714-.0085-.15785-.07018-.29862-.06154-.14091-.15657-.34594-.22494-.46013-.06803-.11355-.12707-.36202-.17409-.1421-.04702.22046.00051.4668.06905.61437.0685.14724.05402-.02308.08937.20085.03517.22393.08602.20765-.02353.69052-.10921.48321-.39552,1.36333-.71614,1.54524-.32117.18161-.1561-.25411-.31731-.15801-.16126.09628-.01984.07867-.18178.2377-.16238.15903-.28378-.06738-.18806.27091.09521.33863-.38169.43657-.26449.70133.11706.26476.34518.19486.56729.48784.22228.29267.25896.70847.06704.72193-.19209.01428-.0949.47723-.5286.15801-.43352-.31919-.15056-.3929-.21142-.63161-.06086-.23838.24611.0103.09671-.20367-.14875-.21397-.37967-.05959-.41368-.53251-.03418-.4721-.27149-.13065-.48389-.01227-.21244.11868-.15343.18059-.28399.22689-.13021.04617-.0475.12833-.07769-.00381-.02985-.13245.16439-.38728.10586-.52653-.05836-.13928-.11922-.29566-.26462-.05246-.14472.24317-.0837.27788-.3168.57898-.23344.30096-.23211-.29665-.26445,0-.03234.29614.2903.25531.36949.47342.08005.21744.08039.18559.15907,0,.07872-.18592.42837-.47675.68667-.15787.25912.31823-.04754.12432-.33767.30079-.2903.17695-.3138.30294-.24311.48818.06987.18477.27145.23008.42253.52554.15091.29549-.01468-.10376.17409.04365.18793.1471.04583.05613.05136.1315.0055.0752-.04238-.01479.01766.11436.06086.12915.08971-.04117.07404.13163-.01585.1728-.2021.00299-.1589.10508.04385.10225.22009-.05481.26445.15784.0447.21264-.11174.39493-.19793.53965-.08571.14492.02435.00333-.05935.09862-.08305.09526-.1324-.08883-.16542.09825-.03268.18708.12574.28486-.07086.45418-.19694.16998-.60946.43804-.73735.52636-.12673.08964.10187-.02488-.03019.0088-.13305.03287-.17023-.17647-.32414-.04249-.1534.13347-.36034.03719-.63429.36817-.27398.33166.14589.19221.21108.31538.06604.12334.00301.06391-.08469.18045-.08756.11636-.40037.19289-.4437-.02257-.04269-.2153.1996-.19473.31731-.26292.11754-.06823-.10306-.11089-.12806-.13795-.02486-.02805.04351.04583-.02285-.03202-.06639-.07788-.0347-.17712-.31083-.08434-.27596.09264-.36632.25531-.4367.35937-.07069.10427-.02869.13727,0,.21033.02886.07302.00116,0,.16276.20333.1619.20336.62497.40023.71099.93176.08554.53084-.06502.48818-.36751.63127-.30212.14356-.30796.24283-.46002.33115-.15159.0888-.17908.37847-.15159.05942.02653-.3197-.09654-.34492-.1924-.39224-.0964-.04763-.19793-.20499-.27647-.2837-.07755-.07883.16791.1109-.06386-.04861-.23095-.15988-.15524-.05197-.36635-.27471-.21026-.22311-.09821-.0938-.14421.09461-.0462.18874-.15975.52853-.11956.69419.03985.16566.09487.04681.15855.05262.06369.00565.04019-.06856.06086-.10293-.02066.03437-.07868-.0204-.06086.10293.01735.12365.05754.07833.11672.23621.05952.15737-.31663-.04001.22159.26591.53809.3061.38336.53717.49991.76675.11771.22988.40368.32983.27145.4671-.13171.1371-.34115-.17212-.46689-.21961-.12488-.0478-.11853-.24433-.16723-.04348-.04921.20051.00734.0277.16723.14856.16043.12133.00485-.03005.14124.1268.13622.15703-.11071.15672.0612.35573.17242.19888.10071.09893.26445.26296.16375.16464.05136.00462.10521-.15737.05505-.16302.37069.01809.31749.31504-.05303.29682-.80302.10427-.21125.52639.59126.42162.42987.24467.84089.20948.41184-.03519.0712-.12235.41201-.04416.34016.07867.32548-.08152.49107.04515.16573.12599-.44988.09777-.26397.15754.18543.05925.21179.00598.39835.0614.18642.05514.16159.00184.18294.1489.021.14758-.16774-.01061-.18007-.00945-.01168.00068-.02503.00299-.03371.00364-.00816.00102-.02302.00517-.03002.00581-.00734.0015.11139.02043-.02735.00697-.13906-.01343-.57893-.04532-.81419-.08414-.23495-.03968-.11505-.05562-.29146-.07768-.17676-.02291.01233.01726-.28716-.03022-.29963-.04732-.25595.02291-.50357-.13031-.24745-.15369.36803-.11568.10624-.26292-.26165-.14741-.23829.0838-.43953-.08452-.20161-.16797-.26599-.2226-.49158-.40917-.22644-.1864-.26063-.43705-.41918-.63477-.15893-.19803.00314.0138-.02404-.02886-.02715-.04232-.06485-.10144-.14073-.22825-.07585-.12599-.15572-.17929-.22392-.25082-.06789-.07122.16825.20499-.04887-.05562-.21842-.26044-.5666-.40849-.53758-.62246.02869-.21397.4297.04929.50107.07999.0712.03056.03985.02706.14421.11919.10375.0923.32517.27057.46272.38095.13759.11039.26346.33265.37185.15622.10788-.17695.14005.14159-.13322-.18293-.27329-.32452-.17392-.57535-.46405-.9118-.29047-.33649-.23829.08547-.24864-.11504-.01031-.20085.10689-.68873-.00232-.99563-.10904-.30678.16173-.94618-.36751-.84558-.52907.10025-.63313.21876-.61896-.02043.01369-.23953.14459-.09427-.01516-.29481-.16009-.20136-.14773.19507-.21159-.10573-.06355-.30096-.01284-.13578-.24929-.32867-.23611-.19289-.12673-.31738-.22661-.40737-.0992-.09046-.31632.12119-.4802.15586-.1646.03472-.30267-.07434-.47058.05447-.16774.1283.0617.19024-.16972.35124-.23112.16083-.12106.05844-.3767.3149-.25561.25578-.30096.29049-.43404.40917-.1339.11936-.25359-.00731-.34081.13428-.08756.14176.06287.37283.02667.61335-.03603.24051.08404.15322-.02667.49134-.11054.33846-.15807.12932-.33132.30144-.17276.17249-.03452.24851-.25011.17215-.21562-.07686-.23679-.455-.38134-.67295-.14425-.21747-.03736.10226-.21763-.30943-.18007-.41148-.0265-1.5308-.6166-1.85814-.58979-.32718-.63596.08533-.85609-.06323-.22043-.14856.13574-.02938.11607-.09447-.01933-.0652-.04651-.03634-.09005-.06871-.04351-.03236-.0055-.00513-.02985-.02206-.02483-.0171-.09572-.06592-.12256-.08366-.0265-.01826.06055.04031-.06536-.03754-.1254-.07835-.26961-.29712-.35884-.33662-.08903-.04001.07404-.01676-.03849-.01496-.11358.00051-.3155.00085-.63931.01944-.3235.01959-.51207.0033-.91161-.04582-.399-.04929-.34897-.13795-.54506-.35706-.19544-.21863-.00553-.01244-.16357.04912-.15893.06211-.21295.13714-.41806.06343-.20592-.07339-.26712-.12748-.51091-.23439-.24427-.10739-.22825-.53319-.55776-.48787-.32981.04583-.16255.29066-.0335.44388.12905.15339-.09555-.08383.07871.0805.17406.16352.03685.31392.28395.45333.24711.13962.01636-.24949.21142-.15784.19561.09243-.20223.28366.10573.42111.30881.13795.79288-.32966.84041-.37348.04733-.04416.00048-.00962.02715-.02539.02701-.01577.14274-.23158.13643-.07486-.00601.15737-.11758.44354.30246.5355.42004.09229.25728.04164.49055.30627.23362.26493-.05102.18721-.1996.32782-.14821.14061-.22026.14326-.2234.30345-.00283.16001.2106.08033.05317.10508-.15842.02505-.20059.05028-.29498.12796-.09453.07652-.01383.01346-.02817.02407-.01482.01013.12772-.0926-.06301.04249-.19045.1353.17058.10093-.34552.23457-.5164.13411-.33883.20418-.57309.32401-.23362.12018.02001.00034-.20459.05976-.22412.05942-.25779.10539-.59095.22974-.33333.12466-.14623.06405-.399.09145-.25247.0274-.27879.08747-.56643.18109-.28682.09363-.24345-.00414-.05286.21034.19158.21461.14708.2259.59662.12232.44954-.10423.91841-.22291,1.14769-.22757.22928-.00415.01602.2309.01366.28484-.00283.05396-.00799.06391-.01748.0953-.00953.03087.03118-.04549-.01185.03087-.04252.07618.26161-.43192-.24646.43243-.50824.86481-1.09083,1.12145-1.74615,1.82163-.65546.69997-.29529.2206-.38866.36749-.09323.1469-.11225.16368-.16877.25283-.05635.08846-.04952.08897-.07438.13625-.02466.04668-.13455-.03651-.05536.1026.0794.13959.08322-.09628.13824.20615.05454.30195-.02667.3184.17443.64408.20107.32602.05768.46244.04634.69916-.01117.23705.13322-.04481-.04153.29199-.17556.33663-.71034.42777-1.15653.84789-.44606.42032.08087.38595-.05952.94022-.13991.55393-.46771.15271-.58129.36865-.01048.02026-.01984.04001-.02749.05912-1.27944-2.48645-2.00111-5.30405-2.00111-8.28963,0-1.16429.11006-2.30352.31964-3.4074l.02336.00765c.46504.15339-.00833-.00231.44838.08002.45603.082.33067.09411.68298.00116.3515-.09311.55376.1112.76587.02954.2121-.08268.3043-.50147.31697-.73703.01335-.23586.14274-.25912,0-.42064-.14291-.16117.09302-.19038-.3068.01677-.39839.207-.42403-.123-.80288-.01677-.37902.10692.05402.1587-.21145.15822-.26561-.00136.10156-.07272-.15873-.15822-.25994-.08563.06738.23821-.26411.21051-.33135-.02723.09353-.06327-.01236-.20136-.04852-.06293-.12622-.13214-.20175-.20085.05604-.21183.1159-.4223.17942-.63164.17474.05082.38035-.0428.24594-.17593-.04552-.04549-.1059-.07088-.16675-.0802l.0237-.07268c.04016.01044.09104.02223.15606.03617.44121.0961.82006-.2772,1.27343-.14091.45388.13578.18423.06255.2918.1044.10737.04164.14739.09128.36683.084.21893-.0073.5456.1195.5916-.19391.04668-.31354-.16989-.26656-.3655-.37249-.1954-.10522-.00099-.06272-.42021-.26625-.41901-.2035-.59925.14095-.95809.00782-.35901-.13364-.02718-.08268-.21128-.15788-.18458-.07537.04904-.03933.10607-.07037.05635-.03121.28597-.11953.05201-.1401-.19892-.01727-.25629-.15703-.42837-.13347.9276-2.27479,2.30408-4.32117,4.02005-6.02942.38001-.37831.77635-.73969,1.18874-1.08362.10187.06956.20141.14557.29344.14505.13991-.00064-.00348-.09145-.02117-.13659-.01666-.04583.0307.00197-.01533-.03753-.02066-.01758-.06553-.05327-.11307-.08995.19694-.16104.39654-.31721.59997-.47009.09671.28848.1257.31752.20927.39374.09521.08713.27244.30243.18608.55111-.08653.24814-.01933.19653-.08254.3338-.0627.13727-.47423-.01013-.23495.13959.24027.14958.44804-.09777.52091-.32201.07236-.22477.05051.06473.06085-.17249.00983-.23753-.16791-.21064-.15889-.45231.00966-.24137.15189-.14941.2556-.21914.10439-.06953.2593-.04015.06171-.04382-.19742-.00381-.22644.30892-.52825.10508-.30229-.20316-.01383-.07768-.07919-.23688-.06355-.15635-.01369.02492-.06085-.18772.36748-.26976.74534-.5267,1.13335-.76923.12024.06443.19093.06725.14575-.09012l.02582-.01561c-.00348.02489-.00816.05114-.01417.07653-.03599.15203-.16805.32666.06454.32884.22009.00248.06553-.25731.00902-.44175,1.02912-.62297,2.12497-1.14718,3.2742-1.55999-.06287.06605-.12324.09675-.00652.10837.16057.01544.19626-.04681.30516-.16964.01967-.02176.04334-.04415.0682-.06656.51006-.17083,1.03062-.32038,1.56004-.4467-.03032.06592-.0627.13911.02237.15689.18075.03715.00434-.10226.34515-.03172.34115.07037.47006.36518.50039-.0737.00734-.10458.00283-.1796-.00833-.23505.2608-.04912.52341-.09281.78803-.13065.06721.03172.12041.0772.1966.13826.12625.10161-.08285.07288.02752.22743.11105.15502.27596.08084.31731.21064.04118.12949-.13789-.16468.0532.05228.19089.21748.42837.5214.63378.36851.20578-.15338-.24243-.38279-.15855-.57898.08435-.19571.18089.15172.35898.15386.17809.00201.17075-.14938.22262-.20632.05184-.05677.22108.02142.27145.01543.0502-.00646-.19124.082.09306-.02954.28511-.11155.37301.0855.37482-.1436.00236-.22923-.19759-.16981-.25943-.22458-.06154-.05463-.11358.01475-.11023-.09115.00133-.03035.00734-.05293.01752-.07037.19742-.00615.39569-.00978.59478-.00978h0ZM154.1295,29.13895h0Z"/>
        </g>
        <path class="cls-2" d="M100.82585,21.1584h24.31351v7.33785h-16.32857v7.33754h15.10002v7.33785h-15.10002v14.06387h-7.98494V21.1584Z"/>
        <path class="cls-2" d="M173.45764,21.1584h14.0252c1.84283,0,3.59085.17854,5.24728.535,1.65387.35677,3.10404.95171,4.35053,1.78353,1.2452.83278,2.23419,1.95379,2.96825,3.36301.73406,1.41018,1.10108,3.16821,1.10108,5.27407,0,2.54776-.66552,4.71357-1.99655,6.4971-1.33104,1.78321-3.27571,2.91314-5.83529,3.38852l9.21349,15.23589h-9.57155l-7.57563-14.42064h-3.94123v14.42064h-7.98558V21.1584ZM181.44321,36.08853h4.70859c.7174,0,1.4758-.02551,2.27839-.0762.80131-.05101,1.5264-.20405,2.17526-.4588.64758-.25474,1.18563-.6536,1.61223-1.19752.4266-.54297.6399-1.3072.6399-2.29302,0-.91695-.18768-1.64707-.56303-2.19099-.37535-.54297-.8532-.95936-1.43352-1.24854-.58033-.28822-1.24584-.48398-1.99591-.58601-.75071-.10171-1.48477-.15272-2.20089-.15272h-5.22102v8.20379Z"/>
        <path class="cls-2" d="M206.93339,21.1584h24.62097v7.33785h-16.63603v6.72602h15.7143v7.33785h-15.7143v7.33754h17.55712v7.33785h-25.54206V21.1584Z"/>
        <path class="cls-2" d="M235.28997,21.1584h9.111l8.95791,23.64374h.10249l9.111-23.64374h8.54797l-14.94629,36.07712h-6.39769l-14.48639-36.07712Z"/>
        <path class="cls-2" d="M275.21529,21.1584h24.62033v7.33785h-16.63475v6.72602h15.71366v7.33785h-15.71366v7.33754h17.55648v7.33785h-25.54206V21.1584Z"/>
        <path class="cls-2" d="M307.15504,21.1584h14.0252c1.84283,0,3.59085.17854,5.24664.535,1.65451.35677,3.10468.95171,4.35053,1.78353,1.2452.83278,2.23483,1.95379,2.96889,3.36301.73342,1.41018,1.10108,3.16821,1.10108,5.27407,0,2.54776-.66616,4.71357-1.99655,6.4971-1.33104,1.78321-3.27635,2.91314-5.83529,3.38852l9.21349,15.23589h-9.57155l-7.57627-14.42064h-3.94058v14.42064h-7.98558V21.1584ZM315.14061,36.08853h4.70859c.71676,0,1.4758-.02551,2.27839-.0762.80067-.05101,1.5264-.20405,2.17526-.4588.64758-.25474,1.18499-.6536,1.61159-1.19752.4266-.54297.64054-1.3072.64054-2.29302,0-.91695-.18832-1.64707-.56367-2.19099-.37535-.54297-.8532-.95936-1.43288-1.24854-.58097-.28822-1.24584-.48398-1.99655-.58601-.75071-.10171-1.48412-.15272-2.20089-.15272h-5.22038v8.20379Z"/>
        <g>
          <path class="cls-2" d="M100.51839,63.12116h11.97804c2.90035,0,5.65594.32329,8.26677.96797,2.61019.64595,4.88794,1.69043,6.83325,3.13345,1.94467,1.4443,3.48837,3.32092,4.63236,5.63116,1.14272,2.31024,1.71472,5.11275,1.71472,8.40753,0,2.92239-.55535,5.49534-1.66348,7.72013-1.10941,2.22543-2.6025,4.09377-4.47864,5.60502-1.87741,1.51189-4.04435,2.6584-6.50145,3.43953-2.45646.78177-5.03334,1.17202-7.72872,1.17202h-13.05287v-36.0768ZM108.50396,91.86042h4.1462c1.84218,0,3.55754-.1862,5.14415-.5605,1.58661-.37367,2.95992-.99411,4.12058-1.86005,1.15937-.86658,2.07278-2.00416,2.7383-3.41402.66552-1.40923.99796-3.13409.99796-5.17205,0-1.76631-.33244-3.30371-.99796-4.61155-.66552-1.3072-1.56099-2.38612-2.68705-3.23612-1.12606-.84872-2.44941-1.48511-3.96749-1.91042-1.51807-.42468-3.11429-.63702-4.78609-.63702h-4.70859v21.40173Z"/>
          <path class="cls-2" d="M169.92699,85.2868c0,2.13998-.32475,4.11098-.97234,5.91109-.64886,1.80075-1.61287,3.36301-2.89267,4.68806-1.27979,1.32442-2.87473,2.36125-4.78545,3.10795-1.912.74734-4.11289,1.121-6.6033,1.121-2.52564,0-4.74382-.37367-6.6539-1.121-1.91136-.7467-3.5063-1.78353-4.78609-3.10795-1.27979-1.32505-2.24444-2.88732-2.89203-4.68806-.64886-1.80011-.97298-3.77111-.97298-5.91109v-22.16564h7.98558v21.86021c0,1.121.17871,2.1572.53741,3.10795.3587.95139.86088,1.77588,1.51039,2.47156.64694.69696,1.42391,1.24025,2.32899,1.63049.90316.39088,1.88446.58601,2.94263.58601,1.05753,0,2.02986-.19512,2.91765-.58601.88714-.39025,1.65451-.93353,2.30337-1.63049.64758-.69569,1.15169-1.52018,1.50975-2.47156.3587-.95075.53805-1.98694.53805-3.10795v-21.86021h7.98494v22.16564Z"/>
          <path class="cls-2" d="M177.60447,63.12116h7.98494v28.73926h14.79321v7.33754h-22.77814v-36.0768Z"/>
          <path class="cls-2" d="M198.18109,63.12116h8.7017l5.78405,23.13361h.10249l7.57563-23.13361h7.4219l7.52439,23.74512h.10249l6.09151-23.74512h8.08742l-10.59577,36.0768h-7.11509l-7.98494-24.96879h-.10249l-7.98494,24.96879h-6.85887l-10.74949-36.0768Z"/>
          <path class="cls-2" d="M253.05335,63.12116h7.98494v36.0768h-7.98494v-36.0768Z"/>
          <path class="cls-2" d="M292.00569,72.49665c-.7853-.95075-1.74931-1.68151-2.89267-2.19099s-2.46543-.76455-3.96621-.76455c-1.5027,0-2.89267.2895-4.17182.86658-1.27979.57772-2.3892,1.38436-3.32759,2.42055-.93903,1.03619-1.6718,2.26751-2.20089,3.69396-.52908,1.42708-.79299,2.9734-.79299,4.63705,0,1.69936.2639,3.25333.79299,4.66256.52908,1.4105,1.25417,2.63289,2.17526,3.66909.92173,1.03683,2.00488,1.84283,3.25073,2.42055,1.2452.57772,2.58457.86594,4.01809.86594,1.63785,0,3.08803-.33923,4.35053-1.01898,1.2625-.67911,2.30337-1.63049,3.12262-2.85352l6.65454,4.94249c-1.53601,2.14062-3.48068,3.7201-5.83529,4.73908-2.35461,1.01898-4.77841,1.52847-7.26882,1.52847-2.83246,0-5.44328-.4419-7.83121-1.32442-2.3892-.88316-4.45301-2.14827-6.19399-3.79662-1.7397-1.64707-3.09636-3.64294-4.06869-5.98697-.97298-2.34403-1.45914-4.95971-1.45914-7.84766,0-2.88668.48617-5.50299,1.45914-7.84702.97234-2.34403,2.32899-4.33927,4.06869-5.98761,1.74098-1.64707,3.80479-2.91219,6.19399-3.79598,2.38792-.88316,4.99875-1.32505,7.83121-1.32505,1.02358,0,2.09007.09437,3.19884.28057,1.10941.18683,2.20153.48398,3.27635.89145s2.10673.95139,3.097,1.63049c.98899.68038,1.87613,1.51189,2.66143,2.49707l-6.14211,4.9935Z"/>
          <path class="cls-2" d="M303.36882,63.12116h7.98494v13.45204h15.50933v-13.45204h7.98558v36.0768h-7.98558v-15.59266h-15.50933v15.59266h-7.98494v-36.0768Z"/>
        </g>
      </g>
      <g>
        <polygon class="cls-2" points="43.73145 21.09999 58.54669 21.09999 43.73145 98.95156 28.9162 98.95156 43.73145 21.09999"/>
        <polygon class="cls-2" points="68.7739 21.09999 83.58914 21.09999 68.7739 98.95156 53.95865 98.95156 68.7739 21.09999"/>
        <rect class="cls-2" x="28.4548" y="38.97513" width="60.05808" height="14.12343"/>
        <rect class="cls-2" x="24.77248" y="66.95298" width="60.05808" height="14.12412"/>
      </g>
    </g>
  </g>
</svg>