<?xml version="1.0" encoding="utf-8"?>
<!-- Generator: Adobe Illustrator 22.0.1, SVG Export Plug-In . SVG Version: 6.00 Build 0)  -->
<svg version="1.1" id="Layer_1" xmlns="http://www.w3.org/2000/svg" xmlns:xlink="http://www.w3.org/1999/xlink" x="0px" y="0px"
	 viewBox="0 0 395 115" style="enable-background:new 0 0 395 115;" xml:space="preserve">
<style type="text/css">
	.st0{fill:#FFFFFF;}
</style>
<g>
	<g>
		<g>
			<path class="st0" d="M162.2,82.5c-0.2-0.3-0.5-0.5-0.9-0.7c-0.4-0.2-0.8-0.2-1.2-0.2c-0.5,0-0.9,0.1-1.3,0.3
				c-0.4,0.2-0.8,0.4-1,0.8c-0.3,0.3-0.5,0.7-0.7,1.2s-0.2,0.9-0.2,1.5c0,0.5,0.1,1,0.2,1.5c0.2,0.4,0.4,0.8,0.7,1.2
				c0.3,0.3,0.6,0.6,1,0.8c0.4,0.2,0.8,0.3,1.3,0.3s1-0.1,1.4-0.3s0.7-0.5,1-0.9l2.1,1.6c-0.5,0.7-1.1,1.2-1.8,1.5s-1.5,0.5-2.3,0.5
				c-0.9,0-1.7-0.1-2.5-0.4s-1.4-0.7-1.9-1.2c-0.5-0.5-1-1.1-1.3-1.9c-0.3-0.7-0.5-1.6-0.5-2.5s0.2-1.7,0.5-2.5
				c0.3-0.7,0.7-1.4,1.3-1.9c0.5-0.5,1.2-0.9,1.9-1.2s1.6-0.4,2.5-0.4c0.3,0,0.7,0,1,0.1c0.3,0.1,0.7,0.2,1,0.3s0.7,0.3,1,0.5
				c0.3,0.2,0.6,0.5,0.8,0.8L162.2,82.5z"/>
			<polygon class="st0" points="167,79.5 169.5,79.5 169.5,83.7 174.4,83.7 174.4,79.5 176.9,79.5 176.9,90.8 174.4,90.8 
				174.4,85.9 169.5,85.9 169.5,90.8 167,90.8 			"/>
			<rect x="180.5" y="79.5" class="st0" width="2.5" height="11.3"/>
			<polygon class="st0" points="186.5,79.5 189.9,79.5 194.7,87.3 194.8,87.3 194.8,79.5 197.3,79.5 197.3,90.8 194,90.8 189,82.8 
				189,82.8 189,90.8 186.5,90.8 			"/>
			<polygon class="st0" points="200.9,79.5 208.7,79.5 208.7,81.9 203.4,81.9 203.4,83.9 208.4,83.9 208.4,86.2 203.4,86.2 
				203.4,88.5 209,88.5 209,90.8 200.9,90.8 			"/>
			<path class="st0" d="M217.8,82.3c-0.2-0.3-0.5-0.4-0.8-0.6c-0.3-0.1-0.7-0.2-1-0.2c-0.2,0-0.4,0-0.6,0.1c-0.2,0-0.4,0.1-0.5,0.2
				c-0.2,0.1-0.3,0.2-0.4,0.4c-0.1,0.1-0.2,0.3-0.2,0.5c0,0.3,0.1,0.6,0.4,0.8c0.3,0.2,0.6,0.3,1,0.5c0.4,0.1,0.8,0.3,1.3,0.4
				c0.4,0.1,0.9,0.3,1.3,0.5c0.4,0.2,0.7,0.6,1,0.9c0.3,0.4,0.4,0.9,0.4,1.6c0,0.6-0.1,1.2-0.4,1.7c-0.2,0.5-0.6,0.9-1,1.2
				c-0.4,0.3-0.9,0.5-1.4,0.7s-1.1,0.2-1.7,0.2c-0.7,0-1.4-0.1-2.1-0.3c-0.6-0.2-1.2-0.6-1.8-1.1l1.8-2c0.3,0.3,0.6,0.6,1,0.8
				c0.4,0.2,0.8,0.3,1.2,0.3c0.2,0,0.4,0,0.6-0.1c0.2,0,0.4-0.1,0.6-0.2c0.2-0.1,0.3-0.2,0.4-0.4c0.1-0.2,0.2-0.3,0.2-0.5
				c0-0.3-0.1-0.6-0.4-0.8s-0.6-0.4-1-0.5c-0.4-0.1-0.8-0.3-1.3-0.4c-0.5-0.1-0.9-0.3-1.3-0.6c-0.4-0.2-0.7-0.5-1-0.9
				c-0.3-0.4-0.4-0.9-0.4-1.5s0.1-1.1,0.4-1.6c0.2-0.5,0.6-0.8,1-1.2c0.4-0.3,0.9-0.5,1.4-0.7c0.5-0.2,1.1-0.2,1.6-0.2
				c0.6,0,1.3,0.1,1.9,0.3c0.6,0.2,1.1,0.5,1.6,0.9L217.8,82.3z"/>
			<polygon class="st0" points="222.8,79.5 230.5,79.5 230.5,81.9 225.3,81.9 225.3,83.9 230.2,83.9 230.2,86.2 225.3,86.2 
				225.3,88.5 230.8,88.5 230.8,90.8 222.8,90.8 			"/>
		</g>
		<g>
			<rect y="79.5" class="st0" width="2.5" height="11.3"/>
			<polygon class="st0" points="6,79.5 9.4,79.5 14.3,87.3 14.3,87.3 14.3,79.5 16.8,79.5 16.8,90.8 13.5,90.8 8.6,82.8 8.5,82.8 
				8.5,90.8 6,90.8 			"/>
			<polygon class="st0" points="22.6,81.8 19.3,81.8 19.3,79.5 28.3,79.5 28.3,81.8 25.1,81.8 25.1,90.8 22.6,90.8 			"/>
			<polygon class="st0" points="31,79.5 38.7,79.5 38.7,81.9 33.5,81.9 33.5,83.9 38.4,83.9 38.4,86.2 33.5,86.2 33.5,88.5 39,88.5 
				39,90.8 31,90.8 			"/>
			<path class="st0" d="M42.2,79.5h4.4c0.6,0,1.1,0.1,1.6,0.2c0.5,0.1,1,0.3,1.4,0.6s0.7,0.6,0.9,1.1c0.2,0.4,0.3,1,0.3,1.7
				c0,0.8-0.2,1.5-0.6,2c-0.4,0.6-1,0.9-1.8,1.1l2.9,4.8h-3L46,86.3h-1.2v4.5h-2.5V79.5H42.2z M44.7,84.1h1.5c0.2,0,0.5,0,0.7,0
				c0.3,0,0.5-0.1,0.7-0.1c0.2-0.1,0.4-0.2,0.5-0.4c0.1-0.2,0.2-0.4,0.2-0.7c0-0.3-0.1-0.5-0.2-0.7c-0.1-0.2-0.3-0.3-0.5-0.4
				s-0.4-0.2-0.6-0.2s-0.5,0-0.7,0h-1.6C44.7,81.7,44.7,84.1,44.7,84.1z"/>
			<polygon class="st0" points="53.9,79.5 57.3,79.5 62.2,87.3 62.2,87.3 62.2,79.5 64.7,79.5 64.7,90.8 61.4,90.8 56.4,82.8 
				56.4,82.8 56.4,90.8 53.9,90.8 			"/>
			<path class="st0" d="M72,79.5h2.1L79,90.8h-2.8l-1-2.4h-4.4l-0.9,2.4h-2.8L72,79.5z M73,82.8l-1.4,3.5h2.8L73,82.8z"/>
			<polygon class="st0" points="82.1,81.8 78.9,81.8 78.9,79.5 87.9,79.5 87.9,81.8 84.6,81.8 84.6,90.8 82.1,90.8 			"/>
			<rect x="90.4" y="79.5" class="st0" width="2.5" height="11.3"/>
			<path class="st0" d="M95.8,85.1c0-0.9,0.2-1.7,0.5-2.5c0.3-0.7,0.7-1.4,1.3-1.9c0.5-0.5,1.2-0.9,1.9-1.2c0.8-0.3,1.6-0.4,2.5-0.4
				s1.7,0.1,2.5,0.4c0.7,0.3,1.4,0.7,1.9,1.2c0.5,0.5,1,1.1,1.3,1.9c0.3,0.7,0.5,1.6,0.5,2.5s-0.2,1.7-0.5,2.5
				c-0.3,0.7-0.7,1.4-1.3,1.9c-0.5,0.5-1.2,0.9-1.9,1.2c-0.8,0.3-1.6,0.4-2.5,0.4s-1.7-0.1-2.5-0.4s-1.4-0.7-1.9-1.2s-1-1.2-1.3-1.9
				C96,86.9,95.8,86,95.8,85.1 M98.4,85.1c0,0.5,0.1,1,0.2,1.5c0.2,0.4,0.4,0.8,0.7,1.2c0.3,0.3,0.7,0.6,1.1,0.8
				c0.4,0.2,0.9,0.3,1.5,0.3s1-0.1,1.5-0.3c0.4-0.2,0.8-0.4,1.1-0.8c0.3-0.3,0.5-0.7,0.7-1.2c0.2-0.4,0.3-0.9,0.3-1.5
				c0-0.5-0.1-1-0.3-1.5c-0.2-0.4-0.4-0.8-0.7-1.2c-0.3-0.3-0.7-0.6-1.1-0.8c-0.4-0.2-0.9-0.3-1.5-0.3s-1,0.1-1.5,0.3
				c-0.4,0.2-0.8,0.4-1.1,0.8c-0.3,0.3-0.5,0.7-0.7,1.2C98.5,84.1,98.4,84.6,98.4,85.1"/>
			<polygon class="st0" points="111,79.5 114.5,79.5 119.3,87.3 119.3,87.3 119.3,79.5 121.8,79.5 121.8,90.8 118.5,90.8 
				113.6,82.8 113.6,82.8 113.6,90.8 111,90.8 			"/>
			<path class="st0" d="M129.1,79.5h2.1l4.9,11.3h-2.8l-1-2.4h-4.4l-0.9,2.4h-2.8L129.1,79.5z M130.1,82.8l-1.4,3.5h2.8L130.1,82.8z
				"/>
			<polygon class="st0" points="138.7,79.5 141.2,79.5 141.2,88.5 145.8,88.5 145.8,90.8 138.7,90.8 			"/>
		</g>
		<path class="st0" d="M246,82.3c-0.2-0.3-0.5-0.4-0.8-0.6c-0.3-0.1-0.7-0.2-1-0.2c-0.2,0-0.4,0-0.6,0.1c-0.2,0-0.4,0.1-0.6,0.2
			c-0.2,0.1-0.3,0.2-0.4,0.4c-0.1,0.1-0.2,0.3-0.2,0.5c0,0.3,0.1,0.6,0.4,0.8c0.3,0.2,0.6,0.3,1,0.5c0.4,0.1,0.8,0.3,1.3,0.4
			c0.4,0.1,0.9,0.3,1.3,0.5c0.4,0.2,0.7,0.6,1,0.9c0.3,0.4,0.4,0.9,0.4,1.6c0,0.6-0.1,1.2-0.4,1.7c-0.2,0.5-0.6,0.9-1,1.2
			c-0.4,0.3-0.9,0.5-1.4,0.7s-1.1,0.2-1.7,0.2c-0.7,0-1.4-0.1-2.1-0.3c-0.6-0.2-1.2-0.6-1.8-1.1l1.8-2c0.3,0.3,0.6,0.6,1,0.8
			c0.4,0.2,0.8,0.3,1.2,0.3c0.2,0,0.4,0,0.6-0.1c0.2,0,0.4-0.1,0.6-0.2c0.2-0.1,0.3-0.2,0.4-0.4c0.1-0.2,0.2-0.3,0.2-0.5
			c0-0.3-0.1-0.6-0.4-0.8s-0.6-0.4-1-0.5c-0.4-0.1-0.8-0.3-1.3-0.4c-0.5-0.1-0.9-0.3-1.3-0.6c-0.4-0.2-0.7-0.5-1-0.9
			c-0.3-0.4-0.4-0.9-0.4-1.5s0.1-1.1,0.4-1.6c0.2-0.5,0.6-0.8,1-1.2c0.4-0.3,0.9-0.5,1.4-0.7c0.5-0.2,1.1-0.2,1.6-0.2
			c0.6,0,1.3,0.1,1.9,0.3c0.6,0.2,1.1,0.5,1.6,0.9L246,82.3z"/>
		<path class="st0" d="M258.2,82.5c-0.2-0.3-0.5-0.5-0.9-0.7c-0.4-0.2-0.8-0.2-1.2-0.2c-0.5,0-0.9,0.1-1.3,0.3
			c-0.4,0.2-0.7,0.4-1,0.8c-0.3,0.3-0.5,0.7-0.7,1.2s-0.3,0.9-0.3,1.5c0,0.5,0.1,1,0.3,1.5c0.2,0.4,0.4,0.8,0.7,1.2
			c0.3,0.3,0.6,0.6,1,0.8c0.4,0.2,0.8,0.3,1.3,0.3s1-0.1,1.4-0.3s0.7-0.5,1-0.9l2.1,1.6c-0.5,0.7-1.1,1.2-1.8,1.5
			c-0.7,0.3-1.5,0.5-2.3,0.5c-0.9,0-1.7-0.1-2.5-0.4s-1.4-0.7-1.9-1.2c-0.5-0.5-1-1.1-1.3-1.9c-0.3-0.7-0.5-1.6-0.5-2.5
			s0.2-1.7,0.5-2.5c0.3-0.7,0.7-1.4,1.3-1.9c0.5-0.5,1.2-0.9,1.9-1.2c0.7-0.3,1.6-0.4,2.5-0.4c0.3,0,0.7,0,1,0.1
			c0.3,0.1,0.7,0.2,1,0.3s0.7,0.3,1,0.5c0.3,0.2,0.6,0.5,0.8,0.8L258.2,82.5z"/>
		<polygon class="st0" points="263.1,79.5 265.6,79.5 265.6,83.7 270.4,83.7 270.4,79.5 272.9,79.5 272.9,90.8 270.4,90.8 
			270.4,85.9 265.6,85.9 265.6,90.8 263.1,90.8 		"/>
		<path class="st0" d="M275.9,85.1c0-0.9,0.2-1.7,0.5-2.5c0.3-0.7,0.7-1.4,1.3-1.9c0.5-0.5,1.2-0.9,1.9-1.2c0.7-0.3,1.6-0.4,2.5-0.4
			s1.7,0.1,2.5,0.4c0.7,0.3,1.4,0.7,1.9,1.2c0.5,0.5,1,1.1,1.3,1.9c0.3,0.7,0.5,1.6,0.5,2.5s-0.2,1.7-0.5,2.5
			c-0.3,0.7-0.7,1.4-1.3,1.9c-0.5,0.5-1.2,0.9-1.9,1.2c-0.7,0.3-1.6,0.4-2.5,0.4s-1.7-0.1-2.5-0.4s-1.4-0.7-1.9-1.2s-1-1.2-1.3-1.9
			C276.1,86.9,275.9,86,275.9,85.1 M278.5,85.1c0,0.5,0.1,1,0.3,1.5c0.2,0.4,0.4,0.8,0.7,1.2c0.3,0.3,0.7,0.6,1.1,0.8
			c0.4,0.2,0.9,0.3,1.5,0.3c0.5,0,1-0.1,1.5-0.3c0.4-0.2,0.8-0.4,1.1-0.8c0.3-0.3,0.5-0.7,0.7-1.2c0.2-0.4,0.3-0.9,0.3-1.5
			c0-0.5-0.1-1-0.3-1.5c-0.2-0.4-0.4-0.8-0.7-1.2c-0.3-0.3-0.7-0.6-1.1-0.8c-0.4-0.2-0.9-0.3-1.5-0.3c-0.5,0-1,0.1-1.5,0.3
			c-0.4,0.2-0.8,0.4-1.1,0.8c-0.3,0.3-0.5,0.7-0.7,1.2C278.6,84.1,278.5,84.6,278.5,85.1"/>
		<path class="st0" d="M290.5,85.1c0-0.9,0.2-1.7,0.5-2.5c0.3-0.7,0.7-1.4,1.3-1.9c0.5-0.5,1.2-0.9,1.9-1.2c0.7-0.3,1.6-0.4,2.5-0.4
			s1.7,0.1,2.5,0.4c0.7,0.3,1.4,0.7,1.9,1.2c0.5,0.5,1,1.1,1.3,1.9c0.3,0.7,0.5,1.6,0.5,2.5s-0.1,1.7-0.5,2.5
			c-0.3,0.7-0.7,1.4-1.3,1.9c-0.5,0.5-1.2,0.9-1.9,1.2c-0.7,0.3-1.6,0.4-2.5,0.4s-1.7-0.1-2.5-0.4s-1.4-0.7-1.9-1.2s-1-1.2-1.3-1.9
			C290.7,86.9,290.5,86,290.5,85.1 M293.1,85.1c0,0.5,0.1,1,0.2,1.5c0.2,0.4,0.4,0.8,0.7,1.2c0.3,0.3,0.7,0.6,1.1,0.8
			c0.4,0.2,0.9,0.3,1.5,0.3c0.5,0,1-0.1,1.5-0.3c0.4-0.2,0.8-0.4,1.1-0.8c0.3-0.3,0.5-0.7,0.7-1.2c0.2-0.4,0.3-0.9,0.3-1.5
			c0-0.5-0.1-1-0.3-1.5c-0.2-0.4-0.4-0.8-0.7-1.2c-0.3-0.3-0.7-0.6-1.1-0.8c-0.4-0.2-0.9-0.3-1.5-0.3c-0.5,0-1,0.1-1.5,0.3
			c-0.4,0.2-0.8,0.4-1.1,0.8c-0.3,0.3-0.5,0.7-0.7,1.2C293.2,84.1,293.1,84.6,293.1,85.1"/>
		<polygon class="st0" points="305.9,79.5 308.4,79.5 308.4,88.5 313,88.5 313,90.8 305.9,90.8 		"/>
	</g>
	<g>
		<g>
			<rect x="90.9" y="56.1" class="st0" width="1.3" height="12.4"/>
			<path class="st0" d="M102.1,65.9c0.3,0.4,0.6,0.7,1.1,0.9c0.4,0.2,0.9,0.3,1.3,0.3c0.3,0,0.5,0,0.8-0.1c0.3-0.1,0.5-0.2,0.7-0.4
				c0.2-0.2,0.4-0.4,0.5-0.6c0.1-0.2,0.2-0.5,0.2-0.8c0-0.4-0.1-0.8-0.4-1c-0.3-0.2-0.6-0.4-1-0.6c-0.4-0.2-0.9-0.3-1.4-0.5
				c-0.5-0.1-0.9-0.3-1.4-0.6c-0.4-0.3-0.8-0.6-1-1c-0.3-0.4-0.4-1-0.4-1.8c0-0.3,0.1-0.7,0.2-1.1c0.1-0.4,0.4-0.7,0.7-1
				s0.7-0.6,1.2-0.8c0.5-0.2,1.1-0.3,1.8-0.3c0.6,0,1.2,0.1,1.8,0.3c0.6,0.2,1.1,0.5,1.5,1l-1.3,1.1c-0.2-0.3-0.5-0.5-0.8-0.7
				c-0.4-0.2-0.8-0.3-1.2-0.3s-0.8,0.1-1.1,0.2s-0.5,0.3-0.7,0.4c-0.2,0.2-0.3,0.4-0.4,0.6c-0.1,0.2-0.1,0.4-0.1,0.6
				c0,0.5,0.1,0.9,0.4,1.1c0.3,0.3,0.6,0.5,1,0.6c0.4,0.2,0.9,0.3,1.4,0.4c0.5,0.1,0.9,0.3,1.4,0.5c0.4,0.2,0.8,0.5,1,0.9
				c0.3,0.4,0.4,0.9,0.4,1.6c0,0.5-0.1,1-0.3,1.5c-0.2,0.4-0.5,0.8-0.8,1.1c-0.4,0.3-0.8,0.5-1.3,0.7c-0.5,0.2-1,0.2-1.5,0.2
				c-0.7,0-1.4-0.1-2.1-0.4c-0.7-0.3-1.2-0.7-1.6-1.2L102.1,65.9z"/>
			<polygon class="st0" points="111.9,56.9 113.5,56.9 113.5,61.6 119.4,61.6 119.4,56.9 120.9,56.9 120.9,68.2 119.4,68.2 
				119.4,63.1 113.5,63.1 113.5,68.2 111.9,68.2 			"/>
			<path class="st0" d="M128.7,56.9h1.4l4.9,11.3h-1.8l-1.1-2.8h-5.4l-1.1,2.8h-1.8L128.7,56.9z M131.5,64.1l-2.1-5.2l0,0l-2.2,5.2
				H131.5z"/>
			<polygon class="st0" points="137.7,56.9 139.7,56.9 146,66.2 146,66.2 146,56.9 147.6,56.9 147.6,68.2 145.6,68.2 139.3,58.9 
				139.2,58.9 139.2,68.2 137.7,68.2 			"/>
			<path class="st0" d="M161.5,61.9v5.6c-0.3,0.2-0.6,0.3-0.9,0.4c-0.4,0.1-0.7,0.2-1.1,0.3c-0.4,0.1-0.8,0.2-1.2,0.2
				s-0.8,0.1-1.1,0.1c-1,0-1.8-0.2-2.6-0.5s-1.4-0.8-1.9-1.3c-0.5-0.5-0.9-1.2-1.2-1.9c-0.3-0.7-0.4-1.5-0.4-2.3s0.1-1.6,0.4-2.4
				c0.3-0.7,0.7-1.4,1.2-1.9c0.5-0.5,1.1-1,1.9-1.3c0.7-0.3,1.5-0.5,2.4-0.5c1.1,0,1.9,0.1,2.6,0.4c0.7,0.3,1.2,0.6,1.7,1.1
				l-1.1,1.2c-0.5-0.4-1-0.8-1.5-0.9c-0.5-0.2-1.1-0.3-1.7-0.3c-0.7,0-1.2,0.1-1.8,0.4c-0.5,0.2-1,0.6-1.4,1
				c-0.4,0.4-0.7,0.9-0.9,1.4c-0.2,0.6-0.3,1.1-0.3,1.8c0,0.6,0.1,1.2,0.3,1.8s0.5,1,0.9,1.4c0.4,0.4,0.9,0.7,1.4,1
				c0.5,0.2,1.1,0.3,1.8,0.3c0.5,0,1.1-0.1,1.6-0.2s0.9-0.2,1.2-0.4v-3.2h-2.5v-1.4L161.5,61.9L161.5,61.9L161.5,61.9z"/>
			<polygon class="st0" points="165.5,56.9 167.1,56.9 167.1,61.6 173,61.6 173,56.9 174.5,56.9 174.5,68.2 173,68.2 173,63.1 
				167.1,63.1 167.1,68.2 165.5,68.2 			"/>
			<path class="st0" d="M182.3,56.9h1.4l4.9,11.3h-1.8l-1.1-2.8h-5.4l-1.1,2.8h-1.8L182.3,56.9z M185.1,64.1l-2.1-5.2l0,0l-2.2,5.2
				H185.1z"/>
			<rect x="191.3" y="56.9" class="st0" width="1.5" height="11.3"/>
			<rect x="202.4" y="56.1" class="st0" width="1.3" height="12.4"/>
		</g>
		<g>
			<path class="st0" d="M0,56.7h3.8c0.9,0,1.8,0.1,2.6,0.3c0.8,0.2,1.5,0.5,2.2,1c0.6,0.5,1.1,1.1,1.5,1.8s0.5,1.6,0.5,2.7
				c0,0.9-0.2,1.7-0.5,2.4c-0.3,0.7-0.8,1.3-1.4,1.8c-0.6,0.5-1.3,0.8-2,1.1c-0.8,0.2-1.6,0.4-2.4,0.4H0V56.7z M2.5,65.7h1.3
				c0.6,0,1.1-0.1,1.6-0.2c0.5-0.1,0.9-0.3,1.3-0.6c0.4-0.3,0.7-0.6,0.9-1.1c0.2-0.4,0.3-1,0.3-1.6s-0.1-1-0.3-1.5
				c-0.2-0.4-0.5-0.8-0.8-1c-0.4-0.3-0.8-0.5-1.2-0.6c-0.5-0.1-1-0.2-1.5-0.2H2.6L2.5,65.7L2.5,65.7z"/>
			<path class="st0" d="M13.7,56.7h7.7V59h-5.2v2.1h4.9v2.3h-4.9v2.3h5.5v2.3h-8V56.7z"/>
			<path class="st0" d="M25.1,56.7h2.5V61h4.9v-4.3H35V68h-2.5v-4.9h-4.9V68h-2.5V56.7z"/>
			<path class="st0" d="M38.1,62.4c0-0.9,0.2-1.7,0.5-2.5c0.3-0.7,0.7-1.4,1.3-1.9c0.5-0.5,1.2-0.9,1.9-1.2c0.8-0.3,1.6-0.4,2.5-0.4
				s1.7,0.1,2.5,0.4c0.8,0.3,1.4,0.7,1.9,1.2c0.5,0.5,1,1.2,1.3,1.9s0.5,1.6,0.5,2.5c0,0.9-0.2,1.7-0.5,2.5
				c-0.3,0.7-0.7,1.4-1.3,1.9c-0.5,0.5-1.2,0.9-1.9,1.2c-0.8,0.3-1.6,0.4-2.5,0.4s-1.7-0.1-2.5-0.4s-1.4-0.7-1.9-1.2s-1-1.1-1.3-1.9
				C38.2,64.1,38.1,63.3,38.1,62.4z M40.7,62.4c0,0.5,0.1,1,0.2,1.5c0.2,0.4,0.4,0.8,0.7,1.2c0.3,0.3,0.7,0.6,1.1,0.8
				c0.4,0.2,0.9,0.3,1.5,0.3c0.5,0,1-0.1,1.5-0.3c0.4-0.2,0.8-0.4,1.1-0.8c0.3-0.3,0.5-0.7,0.7-1.2c0.2-0.4,0.2-0.9,0.2-1.5
				c0-0.5-0.1-1-0.2-1.5c-0.2-0.5-0.4-0.8-0.7-1.2c-0.3-0.3-0.7-0.6-1.1-0.8c-0.4-0.2-0.9-0.3-1.5-0.3c-0.5,0-1,0.1-1.5,0.3
				c-0.4,0.2-0.8,0.4-1.1,0.8c-0.3,0.3-0.5,0.7-0.7,1.2C40.8,61.3,40.7,61.8,40.7,62.4z"/>
			<path class="st0" d="M53.7,56.7h3.4l4.8,7.9l0,0v-7.9h2.5V68h-3.3l-5-8.1l0,0V68h-2.5L53.7,56.7L53.7,56.7z"/>
			<path class="st0" d="M78.5,67.1c-0.7,0.4-1.5,0.7-2.3,0.8c-0.8,0.2-1.6,0.3-2.5,0.3s-1.7-0.1-2.5-0.4s-1.4-0.7-1.9-1.2
				c-0.5-0.5-1-1.1-1.3-1.9c-0.3-0.7-0.5-1.6-0.5-2.5c0-0.9,0.2-1.7,0.5-2.5c0.3-0.7,0.7-1.4,1.3-1.9c0.5-0.5,1.2-0.9,1.9-1.2
				c0.8-0.3,1.6-0.4,2.5-0.4s1.8,0.1,2.5,0.3c0.8,0.2,1.4,0.6,2,1.1l-1.8,1.9c-0.3-0.4-0.7-0.6-1.2-0.8c-0.4-0.2-1-0.3-1.6-0.3
				c-0.5,0-1,0.1-1.5,0.3c-0.4,0.2-0.8,0.4-1.1,0.8c-0.3,0.3-0.5,0.7-0.7,1.2c-0.2,0.4-0.2,0.9-0.2,1.5c0,0.5,0.1,1,0.2,1.5
				c0.2,0.4,0.4,0.8,0.7,1.2c0.3,0.3,0.7,0.6,1.1,0.8C72.5,66,73,66,73.6,66c0.5,0,1-0.1,1.4-0.2s0.7-0.3,0.9-0.4v-1.8h-2v-2.3h4.5
				L78.5,67.1L78.5,67.1z"/>
		</g>
	</g>
	<g>
		<path class="st0" d="M16.8,30.8c1,0,1.9,0,2.7-0.1v2.8c-0.8-0.1-1.7-0.1-2.7-0.1h-5.5v8.5H18c1.2,0,2.3,0,3.2-0.1v2.8
			c-1-0.1-1.9-0.2-3.1-0.2H3.2c-1.1,0-2.2,0-3.2,0.2v-2.8c0.9,0.1,1.9,0.1,3.2,0.1h5.3V26.8c0-1,0-1.7-0.2-2.7h3.1
			c-0.1,0.9-0.2,1.6-0.2,2.7v4H16.8z"/>
		<path class="st0" d="M26.2,29.9c1.6,1,2.6,1.7,3.8,2.9l-1.7,1.9c-1.3-1.4-2-2-3.7-3.1L26.2,29.9z M30.1,38c-0.7,2.2-1.1,3.3-2,5.4
			l-0.9,1.9L25,43.5c0.1-0.1,0.3-0.3,0.4-0.6c0.9-1.5,1.8-3.7,2.6-6.4L30.1,38z M27.3,24c1.4,1,2.4,1.8,3.6,3l-1.8,1.9
			c-1.3-1.5-2.2-2.3-3.5-3.2L27.3,24z M34.4,28.1c-0.2,0.4-0.5,0.9-0.8,1.3c0.2,0,1.2,0,1.4,0h7.4c1.4,0,1.8,0,2.4-0.1
			c-0.1,0.7-0.1,1.7-0.2,5.2c1.1,0,1.2,0,1.8-0.1v2.5c-0.6-0.1-1.3-0.1-1.9-0.1c-0.1,1.6-0.1,1.6-0.2,3c0.5,0,1,0,1.5-0.1V42
			c-0.7-0.1-1-0.1-1.7-0.1c-0.2,1.5-0.4,2.2-0.9,2.7c-0.4,0.4-1,0.6-2.3,0.6c-0.6,0-1.2,0-2.2-0.1c-0.1-0.9-0.2-1.5-0.5-2.4
			c0.9,0.1,1.8,0.2,2.4,0.2c0.7,0,0.9-0.2,1-1h-8.1c-1.1,0-1.4,0-2.8,0.2c0.6-1.9,0.8-2.6,1.3-5.3h-0.3c-0.7,0-1.1,0-1.7,0.1v-2.5
			c0.5,0.1,1,0.1,1.9,0.1h0.4c0.2-1.3,0.3-2.7,0.4-4c-0.6,0.7-0.8,1-1.6,1.7c-0.5-0.7-1-1.3-1.8-1.9c1.5-1.3,2.2-2.2,3-3.6
			c0.7-1.2,1.2-2.4,1.3-3.3l2.7,0.5c-0.5,1.3-0.5,1.3-0.8,1.8h7.3c1.8,0,2.5,0,3.4-0.1v2.5c-0.6-0.1-1.4-0.1-3.1-0.1
			C43.1,28.1,34.4,28.1,34.4,28.1z M38.3,39.7c-0.1-0.1-0.1-0.1-0.3-0.3c-0.7-0.7-1.2-1.2-2.2-1.8l1.5-0.9h-3
			c-0.1,1.1-0.2,1.6-0.5,3H38.3z M35,31.6c-0.2,1.5-0.2,1.5-0.4,3h3.9c-0.7-0.8-1.4-1.5-2.2-2.1l1.5-0.9H35z M41.9,39.7
			c0.2-2.1,0.2-2.1,0.2-3h-4c0.8,0.6,1.5,1.1,2.4,2l-1.5,1H41.9z M38.5,31.6c0.9,0.7,1.5,1.2,2.2,2l-1.5,1h2.9c0-0.8,0-1.3,0.1-3
			C42.2,31.6,38.5,31.6,38.5,31.6z"/>
		<path class="st0" d="M53.6,28.8c0,0.7-0.1,1.8-0.1,2.6l0,0v11c0,1.4,0,2.1,0.1,2.9h-2.8c0.1-0.8,0.1-1.5,0.1-2.9v-11
			c0-1.3,0-1.9-0.1-2.6H53.6z M55.2,29.5c-0.8-1.5-2.3-3.4-3.5-4.6l1.9-1.1c1.2,1.1,2,2.1,3.6,4.3L55.2,29.5z M59.8,31.2
			c-0.3-0.9-0.6-1.6-1-2.2l2.5-0.7c0.5,1.1,0.7,1.6,1.1,2.9h2.8c1.1,0,1.6,0,2.2-0.1v2.5c-0.7-0.1-1.1-0.1-1.9-0.1h-0.3
			c-0.6,2.1-1.1,3.2-2,4.5c1.8,1.4,2.1,1.6,3.7,2.9l-1.8,2.1c-1.3-1.3-1.6-1.6-3.5-3.1c-1.5,1.3-4,2.9-6.1,3.9
			c-0.5-1.1-0.8-1.6-1.3-2.4c2.4-0.8,4-1.7,5.5-3c-1.4-1-2.2-1.5-4-2.5l1.5-1.7c1.9,1.1,2.5,1.4,4.1,2.5c0.6-0.8,0.9-1.5,1.3-3h-5.8
			c-1.3,0-1.5,0-2.2,0.1v-2.5c0.7,0.1,1.2,0.1,2.2,0.1h3L59.8,31.2L59.8,31.2z M70.9,42.4c0,2-0.6,2.6-2.9,2.6c0,0-0.4,0-2,0
			c-0.1-0.6-0.3-1.5-0.6-2.4c0.4,0,0.7,0.1,0.8,0.1c0.5,0.1,0.7,0.1,1,0.1c0.8,0,1.3-0.2,1.3-0.7v-15h-8.3c-0.6,0-1.4,0-2.3,0.1
			v-2.5c0.6,0.1,1.4,0.1,2.4,0.1h8.5c1.2,0,1.8,0,2.4-0.1c-0.1,0.7-0.1,1.4-0.1,2.6v15.1H70.9z"/>
		<path class="st0" d="M78.7,38.2c0-1,0-1,0-2.7c-0.6,0.7-1.3,1.4-2.1,2c-0.4-1.1-0.7-1.7-1.2-2.5c2.5-1.6,4.9-4.2,5.8-6.2l2.2,1.5
			c-0.2,0.3-0.4,0.5-0.8,1c-0.5,0.8-0.7,1.1-1.4,1.8v9.1c0,1.2,0,2.2,0.2,2.9h-2.9c0.1-0.7,0.2-1.8,0.2-3
			C78.7,42.2,78.7,38.2,78.7,38.2z M83.1,25.2c-0.3,0.3-0.3,0.3-0.7,0.8c-1.5,1.8-3.2,3.3-5.4,4.7c-0.5-0.9-0.9-1.5-1.5-2.2
			c1.8-1,3-1.9,4.2-3.2c0.5-0.6,0.8-1.1,1.1-1.6L83.1,25.2z M93.3,42.5c0,1.2-0.2,1.7-0.8,2.1C92,44.9,91.3,45,89.8,45
			c-0.8,0-1.4,0-2.6-0.1c-0.1-1-0.3-1.6-0.7-2.6c1.3,0.2,2.4,0.3,3.2,0.3c0.9,0,1,0,1-0.6v-8.7h-4.5c-1.1,0-2.2,0-2.9,0.1v-2.6
			c0.7,0.1,1.8,0.1,2.9,0.1h8c1.3,0,2.2,0,2.9-0.1v2.6c-0.8-0.1-1.8-0.1-2.8-0.1h-1L93.3,42.5L93.3,42.5z M84.3,24.8
			c0.7,0.1,1.5,0.1,2.7,0.1h6.3c1.2,0,2,0,2.7-0.1v2.6c-0.8-0.1-1.7-0.1-2.6-0.1H87c-1,0-2,0-2.7,0.1V24.8z"/>
		<path class="st0" d="M121.9,44.3c-0.7-0.1-1.4-0.1-2.6-0.1h-15.2c-1.1,0-1.6,0-2.4,0.1c0.1-0.7,0.1-1.2,0.1-2.3V27.3
			c0-1,0-1.7-0.1-2.5c0.8,0.1,1.4,0.1,2.5,0.1h14.5c1.3,0,2,0,2.8-0.2v2.7c-0.8-0.1-1.5-0.1-2.7-0.1h-14.4v14.4h14.9
			c1.4,0,2,0,2.6-0.1L121.9,44.3L121.9,44.3z M118.3,40.7c-2.1-2.1-3.4-3.4-4.9-4.6c-1.9,2-3.7,3.3-6.6,5.1c-0.6-0.7-1.1-1.3-1.9-2
			c2.8-1.4,4.6-2.7,6.6-4.7c-1.5-1.2-3.1-2.3-5.4-3.7l1.8-1.8c2.7,1.8,3.7,2.5,5.3,3.7c1.4-1.8,2.6-3.8,3-5.1l2.6,1.2
			c-0.3,0.5-0.4,0.6-0.7,1.2c-0.9,1.6-1.7,2.9-2.8,4.2c1.8,1.5,3.2,2.6,5.1,4.5L118.3,40.7z"/>
		<path class="st0" d="M131.2,36.7v5.1c2.6-0.6,4.4-1.1,6.2-1.7l0.1,2.6c-1.2,0.4-1.2,0.4-5.4,1.5c-2.1,0.6-3.2,0.9-3.4,1l-0.9-2.6
			c0.7-0.4,0.8-0.6,0.8-1.5c0-0.1,0-0.1,0-0.4V27.8c0-1.2,0-2-0.1-2.8c0.8,0.1,1.5,0.1,2.8,0.1h11.2c1.2,0,1.8,0,2.6-0.1
			c-0.1,0.6-0.1,1.1-0.1,2.2v2.7c0,1,0,1.6,0.1,2.2c-0.7,0-1.5-0.1-2.6-0.1h-3.8c0,0.7,0.1,1.2,0.3,2.4h4.8c1.1,0,1.9,0,2.8-0.1v2.7
			c-0.9-0.1-1.6-0.2-2.8-0.2h-4.2c0.5,1.5,1.4,2.9,2.5,4.1c0.7,0.7,1.7,1.4,2.1,1.4c0.4,0,0.6-0.8,0.9-3.2c0.8,0.7,1.3,0.9,2.2,1.4
			c-0.5,3.3-1.3,4.7-2.8,4.7s-3.5-1.3-5.1-3.4c-1.1-1.4-2-3.2-2.5-5.1L131.2,36.7L131.2,36.7z M131.2,29.8h11.4v-2.4h-11.4V29.8z
			 M136.5,34.3c-0.1-0.5-0.2-1.3-0.3-2.4h-5.1v2.4H136.5z"/>
		<path class="st0" d="M170.2,40.1c-0.7-3.6-1.1-5.1-2.2-7.9c-0.1,4.9-0.4,8-0.8,9.7c-0.5,2-1.4,2.6-4,2.6c-1,0-2-0.1-3.5-0.3
			c-0.1-1.2-0.3-1.8-0.7-2.8c1.6,0.3,2.9,0.5,4,0.5c1.2,0,1.5-0.4,1.8-2c0.3-2,0.5-5.4,0.5-9.6h-4c-0.6,4.5-1.1,6.5-2.2,8.5
			c-0.7,1.4-1.8,2.7-3,3.8c-0.7,0.6-1.6,1.2-3.1,2.2c-0.6-1.1-1-1.6-1.9-2.4c2.1-1.1,3-1.7,4.1-2.8s1.8-2.4,2.4-4
			c0.5-1.5,0.7-2.7,1.1-5.4h-3.5c-1.2,0-2,0-2.9,0.1v-2.8c0.9,0.1,1.6,0.2,3,0.2h3.6c0-0.6,0-1,0-1.8c0-1.1,0-1.7-0.1-2.3h3.1
			c0,0.1,0,0.1,0,0.2c-0.1,0.4-0.1,0.4-0.2,3.8h3.6c1.5,0,2.2,0,3-0.1c-0.1,2-0.1,2.8-0.1,4.1V32l2.5-0.7c1.3,3.2,1.6,4.4,2.3,7.7
			L170.2,40.1z M156.7,32.3c-0.7,3-1.5,5-2.9,7c-0.7-0.5-1.2-0.8-2.4-1.5c1.4-1.9,2.2-3.9,2.7-6.4L156.7,32.3z"/>
		<path class="st0" d="M178.6,38.1c0-1,0-1,0-2.6c-0.6,0.8-0.9,1.1-1.7,1.8c-0.3-1.2-0.6-1.8-1.1-2.5c1.5-1.1,2.8-2.4,3.8-4
			c0.6-0.8,1-1.5,1.2-2.1l2,1.5c-0.2,0.3-0.4,0.6-0.7,1.1c-0.3,0.4-0.7,1.1-1.1,1.7v9.4c0,1.5,0,2.1,0.1,2.8h-2.7
			c0.1-0.6,0.1-1.4,0.1-2.6L178.6,38.1L178.6,38.1z M183,24.9c-0.1,0.1-0.2,0.2-0.3,0.3c0,0.1-0.1,0.1-0.1,0.1
			c0.7,0.1,1.4,0.1,2.4,0.1h3.6c0-0.2,0.1-0.7,0.2-1.6l2.6,0.1c-0.1,0.5-0.2,1.2-0.3,1.5h3.9c1.1,0,1.8,0,2.5-0.1v2.3
			c-0.8-0.1-1.2-0.1-2.2-0.1h-4.5c0,0.2,0,0.2-0.1,0.6c0,0.2-0.1,0.4-0.2,0.8h4.3c0.8,0,1.5,0,2.1-0.1c-0.1,0.5-0.1,0.9-0.1,1.8v2.4
			c0,0.8,0,1.3,0.1,1.8c-0.7-0.1-1.1-0.1-2-0.1h-10.1c-0.7,0-1.1,0-2,0.1c0-0.5,0.1-0.8,0.1-1.5v-2.9c0-0.7,0-1.1-0.1-1.6
			c0.8,0,1.2,0.1,1.9,0.1h3.3c0.1-0.4,0.2-0.8,0.3-1.4h-3.5c-1,0-1.5,0-2.2,0.1v-2.2c-0.1,0.1-0.2,0.2-0.3,0.3
			c-1.2,1.4-1.5,1.8-2.7,2.8c-0.9,0.7-1.4,1.1-2.2,1.7c-0.4-1-0.7-1.4-1.3-2.2c1.5-0.8,2.2-1.4,3.3-2.5c0.8-0.8,1.2-1.3,1.5-1.9
			L183,24.9z M181.3,43c1.1-1.5,1.7-2.7,2.1-4.2l2.1,1c-0.7,2.1-1.3,3.3-2.3,4.7L181.3,43z M190.1,38c0.8,0.6,1.5,1.2,2.3,2.1
			l-1.7,1.4c-1.1-1.4-1.8-2.1-2.9-2.9l0.9-0.6h-4.3c-1,0-1.5,0-2.2,0.1v-2.3c0.7,0.1,1.4,0.1,2.5,0.1h10.8c1.1,0,1.8,0,2.5-0.1v2.4
			c-0.8-0.1-1.2-0.1-2.2-0.1L190.1,38L190.1,38L190.1,38z M185.2,32.6h1.9v-1.9h-1.9V32.6z M188.1,42.1c0,0.5,0.3,0.6,1.5,0.6
			c1.5,0,1.9,0,2.3-0.2c0.3-0.2,0.5-0.7,0.5-2c0.9,0.4,1.1,0.5,2.2,0.7c-0.1,1.6-0.5,2.6-1.1,3.1c-0.6,0.5-1.6,0.7-3.7,0.7
			c-1.6,0-2.4-0.1-3-0.3c-0.8-0.3-1.1-0.8-1.1-1.8V41c0-0.8,0-1.2-0.1-1.8h2.6c-0.1,0.7-0.1,1-0.1,1.7L188.1,42.1L188.1,42.1z
			 M189,32.6h1.9v-1.9H189V32.6z M192.9,32.6h1.9v-1.9h-1.9V32.6z M196.1,44.6c-0.7-2.4-1-3.1-2.1-4.8l2-1c1.2,1.8,1.6,2.5,2.2,4.4
			L196.1,44.6z"/>
		<path class="st0" d="M204.9,28.8c0,0.8-0.1,1.8-0.1,2.6v11v0.1c0,1.2,0,2,0.1,2.8h-2.7c0.1-0.8,0.1-1.5,0.1-2.9v-11
			c0-1.3,0-1.9-0.1-2.6H204.9z M206.6,29.5c-0.6-1-0.8-1.4-1.6-2.5c-0.9-1.1-1.2-1.5-1.9-2.2l1.9-1.2c0.4,0.4,0.4,0.4,1.2,1.3
			c0.6,0.7,1.7,2,2.4,3.2L206.6,29.5z M212.6,28.3c-0.1,0.5-0.1,0.6-0.3,1.3c0,0.3-0.1,0.5-0.2,1.1h4.8c1.2,0,1.7,0,2.3-0.1v2.4
			c-0.6-0.1-1.1-0.1-2.1-0.1h-5.3c-0.4,2.2-0.9,3.7-1.8,5.7c-0.9,2-1.7,3.3-3,4.8c-0.8-0.9-1-1.1-1.9-1.8c1.2-1.2,2-2.2,2.6-3.4
			c0.8-1.5,1.4-3.2,1.8-5.3h-1.6c-1.1,0-1.5,0-2.1,0.1v-2.4c0.6,0.1,1.1,0.1,2.3,0.1h1.9c0.1-0.7,0.2-1.6,0.3-2.6L212.6,28.3z
			 M222.3,42.4c0,2.2-0.6,2.6-3.7,2.6c-0.4,0-0.7,0-1.4,0c-0.1-1-0.3-1.6-0.7-2.4c0.6,0,1.9,0.1,2.4,0.1c0.6,0,0.8-0.2,0.8-0.6v-15
			h-8.4c-0.6,0-1.4,0-2.3,0.1v-2.6c0.6,0.1,1.4,0.1,2.4,0.1h8.5c1.2,0,1.8,0,2.4-0.1c-0.1,0.7-0.1,1.4-0.1,2.6v15.2H222.3z
			 M215.2,34.4c-0.2,0.4-0.4,1-0.9,2.2c-0.6,1.7-0.9,2.5-1.4,3.6c0.9-0.1,1.5-0.2,2.2-0.4c0.4-0.1,0.5-0.1,0.7-0.1
			c-0.4-0.9-0.4-0.9-1-2.1l2-0.8c0.6,1.2,1.4,2.9,2.3,4.9l-2.1,0.8c-0.2-0.5-0.3-0.7-0.4-1.1c-0.2,0-0.2,0-0.8,0.2
			c-0.2,0-1.4,0.3-3.5,0.7c-1.4,0.3-1.4,0.3-1.8,0.4l-0.6-2.2c0.8-0.1,1.1-0.4,1.7-2.3c0.7-1.9,1.1-3,1.3-4.5L215.2,34.4z"/>
		<path class="st0" d="M236.4,36.4c0-0.5,0-0.9-0.1-1.3h1c1-0.5,1.8-1,2.8-1.9h-6.4c-1,0-1.6,0-2.3,0.1v-2.3
			c0.7,0.1,1.4,0.1,2.4,0.1h7.7c0.9,0,1.4,0,1.8-0.1l1.3,1.4c-0.4,0.3-0.4,0.3-0.8,0.7c-1.7,1.4-2.9,2.3-4.7,3.4l0,0h6.1
			c1.1,0,2.2,0,2.9-0.2v2.6c-0.7-0.1-1.7-0.1-2.9-0.1H239v4.1c0,0.8-0.1,1.1-0.3,1.5c-0.4,0.6-1.1,0.8-3.5,0.8c-0.2,0-0.9,0-2.1-0.1
			c-0.3-1.2-0.4-1.6-0.8-2.5c1.1,0.1,2.2,0.2,2.9,0.2c1,0,1.2-0.1,1.2-0.5v-3.5H230c-1.2,0-2.1,0-2.9,0.1v-2.6
			c0.8,0.1,1.7,0.2,2.8,0.2h6.4v-0.1C236.3,36.4,236.4,36.4,236.4,36.4z M236.4,27.4c-0.4-1.1-0.8-1.9-1.4-2.9l2.4-0.7
			c0.9,1.8,1.2,2.3,1.6,3.6h2c0.2-0.3,0.4-0.5,0.7-1.1c0.7-1.2,0.9-1.6,1.2-2.4l2.5,0.7c-0.5,1-1.3,2.3-1.8,2.8h1.1
			c1.6,0,2,0,2.9-0.1c-0.1,0.6-0.1,1.1-0.1,1.9v2.2c0,0.6,0,1.2,0.1,1.8H245v-3.6h-15.3v3.6h-2.6c0.1-0.5,0.1-1.1,0.1-1.8v-2.2
			c0-0.8,0-1.3-0.1-1.9c1.1,0.1,1.2,0.1,2.8,0.1h1.1c-0.5-1-0.9-1.5-1.8-2.6l2.4-0.7c0.8,1,1.5,2.1,2.1,3.3H236.4z"/>
		<path class="st0" d="M254.2,30.4c-0.7,0-1.2,0-1.8,0.1V28c0.5,0.1,1,0.1,1.8,0.1h1.2v-1.9c0-1.2,0-1.8-0.1-2.4h2.6
			c-0.1,0.6-0.1,1.3-0.1,2.4v1.9h0.9c0.6,0,0.9,0,1.4-0.1v2.4c-0.5,0-0.9-0.1-1.4-0.1h-1v0.4c0.6,0.7,1.2,1.5,2.3,3
			c1.2-1,2.2-2.5,3.1-4.6l2.2,1c-1.6,3.1-2.3,4.1-4.4,6.1c-0.3-0.6-0.4-0.7-0.8-1.2l-1.2,1.3c-0.6-1.4-0.7-1.5-1.3-2.6v8.7
			c0,1.2,0,2.1,0.1,2.9H255c0.1-0.7,0.2-1.6,0.2-2.9v-4.8V36c0-0.1,0-0.4,0-0.8c0-0.2,0-0.4,0-0.7c-0.8,2.6-1.4,4-2.5,5.5
			c-0.4-1.1-0.8-1.8-1.3-2.6c1.3-1.6,2.7-4.7,3.4-7.2L254.2,30.4L254.2,30.4z M270.5,34.7c-1,2.2-1.5,3.2-2.6,4.7
			c1.5,1.5,3.2,2.5,6,3.4c-0.6,0.8-0.9,1.5-1.3,2.5c-2.9-1.2-4.5-2.2-6.2-4c-1.7,1.7-3.4,2.9-6.1,4c-0.5-1-0.8-1.5-1.5-2.3
			c2.8-1,4.3-1.9,6-3.6c-1.2-1.7-1.6-2.4-2.4-4.5l2.1-1.1c0.6,1.5,1.1,2.5,1.8,3.6c0.9-1.3,1.4-2.3,1.8-3.8L270.5,34.7z M265.5,26.7
			c-0.5-1.1-0.7-1.3-1.2-2.1l2.2-1c0.9,1.2,1,1.5,1.7,3.1h2.6c1.1,0,1.9,0,2.6-0.1v2.6c-0.8-0.1-1.6-0.1-2.6-0.1h-7.7
			c-1.1,0-1.9,0-2.6,0.1v-2.6c0.7,0.1,1.5,0.1,2.6,0.1H265.5z M269.3,29.3c2.6,2.7,3.4,3.6,4.4,5.1l-2,1.8c-0.6-1.1-0.8-1.4-1.9-2.7
			c-1.1-1.4-1.3-1.7-2.3-2.7L269.3,29.3z"/>
	</g>
</g>
</svg>
