<?xml version="1.0" encoding="utf-8"?>
<!-- Generator: Adobe Illustrator 22.0.1, SVG Export Plug-In . SVG Version: 6.00 Build 0)  -->
<svg version="1.1" id="Layer_1" xmlns="http://www.w3.org/2000/svg" xmlns:xlink="http://www.w3.org/1999/xlink" x="0px" y="0px"
	 viewBox="0 0 395 115" style="enable-background:new 0 0 395 115;" xml:space="preserve">
<style type="text/css">
	.st0{fill:#FFFFFF;}
</style>
<g>
	<g>
		<path class="st0" d="M90.6,66.6h1.3v12.6h-1.3V66.6z"/>
		<path class="st0" d="M105.6,72.6l-3.9-5.5h2l3,4.4l3-4.4h1.9l-3.8,5.4l4.2,6.1h-2l-3.3-5l-3.3,5h-1.9L105.6,72.6z"/>
		<path class="st0" d="M115.4,67.1h1.6v11.5h-1.6V67.1z"/>
		<path class="st0" d="M123.3,71.1H122v-4h1.3V71.1z"/>
		<path class="st0" d="M131.9,67.1h1.4l4.9,11.5h-1.8l-1.2-2.8h-5.5l-1.1,2.8h-1.8L131.9,67.1z M134.7,74.4l-2.1-5.3l0,0l-2.2,5.3
			H134.7z"/>
		<path class="st0" d="M141.6,67.1h2l6.4,9.5l0,0v-9.4h1.6v11.4h-2l-6.4-9.4l0,0v9.4h-1.6V67.1z"/>
		<path class="st0" d="M162.7,66.8h1.3v12.6h-1.3V66.8z"/>
	</g>
	<g>
		<g>
			<path class="st0" d="M0,67.1h3.8c0.9,0,1.8,0.1,2.6,0.3s1.5,0.5,2.1,1s1.1,1.1,1.5,1.8s0.5,1.6,0.5,2.7c0,0.9-0.2,1.7-0.5,2.4
				c-0.3,0.7-0.8,1.3-1.4,1.8c-0.6,0.5-1.3,0.8-2,1.1c-0.8,0.2-1.6,0.4-2.4,0.4H0V67.1z M2.5,76.2h1.3c0.6,0,1.1-0.1,1.6-0.2
				c0.5-0.1,0.9-0.3,1.3-0.6c0.4-0.3,0.7-0.6,0.9-1.1c0.2-0.4,0.3-1,0.3-1.6c0-0.6-0.1-1-0.3-1.5c-0.2-0.4-0.5-0.8-0.8-1
				c-0.4-0.3-0.8-0.5-1.3-0.6c-0.5-0.1-1-0.2-1.5-0.2H2.5V76.2z"/>
			<path class="st0" d="M13.7,67.1h7.7v2.3h-5.2v2.1h4.9v2.3h-4.9v2.3h5.5v2.3h-8C13.7,78.4,13.7,67.1,13.7,67.1z"/>
			<path class="st0" d="M25.1,67.1h2.5v4.3h4.9v-4.3H35v11.4h-2.5v-4.9h-4.9v4.9h-2.5V67.1z"/>
			<path class="st0" d="M38.1,72.8c0-0.9,0.2-1.7,0.5-2.5c0.3-0.7,0.7-1.4,1.3-1.9c0.5-0.5,1.2-0.9,1.9-1.2c0.8-0.3,1.6-0.4,2.5-0.4
				s1.7,0.1,2.5,0.4s1.4,0.7,1.9,1.2s1,1.2,1.3,1.9s0.5,1.6,0.5,2.5c0,0.9-0.2,1.7-0.5,2.5c-0.3,0.7-0.7,1.4-1.3,1.9
				c-0.5,0.5-1.2,0.9-1.9,1.2c-0.8,0.3-1.6,0.4-2.5,0.4s-1.7-0.1-2.5-0.4c-0.7-0.3-1.4-0.7-1.9-1.2s-1-1.1-1.3-1.9
				C38.2,74.5,38.1,73.7,38.1,72.8z M40.7,72.8c0,0.5,0.1,1,0.2,1.5c0.2,0.4,0.4,0.8,0.7,1.2c0.3,0.3,0.7,0.6,1.1,0.8
				c0.4,0.2,0.9,0.3,1.5,0.3c0.5,0,1-0.1,1.5-0.3c0.4-0.2,0.8-0.4,1.1-0.8c0.3-0.3,0.5-0.7,0.7-1.2c0.2-0.4,0.2-0.9,0.2-1.5
				c0-0.5-0.1-1-0.2-1.5c-0.2-0.5-0.4-0.8-0.7-1.2c-0.3-0.3-0.7-0.6-1.1-0.8c-0.4-0.2-0.9-0.3-1.5-0.3c-0.5,0-1,0.1-1.5,0.3
				c-0.4,0.2-0.8,0.4-1.1,0.8c-0.3,0.3-0.5,0.7-0.7,1.2S40.7,72.3,40.7,72.8z"/>
			<path class="st0" d="M53.7,67.1h3.4l4.8,7.9l0,0v-7.9h2.5v11.4h-3.3l-5-8.1l0,0v8.1h-2.5L53.7,67.1L53.7,67.1z"/>
			<path class="st0" d="M78.5,77.7c-0.7,0.4-1.5,0.7-2.3,0.8c-0.8,0.2-1.6,0.3-2.5,0.3s-1.7-0.1-2.5-0.4s-1.4-0.7-1.9-1.2
				s-1-1.1-1.3-1.9c-0.3-0.7-0.5-1.6-0.5-2.5c0-0.9,0.2-1.7,0.5-2.5c0.3-0.7,0.7-1.4,1.3-1.9c0.5-0.5,1.2-0.9,1.9-1.2
				c0.7-0.3,1.6-0.4,2.5-0.4s1.8,0.1,2.5,0.3c0.8,0.2,1.4,0.6,2,1.1l-1.8,1.9c-0.3-0.4-0.7-0.6-1.2-0.8c-0.4-0.2-1-0.3-1.6-0.3
				c-0.5,0-1,0.1-1.5,0.3c-0.4,0.2-0.8,0.4-1.1,0.8c-0.3,0.3-0.5,0.7-0.7,1.2c-0.2,0.4-0.2,0.9-0.2,1.5c0,0.5,0.1,1,0.2,1.5
				c0.2,0.4,0.4,0.8,0.7,1.2c0.3,0.3,0.7,0.6,1.1,0.8c0.4,0.2,0.9,0.3,1.5,0.3c0.5,0,1-0.1,1.4-0.2c0.4-0.1,0.7-0.3,0.9-0.4v-1.8h-2
				v-2.3h4.5L78.5,77.7L78.5,77.7z"/>
		</g>
	</g>
	<g>
		<path class="st0" d="M13.7,40.4h3.5c1.2,0,1.9,0,2.7-0.1c-0.1,0.9-0.1,1.7-0.1,2.8v9.4c0,1.3,0,2.3,0.1,3h-2.6v-1.4H3.7v1.4H1.1
			c0.1-0.9,0.1-1.6,0.1-3v-9.4c0-1,0-1.9-0.1-2.8c0.7,0.1,1.6,0.1,2.7,0.1H7c0-0.5,0-0.7,0-1.5v-1.1H2.7c-0.9,0-1.9,0-2.7,0.1v-2.7
			c0.7,0.1,1.7,0.1,2.8,0.1h15.6c1.1,0,2,0,2.7-0.1v2.7c-0.8-0.1-1.7-0.1-2.7-0.1h-4.7V40.4z M3.7,51.7h13.6v-3
			c-2.2,0.1-2.2,0.1-3,0.1c-1.5,0-2-0.1-2.4-0.3c-0.4-0.3-0.5-0.7-0.5-1.7v-4.1H9.3c-0.2,2.4-0.4,3.3-1,4.5S7,49.1,5.5,50.1
			c-0.5-0.7-1.1-1.2-1.7-1.7L3.7,51.7L3.7,51.7z M3.7,48.3c1-0.5,1.6-1,2.1-1.8c0.7-0.9,0.9-1.8,1.1-3.8H3.7V48.3z M9.4,37.7V39
			c0,0.7,0,0.8,0,1.3h2.1v-2.6H9.4z M17.4,42.7h-3.6v3.5c0,0.3,0.1,0.4,0.7,0.4c0.8,0,1.7,0,3-0.1v-3.8H17.4z"/>
		<path class="st0" d="M27.7,44.9c-1.1,0-1.9,0-2.5,0.1v-2.6c0.7,0.1,1.2,0.1,2.5,0.1h4c0.7-1.3,1.2-2.4,1.4-3.3l2.8,0.4
			c-0.2,0.5-0.2,0.5-0.7,1.5c0,0.1,0,0.1-0.7,1.3h8.9c1.4,0,1.9,0,2.6-0.1v2.6c-0.7-0.1-1.4-0.1-2.6-0.1h-2c-0.9,2.4-1.6,3.7-3,5.2
			c2.9,1.2,4.1,1.8,7.2,3.4l-1.9,2.2c-2.7-1.7-4.2-2.5-7.2-3.8c-2.4,1.9-5.3,3-10.1,3.9c-0.4-0.9-0.7-1.6-1.3-2.5
			c3.9-0.5,6.6-1.2,8.7-2.5c-2.3-0.9-2.7-1-6.2-1.9c1.3-1.6,2.1-2.7,2.8-3.9H27.7z M33.9,36.4c-0.3-0.7-0.5-0.9-1-1.6l2.7-0.8
			c0.7,1.3,1,1.8,1.3,2.4h5.9c1.1,0,1.9,0,2.7-0.1c-0.1,0.6-0.1,1.1-0.1,1.8v1.7c0,0.7,0,1.2,0.1,1.7H43v-2.8H27.9v2.8h-2.6
			c0.1-0.5,0.1-1,0.1-1.7v-1.7c0-0.6,0-1.2-0.1-1.8c0.8,0.1,1.5,0.1,2.7,0.1C28,36.4,33.9,36.4,33.9,36.4z M33.3,44.9
			c-0.6,1-0.9,1.5-1.8,2.8c2.4,0.7,2.4,0.7,4.5,1.4c0.5-0.4,1-1.1,1.4-1.7c0.6-0.8,0.8-1.4,1.3-2.5H33.3z"/>
		<path class="st0" d="M61.7,38.2v-1.5c0-1,0-1.6-0.1-2.4h2.7c-0.1,0.7-0.1,1.4-0.1,2.4v1.4h3.6c1,0,1.6,0,2.4-0.1
			c-0.1,0.8-0.1,1.4-0.1,2.2v12.9c0,0.9,0,1.6,0.1,2.4h-2.7v-0.9H53.1v1h-2.7c0.1-0.8,0.1-1.6,0.1-2.4V40.3c0-0.8,0-1.4-0.1-2.2
			c0.8,0.1,1.4,0.1,2.4,0.1h3.4v-1.5c0-0.9,0-1.6-0.2-2.4h2.7c-0.1,0.7-0.1,1.4-0.1,2.4v1.4L61.7,38.2L61.7,38.2z M53.1,40.6V45h3.1
			v-4.4H53.1z M53.1,47.3v4.9h3.1v-4.9H53.1z M61.7,45v-4.4h-3.1V45H61.7z M61.7,52.2v-4.9h-3.1v4.9H61.7z M67.5,45v-4.4h-3.3V45
			H67.5z M67.5,52.2v-4.9h-3.3v4.9H67.5z"/>
		<path class="st0" d="M76,40c2.2,1.2,2.7,1.6,4.5,3.1L79,45.3c-1.7-1.5-2.6-2.1-4.6-3.2L76,40z M80.7,48c-1.1,2.7-2.2,4.9-3.4,6.7
			c-0.2,0.3-0.3,0.4-0.5,0.7l-2.3-2c0.4-0.4,0.6-0.7,1.1-1.4c1.1-1.7,1.9-3.1,2.9-5.5L80.7,48z M77,34.4c1.8,1,2.8,1.7,4.5,3.2
			l-1.6,2c-1.6-1.5-2.5-2.2-4.5-3.4L77,34.4z M93.1,51.7c1.2,0,2.2,0,2.8-0.1v2.8c-0.8-0.1-1.6-0.2-2.8-0.2h-9.9c-1.2,0-2,0-2.8,0.2
			v-2.8c0.7,0.1,1.6,0.1,2.8,0.1h3.5V38.3h-2.4c-1.1,0-2,0-2.7,0.1v-2.8c0.8,0.1,1.5,0.1,2.7,0.1h8.3c1.1,0,1.9,0,2.7-0.2v2.8
			c-0.8-0.1-1.6-0.1-2.7-0.1h-3.1v13.4L93.1,51.7L93.1,51.7z"/>
		<path class="st0" d="M101.8,48.5c0-1,0-1,0-2.6c-0.6,0.8-0.9,1.1-1.7,1.8c-0.3-1.2-0.6-1.7-1.1-2.5c1.5-1.1,2.8-2.4,3.8-4
			c0.6-0.8,1-1.5,1.2-2.1l2,1.5c-0.2,0.3-0.4,0.6-0.7,1.1c-0.3,0.4-0.7,1.1-1.1,1.7v9.5c0,1.5,0,2.1,0.1,2.8h-2.7
			c0.1-0.6,0.1-1.4,0.1-2.6L101.8,48.5L101.8,48.5z M106.3,35.3c-0.1,0.1-0.2,0.2-0.3,0.3c0,0.1-0.1,0.1-0.1,0.1
			c0.7,0.1,1.4,0.1,2.4,0.1h3.6c0-0.2,0.1-0.7,0.2-1.6l2.6,0.1c-0.1,0.5-0.2,1.2-0.3,1.4h3.9c1.1,0,1.8,0,2.4-0.1v2.3
			c-0.8-0.1-1.2-0.1-2.2-0.1H114c0,0.2,0,0.2-0.1,0.6c0,0.2-0.1,0.4-0.2,0.8h4.3c0.8,0,1.5,0,2.1-0.1c-0.1,0.5-0.1,0.9-0.1,1.8v2.4
			c0,0.8,0,1.3,0.1,1.8c-0.7-0.1-1.1-0.1-2-0.1h-10c-0.7,0-1,0-2,0.1c0-0.5,0.1-0.8,0.1-1.5v-2.9c0-0.7,0-1.1-0.1-1.6
			c0.8,0,1.2,0.1,1.9,0.1h3.3c0.1-0.4,0.2-0.8,0.3-1.4h-3.5c-1,0-1.5,0-2.2,0.1v-2.2c-0.1,0.1-0.2,0.2-0.3,0.3
			c-1.2,1.4-1.5,1.8-2.7,2.8c-0.9,0.7-1.4,1.1-2.2,1.7c-0.4-1-0.7-1.4-1.3-2.2c1.4-0.8,2.2-1.4,3.2-2.4c0.8-0.8,1.2-1.3,1.5-1.9
			L106.3,35.3z M104.5,53.4c1.1-1.5,1.7-2.7,2.1-4.1l2.1,1c-0.7,2.1-1.3,3.2-2.3,4.7L104.5,53.4z M113.3,48.5
			c0.8,0.6,1.5,1.2,2.3,2.1l-1.7,1.4c-1.1-1.4-1.8-2.1-2.9-2.9l0.9-0.6h-4.3c-1,0-1.5,0-2.2,0.1v-2.3c0.7,0.1,1.4,0.1,2.4,0.1h10.7
			c1.1,0,1.8,0,2.4-0.1v2.3c-0.8-0.1-1.2-0.1-2.2-0.1H113.3z M108.4,43.1h1.9v-1.9h-1.9V43.1z M111.4,52.6c0,0.5,0.3,0.6,1.5,0.6
			c1.5,0,1.9,0,2.3-0.2c0.3-0.2,0.5-0.7,0.5-2c0.9,0.4,1.1,0.5,2.2,0.7c-0.1,1.6-0.5,2.6-1,3.1c-0.6,0.5-1.6,0.7-3.7,0.7
			c-1.6,0-2.4-0.1-3-0.3c-0.8-0.3-1.1-0.8-1.1-1.7v-1.9c0-0.8,0-1.2-0.1-1.8h2.5c-0.1,0.7-0.1,1-0.1,1.7
			C111.4,51.5,111.4,52.6,111.4,52.6z M112.3,43.1h1.9v-1.9h-1.9V43.1z M116.1,43.1h1.9v-1.9h-1.9V43.1z M119.3,55
			c-0.7-2.4-1-3.1-2.1-4.8l2-1c1.2,1.7,1.6,2.5,2.2,4.4L119.3,55z"/>
		<path class="st0" d="M128.3,39.1c0,0.8-0.1,1.8-0.1,2.6v11.1v0.1c0,1.2,0,2,0.1,2.8h-2.7c0.1-0.8,0.1-1.5,0.1-2.9v-11
			c0-1.3,0-1.9-0.1-2.6L128.3,39.1L128.3,39.1z M129.9,39.9c-0.6-1-0.8-1.4-1.6-2.4c-0.9-1.1-1.2-1.5-1.9-2.2l1.9-1.2
			c0.3,0.4,0.3,0.4,1.2,1.3c0.6,0.7,1.7,2,2.4,3.1L129.9,39.9z M135.9,38.7c-0.1,0.5-0.1,0.6-0.3,1.3c0,0.3-0.1,0.5-0.2,1h4.8
			c1.2,0,1.7,0,2.3-0.1v2.4c-0.6-0.1-1.1-0.1-2.1-0.1H135c-0.4,2.2-0.9,3.7-1.8,5.6c-0.9,2-1.7,3.2-3,4.8c-0.8-0.9-1-1.1-1.9-1.8
			c1.2-1.2,2-2.2,2.6-3.4c0.8-1.4,1.4-3.2,1.8-5.2h-1.6c-1,0-1.5,0-2.1,0.1v-2.4c0.6,0.1,1,0.1,2.3,0.1h1.9c0.1-0.7,0.2-1.6,0.3-2.6
			L135.9,38.7z M145.5,52.8c0,2.2-0.6,2.6-3.6,2.6c-0.4,0-0.7,0-1.4,0c-0.1-1-0.3-1.6-0.7-2.4c0.6,0,1.9,0.1,2.4,0.1
			c0.6,0,0.8-0.2,0.8-0.6v-15h-8.3c-0.6,0-1.4,0-2.3,0.1v-2.5c0.6,0.1,1.4,0.1,2.4,0.1h8.4c1.2,0,1.8,0,2.4-0.1
			c-0.1,0.7-0.1,1.4-0.1,2.6L145.5,52.8L145.5,52.8z M138.5,44.9c-0.2,0.4-0.4,1-0.9,2.2c-0.6,1.7-0.9,2.5-1.4,3.5
			c0.9-0.1,1.4-0.2,2.1-0.4c0.4-0.1,0.5-0.1,0.7-0.1c-0.4-0.9-0.4-0.9-1-2.1l2-0.8c0.6,1.2,1.4,2.9,2.3,4.9l-2.1,0.8
			c-0.2-0.5-0.3-0.7-0.4-1.1c-0.2,0-0.2,0-0.8,0.2c-0.2,0-1.4,0.3-3.5,0.7c-1.4,0.3-1.4,0.3-1.8,0.4l-0.6-2.2c0.8-0.1,1-0.4,1.7-2.3
			c0.7-1.9,1-3,1.3-4.5L138.5,44.9z"/>
		<path class="st0" d="M159.4,46.8c0-0.5,0-0.9-0.1-1.3h1c1-0.5,1.8-1,2.8-1.9h-6.4c-1,0-1.6,0-2.3,0.1v-2.3
			c0.7,0.1,1.4,0.1,2.4,0.1h7.7c0.9,0,1.4,0,1.8-0.1l1.3,1.4c-0.4,0.3-0.4,0.3-0.8,0.7c-1.7,1.4-2.8,2.3-4.7,3.4l0,0h6.1
			c1.1,0,2.2,0,2.9-0.2v2.6c-0.7-0.1-1.7-0.1-2.9-0.1H162v4.1c0,0.8-0.1,1.1-0.3,1.4c-0.4,0.6-1.1,0.8-3.5,0.8c-0.2,0-0.9,0-2.1-0.1
			c-0.3-1.2-0.4-1.6-0.8-2.5c1.1,0.1,2.1,0.2,2.9,0.2c1,0,1.2-0.1,1.2-0.5v-3.5h-6.3c-1.2,0-2.1,0-2.8,0.1v-2.6
			c0.8,0.1,1.7,0.2,2.8,0.2L159.4,46.8L159.4,46.8L159.4,46.8z M159.5,37.8c-0.4-1.1-0.8-1.9-1.4-2.9l2.4-0.7
			c0.9,1.7,1.2,2.3,1.6,3.6h2c0.2-0.3,0.4-0.5,0.7-1.1c0.7-1.2,0.9-1.6,1.2-2.4l2.5,0.7c-0.5,1-1.3,2.3-1.7,2.8h1c1.6,0,2,0,2.9-0.1
			c-0.1,0.6-0.1,1-0.1,1.9v2.2c0,0.6,0,1.2,0.1,1.8h-2.5V40H153v3.6h-2.5c0.1-0.5,0.1-1.1,0.1-1.8v-2.2c0-0.8,0-1.3-0.1-1.9
			c1,0.1,1.2,0.1,2.8,0.1h1.1c-0.5-1-0.9-1.5-1.7-2.6l2.4-0.7c0.8,1,1.5,2.1,2.1,3.3C157.2,37.8,159.5,37.8,159.5,37.8z"/>
		<path class="st0" d="M177.3,40.7c-0.7,0-1.2,0-1.8,0.1v-2.4c0.5,0.1,1,0.1,1.8,0.1h1.2v-1.9c0-1.2,0-1.8-0.1-2.4h2.6
			c-0.1,0.6-0.1,1.3-0.1,2.4v1.9h0.9c0.6,0,0.9,0,1.4-0.1v2.4c-0.5,0-0.9-0.1-1.4-0.1h-1v0.4c0.6,0.7,1.2,1.5,2.3,3
			c1.2-1,2.2-2.4,3.1-4.5l2.2,1c-1.6,3.1-2.3,4.1-4.3,6c-0.3-0.6-0.4-0.7-0.8-1.2l-1.2,1.3c-0.6-1.4-0.7-1.5-1.3-2.6v8.7
			c0,1.2,0,2.1,0.1,2.9h-2.7c0.1-0.7,0.2-1.6,0.2-2.9V48v-1.6c0-0.1,0-0.3,0-0.8c0-0.2,0-0.4,0-0.7c-0.8,2.6-1.4,3.9-2.5,5.5
			c-0.4-1.1-0.8-1.8-1.3-2.6c1.3-1.6,2.7-4.6,3.4-7.2L177.3,40.7L177.3,40.7z M193.6,45.2c-1,2.2-1.5,3.1-2.6,4.6
			c1.5,1.5,3.2,2.4,6,3.4c-0.6,0.8-0.9,1.5-1.3,2.5c-2.9-1.2-4.5-2.2-6.2-4c-1.7,1.7-3.4,2.9-6.1,4c-0.5-1-0.8-1.5-1.4-2.3
			c2.8-1,4.3-1.9,6-3.6c-1.2-1.7-1.6-2.4-2.4-4.5l2.1-1.1c0.6,1.5,1,2.5,1.8,3.6c0.9-1.3,1.4-2.3,1.8-3.8L193.6,45.2z M188.6,37.1
			c-0.5-1.1-0.7-1.3-1.2-2.1l2.2-1c0.9,1.2,1,1.5,1.7,3.1h2.6c1.1,0,1.9,0,2.6-0.1v2.6c-0.8-0.1-1.6-0.1-2.6-0.1h-7.7
			c-1,0-1.9,0-2.6,0.1V37c0.7,0.1,1.5,0.1,2.6,0.1H188.6z M192.4,39.7c2.6,2.7,3.4,3.6,4.3,5l-2,1.8c-0.6-1-0.8-1.4-1.9-2.7
			c-1.1-1.4-1.3-1.7-2.3-2.7L192.4,39.7z"/>
	</g>
	<g>
		<g>
			<path class="st0" d="M181.9,69.9c-0.2-0.3-0.5-0.4-0.8-0.6c-0.3-0.1-0.7-0.2-1-0.2c-0.2,0-0.4,0-0.6,0.1c-0.2,0-0.4,0.1-0.5,0.2
				c-0.2,0.1-0.3,0.2-0.4,0.4c-0.1,0.2-0.2,0.3-0.2,0.5c0,0.3,0.1,0.6,0.4,0.8c0.3,0.2,0.6,0.3,1,0.5c0.4,0.1,0.8,0.3,1.3,0.4
				c0.4,0.1,0.9,0.3,1.3,0.5c0.4,0.2,0.7,0.6,1,0.9c0.3,0.4,0.4,0.9,0.4,1.6c0,0.6-0.1,1.2-0.4,1.7c-0.2,0.5-0.6,0.9-1,1.2
				c-0.4,0.3-0.9,0.5-1.4,0.7c-0.5,0.1-1.1,0.2-1.7,0.2c-0.7,0-1.4-0.1-2.1-0.3c-0.6-0.2-1.2-0.6-1.8-1.1l1.8-2
				c0.3,0.3,0.6,0.6,1,0.8c0.4,0.2,0.8,0.3,1.2,0.3c0.2,0,0.4,0,0.6-0.1c0.2,0,0.4-0.1,0.6-0.2c0.2-0.1,0.3-0.2,0.4-0.4
				c0.1-0.2,0.2-0.3,0.2-0.5c0-0.3-0.1-0.6-0.4-0.8c-0.3-0.2-0.6-0.4-1-0.5c-0.4-0.1-0.8-0.3-1.3-0.4c-0.5-0.1-0.9-0.3-1.3-0.6
				c-0.4-0.2-0.7-0.5-1-0.9c-0.3-0.4-0.4-0.9-0.4-1.5c0-0.6,0.1-1.1,0.4-1.6c0.2-0.5,0.6-0.8,1-1.2c0.4-0.3,0.9-0.5,1.4-0.7
				s1.1-0.2,1.6-0.2c0.6,0,1.3,0.1,1.9,0.3c0.6,0.2,1.1,0.5,1.6,0.9L181.9,69.9z"/>
			<path class="st0" d="M194.2,70.1c-0.2-0.3-0.5-0.5-0.9-0.7s-0.8-0.2-1.2-0.2c-0.5,0-0.9,0.1-1.3,0.3c-0.4,0.2-0.8,0.4-1,0.8
				c-0.3,0.3-0.5,0.7-0.7,1.2s-0.2,0.9-0.2,1.5c0,0.5,0.1,1,0.2,1.5c0.2,0.4,0.4,0.8,0.7,1.2s0.6,0.6,1,0.8c0.4,0.2,0.8,0.3,1.3,0.3
				s1-0.1,1.4-0.3c0.4-0.2,0.7-0.5,1-0.9l2.1,1.6c-0.5,0.7-1.1,1.2-1.8,1.5s-1.5,0.5-2.3,0.5c-0.9,0-1.7-0.1-2.5-0.4
				c-0.7-0.3-1.4-0.7-1.9-1.2s-1-1.1-1.3-1.9c-0.3-0.7-0.5-1.6-0.5-2.5c0-0.9,0.2-1.7,0.5-2.5c0.3-0.7,0.7-1.4,1.3-1.9
				c0.5-0.5,1.2-0.9,1.9-1.2c0.8-0.3,1.6-0.4,2.5-0.4c0.3,0,0.7,0,1,0.1c0.3,0.1,0.7,0.2,1,0.3s0.7,0.3,1,0.5s0.6,0.5,0.8,0.8
				L194.2,70.1z"/>
			<path class="st0" d="M199,67.1h2.5v4.2h4.9v-4.2h2.5v11.4h-2.5v-4.9h-4.9v4.9H199V67.1z"/>
			<path class="st0" d="M211.9,72.8c0-0.9,0.2-1.7,0.5-2.5c0.3-0.7,0.7-1.4,1.3-1.9c0.5-0.5,1.2-0.9,1.9-1.2
				c0.7-0.3,1.6-0.4,2.5-0.4s1.7,0.1,2.5,0.4s1.4,0.7,1.9,1.2s1,1.1,1.3,1.9c0.3,0.7,0.5,1.6,0.5,2.5c0,0.9-0.2,1.7-0.5,2.5
				c-0.3,0.7-0.7,1.4-1.3,1.9c-0.5,0.5-1.2,0.9-1.9,1.2s-1.6,0.4-2.5,0.4s-1.7-0.1-2.5-0.4s-1.4-0.7-1.9-1.2s-1-1.1-1.3-1.9
				C212,74.6,211.9,73.7,211.9,72.8z M214.5,72.8c0,0.5,0.1,1,0.2,1.5c0.2,0.4,0.4,0.8,0.7,1.2s0.7,0.6,1.1,0.8
				c0.4,0.2,0.9,0.3,1.5,0.3c0.5,0,1-0.1,1.5-0.3c0.4-0.2,0.8-0.4,1.1-0.8c0.3-0.4,0.5-0.7,0.7-1.2c0.2-0.4,0.2-0.9,0.2-1.5
				c0-0.5-0.1-1-0.2-1.5c-0.2-0.5-0.4-0.8-0.7-1.2c-0.3-0.3-0.7-0.6-1.1-0.8c-0.4-0.2-0.9-0.3-1.5-0.3c-0.5,0-1,0.1-1.5,0.3
				c-0.5,0.2-0.8,0.4-1.1,0.8c-0.3,0.3-0.5,0.7-0.7,1.2C214.6,71.8,214.5,72.3,214.5,72.8z"/>
			<path class="st0" d="M226.5,72.8c0-0.9,0.2-1.7,0.5-2.5c0.3-0.7,0.7-1.4,1.3-1.9c0.5-0.5,1.2-0.9,1.9-1.2
				c0.7-0.3,1.6-0.4,2.5-0.4s1.7,0.1,2.5,0.4s1.4,0.7,1.9,1.2s1,1.1,1.3,1.9c0.3,0.7,0.5,1.6,0.5,2.5c0,0.9-0.2,1.7-0.5,2.5
				c-0.3,0.7-0.7,1.4-1.3,1.9c-0.5,0.5-1.2,0.9-1.9,1.2s-1.6,0.4-2.5,0.4s-1.7-0.1-2.5-0.4s-1.4-0.7-1.9-1.2s-1-1.1-1.3-1.9
				C226.7,74.6,226.5,73.7,226.5,72.8z M229.1,72.8c0,0.5,0.1,1,0.2,1.5c0.2,0.4,0.4,0.8,0.7,1.2s0.7,0.6,1.1,0.8
				c0.4,0.2,0.9,0.3,1.5,0.3c0.5,0,1-0.1,1.5-0.3c0.4-0.2,0.8-0.4,1.1-0.8c0.3-0.4,0.5-0.7,0.7-1.2c0.2-0.4,0.2-0.9,0.2-1.5
				c0-0.5-0.1-1-0.2-1.5c-0.2-0.5-0.4-0.8-0.7-1.2c-0.3-0.3-0.7-0.6-1.1-0.8c-0.4-0.2-0.9-0.3-1.5-0.3c-0.5,0-1,0.1-1.5,0.3
				c-0.4,0.2-0.8,0.4-1.1,0.8c-0.3,0.3-0.5,0.7-0.7,1.2C229.2,71.8,229.1,72.3,229.1,72.8z"/>
			<path class="st0" d="M241.8,67.1h2.5v9.1h4.6v2.3h-7.2L241.8,67.1L241.8,67.1z"/>
		</g>
	</g>
</g>
</svg>
