<?xml version="1.0" standalone="no"?>
<!DOCTYPE svg PUBLIC "-//W3C//DTD SVG 1.1//EN" "http://www.w3.org/Graphics/SVG/1.1/DTD/svg11.dtd" >
<svg xmlns="http://www.w3.org/2000/svg">
<metadata>Generated by IcoMoon</metadata>
<defs>
<font id="icomoon" horiz-adv-x="1024">
<font-face units-per-em="1024" ascent="960" descent="-64" />
<missing-glyph horiz-adv-x="1024" />
<glyph unicode="&#x20;" horiz-adv-x="512" d="" />
<glyph unicode="&#xe900;" glyph-name="Close-Button" d="M697.549 262.451v0c-7.725-7.713-18.39-12.482-30.17-12.482s-22.445 4.77-30.17 12.483l-125.183 125.183-125.44-125.44c-7.728-7.737-18.409-12.524-30.208-12.524-23.579 0-42.693 19.114-42.693 42.693 0 11.78 4.771 22.446 12.486 30.17v0l125.44 125.44-125.44 125.44c-7.731 7.731-12.513 18.411-12.513 30.208 0 23.594 19.127 42.721 42.721 42.721 11.797 0 22.477-4.782 30.208-12.513v0l125.44-125.44 125.235 125.184c7.721 7.721 18.388 12.497 30.17 12.497 23.564 0 42.666-19.102 42.666-42.666 0-11.782-4.776-22.449-12.497-30.17l-125.184-125.184 125.184-125.235c7.713-7.725 12.482-18.39 12.482-30.17s-4.77-22.445-12.483-30.17l0.001 0.001z" />
<glyph unicode="&#xe901;" glyph-name="Age-Range" d="M320 320c82.475 0 149.333 66.859 149.333 149.333s-66.859 149.333-149.333 149.333c-82.475 0-149.333-66.859-149.333-149.333v0c0-82.475 66.859-149.333 149.333-149.333v0zM320 533.333c35.346 0 64-28.654 64-64s-28.654-64-64-64c-35.346 0-64 28.654-64 64v0c0 35.346 28.654 64 64 64v0zM661.333 448c106.039 0 192 85.961 192 192s-85.961 192-192 192c-106.039 0-192-85.961-192-192v0c0-106.039 85.961-192 192-192v0zM661.333 746.667c58.91 0 106.667-47.756 106.667-106.667s-47.756-106.667-106.667-106.667c-58.91 0-106.667 47.756-106.667 106.667v0c0 58.91 47.756 106.667 106.667 106.667v0zM810.667 405.333h-298.667c-47.128 0-85.333-38.205-85.333-85.333v0-42.667h-213.333c-47.128 0-85.333-38.205-85.333-85.333v0-128h768v256c0 47.128-38.205 85.333-85.333 85.333v0zM426.667 149.333h-213.333v42.667h213.333zM810.667 149.333h-298.667v170.667h298.667z" />
<glyph unicode="&#xe902;" glyph-name="Arrow-Small" d="M713.088 475.307l-172.373 171.691c-7.579 7.524-18.020 12.174-29.547 12.174s-21.968-4.65-29.549-12.177l0.003 0.002c-7.576-7.523-12.266-17.945-12.266-29.461s4.69-21.938 12.263-29.459l0.002-0.002 97.792-97.408h-238.080c-23.564 0-42.667-19.103-42.667-42.667s19.103-42.667 42.667-42.667v0h242.389l-102.144-101.717c-7.522-7.548-12.172-17.962-12.172-29.461 0-23.052 18.688-41.74 41.74-41.74 11.553 0 22.009 4.693 29.567 12.278l0.001 0.001 172.373 171.691c7.566 7.528 12.248 17.948 12.248 29.461s-4.682 21.933-12.246 29.46l-0.002 0.002z" />
<glyph unicode="&#xe903;" glyph-name="Shield" d="M821.419 614.016v217.984h-618.837v-217.984c0.407-77.104 12.451-151.246 34.463-220.962l-1.439 5.282c39.133-145.099 135.919-262.532 263.639-328.37l12.755-5.966 9.003 4.267 0.512 0.256h0.64c130.516 67.204 227.219 184.582 265.49 325.977l0.835 3.623c20.548 64.432 32.59 138.571 33.023 215.46l0.001 0.22zM736.085 746.667v-128h-448.171v128zM512 159.957c-94.811 59.541-164.546 151.561-194.054 260.146l-0.719 3.107c-9.892 31.123-18.194 68.365-23.336 106.608l-0.387 3.515h436.992c-5.578-41.806-13.878-79.045-25.032-115.029l1.31 4.906c-30.235-111.689-99.968-203.706-192.932-262.173l-1.841-1.081z" />
<glyph unicode="&#xe904;" glyph-name="Icon-Camera" d="M874.667 661.333h-106.667l-128 128h-256l-128-128h-106.667c-11.782 0-21.333-9.551-21.333-21.333v0-469.333c0-11.782 9.551-21.333 21.333-21.333v0h725.333c11.782 0 21.333 9.551 21.333 21.333v0 469.333c0 11.782-9.551 21.333-21.333 21.333v0zM810.667 234.667h-597.333v341.333h77.995l128 128h185.344l128-128h77.995zM512 618.667c-94.257 0-170.667-76.41-170.667-170.667s76.41-170.667 170.667-170.667c94.257 0 170.667 76.41 170.667 170.667v0c0 94.257-76.41 170.667-170.667 170.667v0zM512 362.667c-47.128 0-85.333 38.205-85.333 85.333s38.205 85.333 85.333 85.333c47.128 0 85.333-38.205 85.333-85.333v0c0-47.128-38.205-85.333-85.333-85.333v0zM746.667 533.333c-11.782 0-21.333-9.551-21.333-21.333s9.551-21.333 21.333-21.333c11.782 0 21.333 9.551 21.333 21.333v0c0 11.782-9.551 21.333-21.333 21.333v0z" />
<glyph unicode="&#xe905;" glyph-name="Icon-Menu" d="M128 618.667h768c23.564 0 42.667 19.103 42.667 42.667s-19.103 42.667-42.667 42.667v0h-768c-23.564 0-42.667-19.103-42.667-42.667s19.103-42.667 42.667-42.667v0zM896 490.667h-768c-23.564 0-42.667-19.103-42.667-42.667s19.103-42.667 42.667-42.667v0h768c23.564 0 42.667 19.103 42.667 42.667s-19.103 42.667-42.667 42.667v0zM896 277.333h-768c-23.564 0-42.667-19.103-42.667-42.667s19.103-42.667 42.667-42.667v0h768c23.564 0 42.667 19.103 42.667 42.667s-19.103 42.667-42.667 42.667v0z" />
<glyph unicode="&#xe906;" glyph-name="Icon-Social-RedNote" d="M459.989 429.952l37.205 89.344h-44.629l26.027 70.741c-15.317 1.195-37.163 8.149-51.499-1.877-10.197-7.125-15.787-31.573-20.437-42.667-6.699-16.043-38.912-62.592-9.941-73.216 5.036-1.135 10.819-1.785 16.754-1.785 3.283 0 6.519 0.199 9.697 0.585l-0.382-0.038c-5.443-18.728-11.991-34.86-19.953-50.137l0.71 1.497c-3.243-7.467-8.96-17.835-4.992-26.027 8.533-17.877 41.472-11.179 57.728-11.179 7.168 0 15.573-1.365 21.077 4.267 6.971 10.507 12.506 22.705 15.938 35.756l0.19 0.852zM269.525 582.571c-3.712 10.325-38.784 11.605-47.147 5.589-10.155-7.339-4.267-42.453-4.267-53.973v-122.837c0-12.8 4.736-37.248-1.877-48.427-6.187-10.453-21.333-7.424-31.616-7.424 2.167-14.898 7.893-28.16 16.285-39.3l-0.157 0.218c6.072-2.743 13.165-4.341 20.631-4.341 18.533 0 34.767 9.847 43.753 24.595l0.128 0.226c3.929 13.131 6.19 28.221 6.19 43.838 0 6.851-0.435 13.601-1.279 20.223l0.082-0.786v119.125c1.263 8.844 1.984 19.058 1.984 29.441 0 11.943-0.954 23.664-2.79 35.090l0.166-1.256zM895.531 385.28c0 34.645 5.589 77.397-37.205 88.107-4.899 0.913-10.536 1.435-16.295 1.435-2.133 0-4.249-0.072-6.346-0.213l0.284 0.015c0 38.144 3.669 81.92-40.917 95.531-8.058 1.413-17.336 2.221-26.803 2.221-6.296 0-12.508-0.357-18.617-1.052l0.748 0.069v18.603h-52.139v-18.603h-33.493v-52.096h33.493v-44.672h-52.096v-52.224h52.096v-107.947h52.139v107.947h56.021c2.68 0.424 5.771 0.666 8.918 0.666 6.115 0 12.017-0.914 17.577-2.612l-0.426 0.112c8.193-9.289 13.194-21.564 13.194-35.006 0-9.232-2.359-17.912-6.506-25.472l0.138 0.275c-9.728-9.131-31.829-4.949-44.032-4.949 1.317-15.029 7.191-28.479 16.215-39.188l-0.087 0.106c5.205-3.755 15.061-1.877 21.077-1.877 19.285 0 41.216-2.219 54.613 14.891 6.232 11.748 9.891 25.685 9.891 40.476 0 5.434-0.494 10.752-1.439 15.913l0.082-0.538zM783.957 474.539h-33.493v44.757h33.493zM601.6 519.296h29.867v52.096h-115.2v-52.096h29.867v-156.331l-47.147-1.877-19.84-46.549h171.221v48.427h-48.768zM873.216 520.533c5.53 0.97 10.378 3.391 14.281 6.853l-0.030-0.026c30.251 33.237-30.336 65.621-42.667 25.6-1.201-6.34-1.887-13.633-1.887-21.086 0-4.37 0.236-8.685 0.696-12.933l-0.046 0.526c2.946-0.249 6.377-0.391 9.84-0.391 7.072 0 14.006 0.592 20.755 1.73l-0.728-0.101zM132.267 519.296l-11.179-122.837 22.357-59.733 25.6 44.672 15.488 137.728zM303.659 519.296c0-25.899 4.949-52.437 7.467-78.165 0.286-36.898 9.895-71.49 26.583-101.617l-0.556 1.094h7.467l22.315 55.851-11.136 122.837zM390.528 364.8l-19.84-50.261h81.877l18.603 48.384-52.096 1.237z" />
<glyph unicode="&#xe907;" glyph-name="Icon---PDF" d="M265.899 424.277c-2.491 1.166-5.385 1.97-8.429 2.254l-0.104 0.008c-3.115 0.299-6.059 0.469-8.917 0.469h-15.403v-32.555h20.181c0.065 0 0.141-0.001 0.218-0.001 2.704 0 5.339 0.296 7.874 0.856l-0.241-0.045c2.559 0.486 4.835 1.392 6.87 2.652l-0.086-0.049c2.011 1.262 3.64 2.958 4.785 4.966l0.036 0.069c1.188 2.168 1.886 4.749 1.886 7.494 0 0.186-0.003 0.37-0.010 0.554l0.001-0.027c0.014 0.227 0.022 0.492 0.022 0.759 0 2.918-0.936 5.617-2.523 7.814l0.027-0.039c-1.601 2.092-3.684 3.737-6.088 4.783l-0.099 0.038zM416.256 365.483c2.411 5.417 3.815 11.737 3.815 18.386 0 0.451-0.006 0.901-0.019 1.35l0.001-0.066c0.006 0.258 0.010 0.561 0.010 0.866 0 6.063-1.405 11.798-3.907 16.896l0.1-0.226c-2.474 4.941-5.901 9.065-10.072 12.27l-0.083 0.061c-4.276 3.176-9.284 5.664-14.698 7.177l-0.32 0.076c-5.341 1.544-11.476 2.433-17.819 2.433-0.111 0-0.221 0-0.331-0.001h-17.818v-81.408h15.701c0.158-0.001 0.344-0.002 0.531-0.002 6.71 0 13.239 0.778 19.501 2.249l-0.575-0.114c5.958 1.359 11.194 3.815 15.731 7.164l-0.115-0.081c4.425 3.392 7.944 7.745 10.28 12.761l0.088 0.21zM640 832h-384c-23.564 0-42.667-19.103-42.667-42.667v0-256h-85.333v-298.667h85.333v-128c0-23.564 19.103-42.667 42.667-42.667v0h512c23.564 0 42.667 19.103 42.667 42.667v0 554.667zM275.328 370.901c-5.898-1.276-12.673-2.007-19.619-2.007-0.198 0-0.395 0.001-0.593 0.002h-22.071v-53.461h-30.208v137.131h50.944c0.145 0.001 0.317 0.001 0.489 0.001 6.968 0 13.772-0.699 20.347-2.032l-0.654 0.111c6.266-1.223 11.825-3.557 16.725-6.805l-0.17 0.106c4.743-3.268 8.545-7.575 11.132-12.608l0.090-0.192c2.705-5.535 4.287-12.044 4.287-18.923 0-0.473-0.007-0.943-0.022-1.412l0.002 0.069c0.016-0.454 0.025-0.988 0.025-1.523 0-6.736-1.439-13.135-4.025-18.909l0.117 0.293c-2.457-5.211-6.070-9.522-10.528-12.734l-0.096-0.066c-4.59-3.283-10.018-5.731-15.886-6.989l-0.284-0.051zM725.333 149.333h-426.667v85.333h341.333v298.667h-341.333v213.333h298.667v-128h128zM324.907 315.435v137.131h45.355c0.233 0.002 0.509 0.002 0.785 0.002 10.823 0 21.334-1.339 31.375-3.86l-0.886 0.188c9.87-2.341 18.531-6.461 26.046-12.039l-0.19 0.135c7.411-5.591 13.346-12.742 17.384-20.991l0.152-0.343c4.114-8.78 6.514-19.066 6.514-29.913 0-0.719-0.011-1.435-0.031-2.149l0.002 0.105c0.009-0.415 0.015-0.904 0.015-1.394 0-10.159-2.319-19.776-6.457-28.352l0.17 0.391c-4.205-8.481-9.956-15.598-16.947-21.24l-0.119-0.093c-6.946-5.623-15.114-10.069-24.011-12.872l-0.522-0.142c-8.411-2.711-18.087-4.273-28.129-4.273-0.386 0-0.772 0.002-1.157 0.007l0.059-0.001zM560.512 396.8v-27.904h-57.045v-53.461h-30.251v137.131h92.075v-27.861h-61.824v-27.904z" />
<glyph unicode="&#xe908;" glyph-name="Icon---Download" d="M853.333 277.333c-23.564 0-42.667-19.103-42.667-42.667v0-85.333h-597.333v85.333c0 23.564-19.103 42.667-42.667 42.667s-42.667-19.103-42.667-42.667v0-128c0-23.564 19.103-42.667 42.667-42.667v0h682.667c23.564 0 42.667 19.103 42.667 42.667v0 128c0 23.564-19.103 42.667-42.667 42.667v0zM713.173 563.712c-7.523 7.576-17.945 12.266-29.461 12.266s-21.938-4.69-29.459-12.263l-0.002-0.002-99.584-99.925v325.547c0 23.564-19.103 42.667-42.667 42.667s-42.667-19.103-42.667-42.667v0-325.547l-99.584 99.968c-7.507 7.305-17.772 11.81-29.089 11.81-23.046 0-41.728-18.682-41.728-41.728 0-11.38 4.556-21.697 11.943-29.225l-0.006 0.007 171.691-172.331c7.523-7.576 17.945-12.266 29.461-12.266s21.938 4.69 29.459 12.263l0.002 0.002 171.648 172.373c7.524 7.579 12.175 18.020 12.175 29.547 0 11.506-4.633 21.929-12.135 29.507l0.003-0.003z" />
<glyph unicode="&#xe909;" glyph-name="Icon-Chevron-small" d="M476.757 284.8l-248.747 248.405c-9.029 8.975-14.618 21.403-14.618 35.136s5.589 26.161 14.615 35.134l0.002 0.002 0.512 0.597c9 9.026 21.448 14.611 35.2 14.611s26.2-5.585 35.199-14.61l212.908-212.822 213.333 212.821c8.968 9.027 21.389 14.614 35.115 14.614s26.147-5.587 35.112-14.612l0.003-0.003 0.683-0.597c9.029-8.975 14.618-21.403 14.618-35.136s-5.589-26.161-14.615-35.134l-0.002-0.002-248.405-247.851-0.256-0.597c-2.879-2.74-6.079-5.193-9.523-7.284l-0.248-0.14c-7.339-4.551-16.242-7.248-25.774-7.248-13.749 0-26.187 5.611-35.15 14.668l-0.004 0.004z" />
<glyph unicode="&#xe90a;" glyph-name="Icon-Minimize" horiz-adv-x="1023" d="M298.17 404.552c-23.525 0-42.596 19.071-42.596 42.596s19.071 42.596 42.596 42.596v0h425.957c23.525 0 42.596-19.071 42.596-42.596s-19.071-42.596-42.596-42.596v0z" />
<glyph unicode="&#xe90b;" glyph-name="Icon-AI" d="M255.403 86.699c-9.354 0.001-17.301 6.022-20.179 14.399l-0.045 0.15-28.672 85.333-85.333 28.672c-8.525 2.925-14.544 10.871-14.544 20.224s6.018 17.299 14.394 20.179l0.15 0.045 85.333 28.544 28.672 85.333c2.923 8.528 10.87 14.548 20.224 14.549v0c0.012 0 0.026 0 0.041 0 9.355 0 17.303-6.021 20.181-14.399l0.045-0.15 28.501-85.333 85.333-28.672c8.525-2.925 14.544-10.871 14.544-20.224s-6.018-17.299-14.394-20.179l-0.15-0.045-85.333-28.672-28.501-85.333c-2.923-8.528-10.871-14.549-20.226-14.549-0.014 0-0.029 0-0.043 0h0.002zM625.621 99.029c-0.008 0-0.017 0-0.026 0-9.371 0-17.33 6.041-20.196 14.442l-0.045 0.15-75.093 224.555-224.64 75.093c-8.525 2.925-14.544 10.871-14.544 20.224s6.018 17.299 14.394 20.179l0.15 0.045 224.683 75.221 75.093 224.555c2.906 8.559 10.869 14.607 20.245 14.607s17.34-6.049 20.201-14.457l0.044-0.15 75.093-224.555 224.555-75.221c8.525-2.925 14.544-10.871 14.544-20.224s-6.018-17.299-14.394-20.179l-0.15-0.045-224.512-75.093-75.093-224.555c-2.91-8.551-10.87-14.592-20.24-14.592-0.024 0-0.049 0-0.073 0h0.004zM255.403 513.365c-9.354 0.001-17.301 6.022-20.179 14.399l-0.045 0.15-28.672 85.333-85.333 28.672c-8.525 2.925-14.544 10.871-14.544 20.224s6.018 17.299 14.394 20.179l0.15 0.045 85.333 28.416 28.672 85.333c2.943 8.492 10.874 14.48 20.203 14.48s17.26-5.988 20.157-14.331l0.045-0.15 28.672-85.333 85.333-28.544c8.525-2.925 14.544-10.871 14.544-20.224s-6.018-17.299-14.394-20.179l-0.15-0.045-85.333-28.672-28.501-85.333c-2.91-8.551-10.87-14.592-20.24-14.592-0.009 0-0.019 0-0.028 0h0.001z" />
<glyph unicode="&#xe90c;" glyph-name="Icon-Add" d="M853.333 490.667h-298.667v298.667c0 23.564-19.103 42.667-42.667 42.667s-42.667-19.103-42.667-42.667v0-298.667h-298.667c-23.564 0-42.667-19.103-42.667-42.667s19.103-42.667 42.667-42.667v0h298.667v-298.667c0-23.564 19.103-42.667 42.667-42.667s42.667 19.103 42.667 42.667v0 298.667h298.667c23.564 0 42.667 19.103 42.667 42.667s-19.103 42.667-42.667 42.667v0z" />
<glyph unicode="&#xe90d;" glyph-name="Icon-Info" d="M85.333 448c0 235.641 191.025 426.667 426.667 426.667s426.667-191.025 426.667-426.667c0-235.641-191.025-426.667-426.667-426.667v0c-235.641 0-426.667 191.025-426.667 426.667v0zM170.667 448c0-188.513 152.82-341.333 341.333-341.333s341.333 152.82 341.333 341.333c0 188.513-152.82 341.333-341.333 341.333v0c-188.445-0.17-341.164-152.889-341.333-341.317v-0.016zM469.333 277.333v213.333c0 23.564 19.103 42.667 42.667 42.667s42.667-19.103 42.667-42.667v0-213.333c0-23.564-19.103-42.667-42.667-42.667s-42.667 19.103-42.667 42.667v0zM469.333 618.667c0 23.564 19.103 42.667 42.667 42.667s42.667-19.103 42.667-42.667c0-23.564-19.103-42.667-42.667-42.667v0c-23.564 0-42.667 19.103-42.667 42.667v0z" />
<glyph unicode="&#xe90e;" glyph-name="Icon-Alert" d="M893.781 171.691l-343.723 595.328c-7.515 12.842-21.241 21.331-36.949 21.331s-29.435-8.489-36.84-21.13l-0.109-0.201-343.893-595.328c-3.594-6.12-5.716-13.479-5.716-21.333 0-23.564 19.102-42.666 42.665-42.667h687.616c23.564 0.001 42.666 19.103 42.666 42.667 0 7.855-2.123 15.214-5.825 21.535l0.109-0.201zM510.421 236.715v0c-23.564 0-42.667 19.103-42.667 42.667s19.103 42.667 42.667 42.667c23.564 0 42.667-19.103 42.667-42.667v0c0-23.564-19.103-42.667-42.667-42.667v0zM553.088 405.248c0-23.564-19.103-42.667-42.667-42.667s-42.667 19.103-42.667 42.667v0 126.72c0 23.564 19.103 42.667 42.667 42.667s42.667-19.103 42.667-42.667v0z" />
<glyph unicode="&#xe90f;" glyph-name="Icon-Star" d="M531.925 819.925l97.664-248.448 266.411-16.128c11.326-0.57 20.293-9.892 20.293-21.308 0-6.701-3.089-12.68-7.922-16.591l-0.040-0.031-206.037-169.643 67.029-258.432c0.468-1.667 0.737-3.582 0.737-5.559 0-11.782-9.551-21.333-21.333-21.333-4.337 0-8.372 1.294-11.739 3.518l0.080-0.049-225.067 143.573-225.067-143.573c-3.288-2.174-7.322-3.468-11.66-3.468-11.782 0-21.333 9.551-21.333 21.333 0 1.977 0.269 3.892 0.772 5.709l-0.035-0.15 67.029 258.432-206.123 169.643c-4.87 3.942-7.957 9.92-7.957 16.619 0 11.444 9.012 20.784 20.326 21.31l0.047 0.002 266.496 16.128 97.664 248.448c3.156 8.087 10.884 13.712 19.925 13.712s16.77-5.625 19.875-13.566l0.050-0.145z" />
<glyph unicode="&#xe910;" glyph-name="Icon-Chevron-Large" d="M713.387 476.715l-345.003 343.381c-7.402 7.353-17.602 11.898-28.864 11.898s-21.462-4.545-28.866-11.9l0.002 0.002c-7.39-7.338-11.965-17.503-11.965-28.736s4.574-21.398 11.962-28.734l0.002-0.002 316.117-314.624-316.117-314.667c-7.388-7.331-11.961-17.489-11.961-28.715s4.573-21.384 11.958-28.712l0.003-0.003c7.402-7.353 17.602-11.898 28.864-11.898s21.462 4.545 28.866 11.9l-0.002-0.002 345.003 343.339c7.39 7.338 11.965 17.503 11.965 28.736s-4.574 21.398-11.962 28.734l-0.002 0.002z" />
<glyph unicode="&#xe911;" glyph-name="Icon-Cycle" d="M853.333 448c-23.564 0-42.667-19.103-42.667-42.667v0c0-0.107 0-0.233 0-0.359 0-164.949-133.718-298.667-298.667-298.667s-298.667 133.718-298.667 298.667c0 158.404 123.317 288.006 279.186 298.042l0.878 0.045-11.563-11.563c-8.036-7.769-13.026-18.647-13.026-30.69 0-23.564 19.103-42.667 42.667-42.667 12.043 0 22.92 4.989 30.678 13.014l85.345 85.345c7.718 7.721 12.492 18.386 12.492 30.165s-4.774 22.445-12.492 30.165l-85.333 85.333c-7.665 7.41-18.12 11.977-29.641 11.977-23.564 0-42.667-19.103-42.667-42.667 0-11.521 4.567-21.976 11.989-29.653l13.343-13.343c-204.463-9.384-366.677-177.431-366.677-383.364 0-211.936 171.808-383.744 383.744-383.744s383.744 171.808 383.744 383.744c0 0.077 0 0.153 0 0.23v-0.012c0 23.564-19.103 42.667-42.667 42.667v0z" />
<glyph unicode="&#xe912;" glyph-name="Icon-Cross-Solid" d="M512 874.667c-235.641 0-426.667-191.025-426.667-426.667s191.025-426.667 426.667-426.667c235.641 0 426.667 191.025 426.667 426.667v0c0 235.641-191.025 426.667-426.667 426.667v0zM697.557 262.443v0c-7.721-7.718-18.386-12.492-30.165-12.492s-22.445 4.774-30.165 12.492l-125.227 125.184-125.483-125.483c-7.665-7.41-18.12-11.977-29.641-11.977-23.564 0-42.667 19.103-42.667 42.667 0 11.521 4.567 21.976 11.989 29.653l125.471 125.513-125.483 125.483c-7.41 7.665-11.977 18.12-11.977 29.641 0 23.564 19.103 42.667 42.667 42.667 11.521 0 21.976-4.567 29.653-11.989l125.471-125.471 125.227 125.184c7.665 7.41 18.12 11.977 29.641 11.977 23.564 0 42.667-19.103 42.667-42.667 0-11.521-4.567-21.976-11.989-29.653l-125.172-125.172 125.184-125.227c7.718-7.721 12.492-18.386 12.492-30.165s-4.774-22.445-12.492-30.165v0z" />
<glyph unicode="&#xe913;" glyph-name="Icon_Tick-Solid" d="M512 874.667c-235.641 0-426.667-191.025-426.667-426.667s191.025-426.667 426.667-426.667c235.641 0 426.667 191.025 426.667 426.667v0c0 235.641-191.025 426.667-426.667 426.667v0zM442.411 243.541l-128.981 88.704c-11.602 7.75-19.14 20.792-19.14 35.594 0 23.564 19.103 42.667 42.667 42.667 9.33 0 17.96-2.995 24.982-8.075l-0.125 0.086 94.080-64.896 200.832 286.805c7.812 11.102 20.57 18.267 35.002 18.267 9.275 0 17.859-2.96 24.859-7.986l-0.128 0.087c10.981-7.824 18.057-20.513 18.057-34.854 0-9.173-2.895-17.671-7.821-24.628l0.089 0.133-225.28-321.152c-7.818-11.045-20.543-18.167-34.932-18.167-9.031 0-17.406 2.806-24.302 7.593l0.141-0.092z" />
<glyph unicode="&#xe914;" glyph-name="Icon-Hourglass" d="M853.333 149.333h-42.667v42.667c-0.039 108.256-57.75 203.023-144.076 255.252l-1.332 0.748c87.664 52.971 145.378 147.742 145.408 255.996v42.671h42.667c23.564 0 42.667 19.103 42.667 42.667s-19.103 42.667-42.667 42.667v0h-682.667c-23.564 0-42.667-19.103-42.667-42.667s19.103-42.667 42.667-42.667v0h42.667v-42.667c0.030-108.258 57.744-203.029 144.075-255.252l1.333-0.748c-87.658-52.977-145.369-147.744-145.408-255.994v-42.673h-42.667c-23.564 0-42.667-19.103-42.667-42.667s19.103-42.667 42.667-42.667v0h682.667c23.564 0 42.667 19.103 42.667 42.667s-19.103 42.667-42.667 42.667v0zM725.333 746.667v-42.667c-0.032-30.892-6.673-60.224-18.586-86.67l0.538 1.337h-390.528c-11.388 25.106-18.044 54.437-18.091 85.317v42.684zM576.811 287.061c-15.743 18.289-38.922 29.798-64.789 29.798s-49.046-11.509-64.695-29.687l-0.094-0.112-118.059-137.728h-30.507v42.667c0.203 102.921 73.141 188.748 170.136 208.827l1.384 0.239c1.751-21.711 19.802-38.667 41.813-38.667s40.062 16.956 41.804 38.519l0.010 0.149c98.379-20.318 171.317-106.145 171.52-209.044v-42.689h-30.464z" />
<glyph unicode="&#xe915;" glyph-name="Icon_External" d="M892.715 805.632c-4.423 10.484-12.598 18.66-22.803 22.977l-0.28 0.105c-4.814 2.051-10.412 3.256-16.288 3.285h-170.678c-23.564 0-42.667-19.103-42.667-42.667s19.103-42.667 42.667-42.667v0h67.669l-281.003-281.003c-7.41-7.665-11.977-18.12-11.977-29.641 0-23.564 19.103-42.667 42.667-42.667 11.521 0 21.976 4.567 29.653 11.989l280.991 280.991v-67.669c0-23.564 19.103-42.667 42.667-42.667s42.667 19.103 42.667 42.667v0 170.667c-0.006 5.885-1.214 11.486-3.39 16.574l0.105-0.276zM770.005 490.667h-3.968c-22.465 0-40.68-18.2-40.704-40.659v-300.674h-512v512h300.672c22.457 0 40.661 18.205 40.661 40.661v4.011c0 22.457-18.205 40.661-40.661 40.661v0h-345.301c-22.465 0-40.68-18.2-40.704-40.659v-599.341c0-23.564 19.103-42.667 42.667-42.667v0h599.339c22.457 0 40.661 18.205 40.661 40.661v0 345.344c0 22.457-18.205 40.661-40.661 40.661v0z" />
<glyph unicode="&#xe916;" glyph-name="Icon_Email" d="M810.667 746.667h-597.333c-47.070-0.145-85.188-38.264-85.333-85.319v-426.681c0.145-47.070 38.264-85.188 85.319-85.333h597.347c47.070 0.145 85.188 38.264 85.333 85.319v426.681c-0.145 47.070-38.264 85.188-85.319 85.333h-0.014zM750.933 661.333l-238.933-238.933-238.933 238.933zM213.333 234.667v366.933l238.933-238.933c15.052-15.789 36.246-25.606 59.733-25.606s44.681 9.818 59.702 25.573l0.031 0.033 238.933 238.933v-366.933z" />
<glyph unicode="&#xe917;" glyph-name="Icon-Pin" d="M512 746.667c117.762-0.146 213.188-95.571 213.333-213.319v-0.014c0-170.965-147.541-327.211-213.333-374.741-65.792 47.488-213.333 203.733-213.333 374.741 0.146 117.762 95.571 213.188 213.319 213.333h0.014zM512 832v0c-164.949 0-298.667-133.718-298.667-298.667v0 0c0-256 256-469.333 298.667-469.333v0c42.667 0 298.667 213.333 298.667 469.333v0c0 164.949-133.718 298.667-298.667 298.667v0zM597.333 533.333c0-47.128-38.205-85.333-85.333-85.333s-85.333 38.205-85.333 85.333c0 47.128 38.205 85.333 85.333 85.333s85.333-38.205 85.333-85.333z" />
<glyph unicode="&#xe918;" glyph-name="Icon_Copy" d="M810.667 832h-426.667c-47.128 0-85.333-38.205-85.333-85.333v0-85.333h-85.333c-47.128 0-85.333-38.205-85.333-85.333v0-426.667c0-47.128 38.205-85.333 85.333-85.333v0h426.667c47.128 0 85.333 38.205 85.333 85.333v0 85.333h85.333c47.128 0 85.333 38.205 85.333 85.333v0 426.667c0 47.128-38.205 85.333-85.333 85.333v0zM640 149.333h-426.667v426.667h426.667v-426.667zM725.333 320v256c0 47.128-38.205 85.333-85.333 85.333v0h-256v85.333h426.667v-426.667z" />
<glyph unicode="&#xe919;" glyph-name="Icon_Phone" d="M718.507 832h-413.013c-50.899 0-92.16-41.261-92.16-92.16v0-583.68c0-50.899 41.261-92.16 92.16-92.16v0h413.013c50.899 0 92.16 41.261 92.16 92.16v0 583.68c0 50.899-41.261 92.16-92.16 92.16v0zM725.333 156.16c0-3.77-3.056-6.827-6.827-6.827v0h-413.013c-3.77 0-6.827 3.056-6.827 6.827v0 583.68c0 3.77 3.056 6.827 6.827 6.827v0h413.013c3.77 0 6.827-3.056 6.827-6.827v0zM576 704h-128c-11.782 0-21.333-9.551-21.333-21.333v0c0-11.782 9.551-21.333 21.333-21.333v0h128c11.782 0 21.333 9.551 21.333 21.333v0c0 11.782-9.551 21.333-21.333 21.333v0zM554.667 234.667c0-23.564-19.103-42.667-42.667-42.667s-42.667 19.103-42.667 42.667c0 23.564 19.103 42.667 42.667 42.667s42.667-19.103 42.667-42.667z" />
<glyph unicode="&#xe91a;" glyph-name="Icon-Search" d="M883.2 136.533l-179.2 183.467c39.938 51.219 64.035 116.493 64.035 187.395 0 1.619-0.013 3.236-0.038 4.849l0.003-0.243c-1.319 176.198-143.802 318.681-319.874 319.999l-0.126 0.001c-176.198-1.319-318.681-143.802-319.999-319.874l-0.001-0.126c0-176.731 143.269-320 320-320 72.401 0 139.185 24.044 192.805 64.583l-0.805-0.583 183.467-183.467c7.746-7.064 18.094-11.39 29.453-11.39 24.177 0 43.776 19.599 43.776 43.776 0 12.42-5.172 23.632-13.48 31.599l-0.015 0.015zM213.333 512c0 129.603 105.064 234.667 234.667 234.667s234.667-105.064 234.667-234.667c0-129.603-105.064-234.667-234.667-234.667v0c-129.129 1.171-233.495 105.538-234.666 234.555l-0.001 0.112z" />
<glyph unicode="&#xe91b;" glyph-name="Icon-Arrow" d="M473.6 840.533c-7.889-7.529-12.794-18.125-12.794-29.867s4.905-22.338 12.777-29.851l0.016-0.015 285.867-290.133h-588.8c-23.564 0-42.667-19.103-42.667-42.667s19.103-42.667 42.667-42.667v0h588.8l-285.867-285.867c-7.465-7.613-12.072-18.051-12.072-29.565 0-23.329 18.911-42.24 42.24-42.24 11.514 0 21.952 4.607 29.572 12.078l358.393 358.393c7.889 7.529 12.794 18.125 12.794 29.867s-4.905 22.338-12.777 29.851l-0.016 0.015-358.4 358.4c-7.024 10.057-18.543 16.553-31.58 16.553-11.111 0-21.12-4.719-28.132-12.262l-0.022-0.024z" />
<glyph unicode="&#xe91c;" glyph-name="Icon---Lang" d="M470.997 404.565v137.984c-0.019 1.325-0.030 2.889-0.030 4.455 0 12.047 0.646 23.942 1.906 35.654l-0.127-1.453 1.408 13.227-13.355-1.365c-10.196-1.121-22.019-1.76-33.991-1.76-2.090 0-4.176 0.019-6.258 0.058l0.313-0.005h-113.152v18.773c-0.022 1.407-0.035 3.068-0.035 4.732 0 14.593 0.974 28.959 2.861 43.036l-0.18-1.645 1.536 12.032h-81.493l1.877-12.288c1.633-11.392 2.565-24.549 2.565-37.922 0-3.499-0.064-6.983-0.19-10.451l0.015 0.501v-17.067h-108.16c-0.697-0.005-1.521-0.008-2.345-0.008-13.122 0-26.074 0.731-38.816 2.155l1.566-0.142-12.8 1.323 1.195-12.8c1.15-10.572 1.806-22.834 1.806-35.25 0-1.108-0.005-2.214-0.016-3.319l0.001 0.169v-138.453c0.028-1.612 0.045-3.513 0.045-5.417 0-13.578-0.822-26.964-2.42-40.111l0.157 1.581-1.451-11.947h75.904v27.179h85.333v-81.067c0.035-1.921 0.055-4.187 0.055-6.458 0-17.007-1.121-33.753-3.293-50.167l0.208 1.926-1.621-12.075h82.347l-1.707 12.16c-2.016 13.986-3.166 30.137-3.166 46.557 0 2.833 0.034 5.658 0.102 8.474l-0.008-0.418v81.067h90.965v-27.179h76.245l-1.664 12.117c-1.412 10.997-2.217 23.718-2.217 36.628 0 2.513 0.031 5.020 0.091 7.518l-0.007-0.37zM307.712 522.069h90.837v-76.8h-90.837zM234.667 445.099h-85.333v76.8h85.333zM940.971 305.067c-62.345 12.444-117.413 37.182-164.913 71.701l1.201-0.832c17.273 20.413 32.961 43.247 46.248 67.579l1.069 2.138c13.878 24.516 25.549 52.89 33.548 82.766l0.585 2.568h15.957c1.254 0.012 2.735 0.019 4.219 0.019 17.542 0 34.858-0.968 51.898-2.853l-2.1 0.189 11.819-1.323v75.221l-12.075-1.621c-14.847-1.985-32.013-3.118-49.443-3.118-2.118 0-4.232 0.017-6.342 0.050l0.318-0.004h-115.883v21.845c-0.016 0.8-0.025 1.744-0.025 2.689 0 10.421 1.081 20.589 3.137 30.398l-0.168-0.96 2.773 12.8h-83.883l2.816-12.8c1.893-8.847 2.976-19.012 2.976-29.43 0-1.084-0.012-2.165-0.035-3.243l0.003 0.161v-21.333h-109.696c-1.736-0.028-3.784-0.043-5.835-0.043-17.391 0-34.518 1.132-51.311 3.327l1.978-0.211-12.075 1.451v-75.221l11.819 1.323c15.29 1.691 33.020 2.655 50.975 2.655 1.085 0 2.168-0.004 3.251-0.011l-0.167 0.001h13.568c10.536-34.22 23.84-63.901 40.231-91.536l-1.063 1.936c14.606-24.912 30.216-46.459 47.653-66.367l-0.421 0.49c-46.739-34.718-102.125-60.792-162.194-74.604l-2.969-0.575-15.659-4.267 10.155-12.8c11.043-13.136 20.278-28.29 27.022-44.729l0.413-1.138 3.797-9.173 9.429 3.157c38.405 12.307 70.792 25.722 101.836 41.408l-3.959-1.814c31.924 16.741 59.398 34.881 84.859 55.418l-0.976-0.762c50.64-40.997 110.378-73.132 175.498-92.9l3.702-0.966 9.429-3.115 3.755 9.259c6.97 19.334 16.984 35.982 29.622 50.252l-0.14-0.161 11.349 13.397zM782.677 530.944c-6.947-23.244-15.798-43.427-26.753-62.235l0.726 1.35c-10.107-17.568-20.744-32.719-32.576-46.833l0.406 0.497c-12.224 13.611-23.485 28.631-33.356 44.601l-0.777 1.351c-11 17.58-20.696 37.827-28.043 59.168l-0.629 2.102z" />
<glyph unicode="&#xe91d;" glyph-name="Icon-Clock" d="M512 874.667c-235.641 0-426.667-191.025-426.667-426.667s191.025-426.667 426.667-426.667c235.641 0 426.667 191.025 426.667 426.667v0c0 235.641-191.025 426.667-426.667 426.667v0zM512 106.667c-188.513 0-341.333 152.82-341.333 341.333s152.82 341.333 341.333 341.333c188.513 0 341.333-152.82 341.333-341.333v0c-0.218-188.425-152.908-341.115-341.312-341.333h-0.021zM640 490.667h-85.333v170.667c0 23.564-19.103 42.667-42.667 42.667s-42.667-19.103-42.667-42.667v0-213.333c0-23.564 19.103-42.667 42.667-42.667v0h128c23.564 0 42.667 19.103 42.667 42.667s-19.103 42.667-42.667 42.667v0z" />
<glyph unicode="&#xe91e;" glyph-name="Icon-Social-WC" d="M879.189 187.179c53.977 36.781 89.453 97.25 91.386 166.11l0.006 0.29c0 121.685-118.357 220.288-264.533 220.288s-264.533-98.603-264.533-220.288 118.357-220.331 264.533-220.331c0.057 0 0.124 0 0.192 0 30.676 0 60.321 4.41 88.337 12.632l-2.214-0.557 7.723 1.195c5.224-0.152 10.052-1.721 14.15-4.334l-0.112 0.067 57.899-33.408 5.077-1.664c4.878 0 8.832 3.954 8.832 8.832v0l-1.408 6.443-11.947 44.416-0.939 5.675c-0.001 0.065-0.001 0.141-0.001 0.217 0 5.951 2.964 11.209 7.497 14.38l0.057 0.038zM410.027 817.323c-175.189 0-317.269-118.357-317.269-264.533 2.23-83.064 44.818-155.726 108.792-199.339l0.861-0.554c5.372-3.84 8.841-10.045 8.875-17.061v-0.005l-1.109-6.699-14.293-53.333-1.707-7.723c0-0.013 0-0.028 0-0.043 0-5.844 4.737-10.581 10.581-10.581 0 0 0 0 0 0v0l6.144 1.963 69.419 40.107c4.861 3.016 10.748 4.82 17.055 4.864h0.012l9.301-1.408c30.95-9.181 66.511-14.464 103.306-14.464 0.102 0 0.203 0 0.305 0h-0.016l17.408 0.427c-6.723 19.302-10.625 41.551-10.667 64.706v0.019c0 133.205 129.579 241.195 289.365 241.195l17.067-0.427c-23.936 126.293-155.136 222.891-313.429 222.891zM618.027 388.992c-19.464 0-35.243 15.779-35.243 35.243v0c0 0.013 0 0.028 0 0.043 0 19.44 15.76 35.2 35.2 35.2 0.015 0 0.030 0 0.045 0h-0.002c0.013 0 0.028 0 0.043 0 19.44 0 35.2-15.76 35.2-35.2 0-0.015 0-0.030 0-0.045v0.002c0-19.464-15.779-35.243-35.243-35.243v0zM794.283 388.992c-19.464 0-35.243 15.779-35.243 35.243v0c0 0.013 0 0.028 0 0.043 0 19.44 15.76 35.2 35.2 35.2 0.015 0 0.030 0 0.045 0h-0.002c0.013 0 0.028 0 0.043 0 19.44 0 35.2-15.76 35.2-35.2 0-0.015 0-0.030 0-0.045v0.002c0-19.449-15.754-35.218-35.198-35.243h-0.002zM304.256 595.243c-23.352 0-42.283 18.931-42.283 42.283v0c0 0.013 0 0.028 0 0.043 0 23.352 18.931 42.283 42.283 42.283v0c0.013 0 0.028 0 0.043 0 23.352 0 42.283-18.931 42.283-42.283 0-0.015 0-0.030 0-0.045v0.002c0-23.352-18.931-42.283-42.283-42.283-0.015 0-0.030 0-0.045 0h0.002zM515.755 595.243c-23.352 0-42.283 18.931-42.283 42.283v0c0 0.013 0 0.028 0 0.043 0 23.352 18.931 42.283 42.283 42.283v0c0.013 0 0.028 0 0.043 0 23.376 0 42.325-18.95 42.325-42.325v0c-0.024-23.357-18.965-42.283-42.325-42.283 0 0 0 0 0 0v0z" />
<glyph unicode="&#xe91f;" glyph-name="Icon-Social-YK" d="M735.957 268.16l-1.024 0.597zM261.248 353.365c-46.677-27.296-77.534-77.174-77.534-134.258 0-28.55 7.719-55.298 21.183-78.27l-0.396 0.731c27.284-46.685 77.159-77.55 134.243-77.55 28.558 0 55.311 7.725 78.285 21.199l-0.73-0.396 318.464 183.851-355.755 152.704zM792.619 582.955c-9.318 11.988-20.404 22.069-32.968 30.025l-0.525 0.311-342.827 197.888c-22.241 13.069-48.989 20.787-77.539 20.787-57.085 0-106.962-30.857-133.862-76.802l-0.396-0.732c-13.069-22.241-20.787-48.989-20.787-77.539 0-57.085 30.857-106.962 76.802-133.862l0.732-0.396 473.813-273.835 24.192 13.952c13.089 8.267 24.175 18.348 33.278 30.048l0.216 0.288c29.628 36.387 47.574 83.313 47.574 134.43 0 0.169 0 0.339-0.001 0.508v-0.026c0 0.109 0 0.238 0 0.367 0 51.189-17.996 98.174-48.008 134.975l0.306-0.387z" />
<glyph unicode="&#xe920;" glyph-name="Icon-Social-YT" d="M897.109 618.24c-6.749 35.349-22.576 66.226-44.951 91.093l0.151-0.171c-17.664 16.299-54.272 20.352-336.683 20.352s-319.061-4.267-336.64-20.352c-22.282-24.66-38.11-55.557-44.575-89.765l-0.182-1.158c-8.527-48.875-13.487-105.247-13.653-162.747v-0.155c0-153.6 27.093-229.419 62.421-255.232s332.8-18.987 332.8-18.987 297.301-6.784 332.8 18.987 62.421 101.845 62.421 255.232c-0.32 57.768-5.366 114.118-14.771 168.98l0.862-6.078zM435.541 310.101v290.517l222.592-145.067z" />
<glyph unicode="&#xe921;" glyph-name="Icon-Social-LI" d="M756.096 74.325v270.635c0 30.421 6.997 123.392-91.093 123.392s-91.989-122.667-91.989-122.667v-271.317h-163.243v525.653h157.184v-74.496c42.155 69.12 121.771 108.075 242.901 74.496s110.933-240.725 110.933-240.725v-284.971zM143.275 74.325v525.653h163.755v-525.653zM131.115 766.464c0.073 52.304 42.491 94.677 94.805 94.677 52.36 0 94.805-42.446 94.805-94.805s-42.446-94.805-94.805-94.805c-0.045 0-0.090 0-0.135 0h0.007c-0.025 0-0.056 0-0.086 0-52.242 0-94.592 42.35-94.592 94.592 0 0.12 0 0.24 0.001 0.36v-0.018z" />
<glyph unicode="&#xe922;" glyph-name="Icon-Profile_Add" d="M895.744 279.040h-85.333v85.333c0 23.564-19.103 42.667-42.667 42.667s-42.667-19.103-42.667-42.667v0-85.333h-85.333c-23.564 0-42.667-19.103-42.667-42.667s19.103-42.667 42.667-42.667v0h85.333v-85.333c0-23.564 19.103-42.667 42.667-42.667s42.667 19.103 42.667 42.667v0 85.333h85.333c23.564 0 42.667 19.103 42.667 42.667s-19.103 42.667-42.667 42.667v0zM675.456 366.208c2.318 5.092 3.669 11.043 3.669 17.309 0 17.309-10.307 32.21-25.117 38.902l-0.269 0.109c-9.708 4.076-22.26 8.44-35.094 12.142l-2.666 0.658c65.579 37.238 109.099 106.604 109.099 186.135 0 117.821-95.513 213.333-213.333 213.333s-213.333-95.513-213.333-213.333c0-79.531 43.52-148.897 108.044-185.583l1.054-0.552c-147.274-42.602-256.723-167.117-276.615-319.771l-0.206-1.935c-0.185-1.498-0.291-3.233-0.291-4.992 0-23.706 19.217-42.923 42.923-42.923 0.012 0 0.025 0 0.037 0h-0.002c0.021 0 0.046 0 0.071 0 21.479 0 39.213 16.031 41.89 36.781l0.022 0.211c19.022 148.278 144.45 261.707 296.371 261.707 27.679 0 54.479-3.765 79.915-10.812l-2.099 0.496c12.305-3.309 22.345-6.69 32.124-10.587l-1.958 0.689c4.992-2.245 10.821-3.552 16.955-3.552 17.303 0 32.176 10.404 38.705 25.297l0.106 0.271zM511.744 492.373c-70.692 0-128 57.308-128 128s57.308 128 128 128c70.692 0 128-57.308 128-128v0c0-70.692-57.308-128-128-128v0z" />
<glyph unicode="&#xe923;" glyph-name="Icon-Social-FB" d="M274.347 571.989h121.515v112.64c-0.028 1.188-0.044 2.588-0.044 3.992 0 48.862 19.395 93.195 50.906 125.719l-0.046-0.048c55.893 55.893 131.072 50.517 238.165 41.259v-125.909h-79.189c-0.586 0.017-1.276 0.027-1.968 0.027-17.957 0-34.385-6.549-47.025-17.388l0.097 0.081c-8.863-12.051-14.183-27.184-14.183-43.56 0-2.239 0.099-4.454 0.294-6.643l-0.020 0.283v-90.453h137.259l-17.493-140.075h-120.533v-360.747h-145.664v361.472h-122.069z" />
<glyph unicode="&#xe924;" glyph-name="Icon-Social-IG" d="M363.776 40.619c-34.602 0.728-67.435 7.379-97.827 18.973l1.998-0.669c-27.368 10.559-50.71 26.046-69.998 45.55l-0.018 0.018c-19.554 19.254-35.003 42.616-44.954 68.693l-0.443 1.323c-11.012 28.379-17.737 61.205-18.511 95.499l-0.006 0.33c-1.92 42.197-2.432 55.467-2.432 162.901s0.512 120.704 2.432 162.901c0.78 34.625 7.505 67.45 19.189 97.814l-0.671-1.985c20.863 53.278 62.185 94.67 114.049 115.152l1.364 0.475c28.474 10.948 61.399 17.601 95.785 18.299l0.3 0.005c41.899 1.92 55.467 2.432 162.688 2.432s120.917-0.512 162.901-2.432c34.613-0.687 67.451-7.437 97.773-19.225l-1.943 0.665c27.399-10.378 50.762-25.814 69.993-45.331l0.023-0.023c19.522-19.306 35.009-42.648 45.11-68.676l0.458-1.34c10.947-28.398 17.587-61.239 18.257-95.542l0.004-0.287c2.005-42.197 2.517-55.467 2.517-162.901s-0.512-120.704-2.517-162.901c-0.708-34.596-7.344-67.432-18.93-97.826l0.668 1.997c-21.057-53.197-62.387-94.527-114.213-115.104l-1.371-0.48c-28.394-10.933-61.228-17.585-95.523-18.299l-0.307-0.005c-42.24-1.963-55.467-2.475-162.901-2.475s-120.789 0.512-162.944 2.475zM367.189 754.901c-26.472-0.474-51.645-5.424-74.992-14.121l1.563 0.51c-17.837-6.743-33.045-16.793-45.551-29.508l-0.017-0.017c-12.726-12.488-22.72-27.711-29.037-44.722l-0.275-0.846c-8.421-21.713-13.382-46.837-13.568-73.095v-0.078c-2.005-41.728-2.517-54.144-2.517-159.744s0.512-118.059 2.517-159.488c0.163-26.422 5.126-51.637 14.059-74.883l-0.491 1.453c6.538-17.81 16.558-32.976 29.322-45.323l0.033-0.032c12.504-12.862 27.712-23.025 44.714-29.577l0.854-0.29c21.804-8.244 47.006-13.133 73.315-13.396l0.114-0.001c41.685-1.963 54.101-2.475 159.488-2.475s118.016 0.512 159.744 2.475c26.398 0.292 51.567 5.179 74.866 13.896l-1.522-0.499c34.525 13.667 61.332 40.529 74.613 74.204l0.309 0.89c8.314 21.706 13.29 46.805 13.652 73.018l0.002 0.155c1.92 41.728 2.176 54.187 2.176 159.744s-0.256 117.803-2.176 159.488c-0.367 26.458-5.342 51.644-14.156 74.945l0.503-1.515c-6.654 17.862-16.703 33.083-29.459 45.545l-0.024 0.023c-12.509 12.754-27.722 22.809-44.714 29.242l-0.854 0.284c-21.706 8.189-46.791 13.139-72.969 13.608l-0.205 0.003c-41.771 1.707-54.187 2.219-159.744 2.219s-117.931-0.384-159.573-2.091zM323.755 433.237c0 112.071 90.852 202.923 202.923 202.923s202.923-90.852 202.923-202.923c0-112.071-90.852-202.923-202.923-202.923v0c-112.042 0.073-202.85 90.881-202.923 202.916v0.007zM394.923 433.237c0-72.743 58.969-131.712 131.712-131.712s131.712 58.969 131.712 131.712c0 72.727-58.945 131.688-131.667 131.712h-0.002c-72.732-0.049-131.682-58.984-131.755-131.705v-0.007zM690.261 644.181c0.122 26.040 21.26 47.102 47.317 47.102 26.133 0 47.317-21.185 47.317-47.317s-21.185-47.317-47.317-47.317c-0.135 0-0.27 0.001-0.404 0.002h0.021c-25.957 0.169-46.935 21.25-46.935 47.231 0 0.12 0 0.241 0.001 0.361v-0.018z" />
<glyph unicode="&#xe925;" glyph-name="uniE925" d="M512 960c282.77 0 512-229.23 512-512s-229.23-512-512-512c-282.77 0-512 229.23-512 512s229.23 512 512 512z" />
<glyph unicode="&#xe926;" glyph-name="uniE926" d="M512 949.333c276.879 0 501.333-224.455 501.333-501.333s-224.455-501.333-501.333-501.333c-276.879 0-501.333 224.455-501.333 501.333s224.455 501.333 501.333 501.333z" />
<glyph unicode="&#xe927;" glyph-name="uniE927" d="M494.421 366.443l-124.416 124.181c-4.516 4.491-7.311 10.708-7.311 17.579s2.795 13.088 7.31 17.578l0.001 0.001 0.256 0.384c4.526 4.44 10.732 7.18 17.579 7.18s13.053-2.74 17.583-7.184l-0.004 0.004 106.667-106.496 106.496 106.368c4.5 4.495 10.715 7.275 17.579 7.275s13.078-2.78 17.579-7.275v0l0.384-0.256c4.495-4.5 7.275-10.715 7.275-17.579s-2.78-13.078-7.275-17.579v0l-124.459-124.181c-4.498-4.5-10.713-7.284-17.579-7.284s-13.081 2.784-17.579 7.284v0z" />
<glyph unicode="&#xe928;" glyph-name="Button-Expand" d="M660.907 618.667l-127.061-0.256c-12.038-0.048-21.785-9.788-21.845-21.818v-0.006c0-0.025 0-0.055 0-0.086 0-11.971 9.704-21.675 21.675-21.675 0.030 0 0.060 0 0.090 0h-0.005l105.259 0.192-0.192-105.259c0.379-11.744 9.991-21.121 21.792-21.121s21.413 9.376 21.791 21.086l0.001 0.035 0.256 127.147c0 0.025 0 0.055 0 0.086 0 11.971-9.704 21.675-21.675 21.675-0.030 0-0.060 0-0.090 0h0.005zM363.093 277.333l127.061 0.256c12.038 0.048 21.785 9.788 21.845 21.818v0.006c0 0.025 0 0.055 0 0.086 0 11.971-9.704 21.675-21.675 21.675-0.030 0-0.060 0-0.090 0h0.005l-105.259-0.192 0.192 105.259c-0.379 11.744-9.991 21.121-21.792 21.121s-21.413-9.376-21.791-21.086l-0.001-0.035-0.256-127.147c0-0.025 0-0.055 0-0.086 0-11.971 9.704-21.675 21.675-21.675 0.030 0 0.060 0 0.090 0h-0.005zM350.059 316.224l297.701 297.701 30.17-30.17-297.701-297.701-30.17 30.17z" />
<glyph unicode="&#xe929;" glyph-name="Icon-Home" d="M786.901 430.251v-302.549c0-11.782-9.551-21.333-21.333-21.333v0h-146.901c-11.782 0-21.333 9.551-21.333 21.333v0 213.632c0 11.782-9.551 21.333-21.333 21.333v0h-128c-11.782 0-21.333-9.551-21.333-21.333v0-213.717c0-11.782-9.551-21.333-21.333-21.333v0h-146.987c-11.782 0-21.333 9.551-21.333 21.333v0 302.677c0.003 6.57 2.975 12.445 7.647 16.357l0.033 0.027 252.629 210.389c3.664 3.053 8.421 4.906 13.611 4.906s9.947-1.853 13.645-4.934l-0.034 0.028 254.592-210.219c4.757-3.942 7.765-9.851 7.765-16.463 0-0.002 0-0.005 0-0.007v0zM889.429 494.635l-102.485 85.632v194.56c-0.152 8.107-6.759 14.62-14.888 14.62-0.648 0-1.285-0.041-1.911-0.122l0.074 0.008h-89.899c-0.551 0.072-1.188 0.114-1.835 0.114-8.174 0-14.809-6.586-14.89-14.741v-92.040l-115.2 96.171c-9.997 7.806-22.742 12.516-36.587 12.516s-26.59-4.71-36.719-12.616l0.133 0.1-340.651-284.203c-3.974-2.724-6.547-7.24-6.547-12.356 0-4.165 1.705-7.931 4.454-10.639l0.002-0.002 29.312-33.451c2.231-3.948 6.4-6.569 11.181-6.569 3.884 0 7.364 1.73 9.711 4.461l0.014 0.017 314.667 262.571c3.668 3.063 8.433 4.924 13.632 4.924s9.964-1.86 13.666-4.951l-0.034 0.028 316.715-262.613c2.488-2.336 5.846-3.771 9.54-3.771 4.671 0 8.806 2.296 11.338 5.82l0.028 0.042 29.312 33.451c2.795 2.697 4.531 6.476 4.531 10.66 0 5.128-2.607 9.647-6.568 12.304l-0.053 0.034z" />
<glyph unicode="&#xe92a;" glyph-name="Icon-Lang-En" d="M429.312 313.216c-2.264 3.949-5.341 7.19-9.023 9.577l-0.108 0.065c-3.878 2.489-8.612 3.968-13.691 3.968-0.047 0-0.094 0-0.141 0h-124.153v91.904h102.187c0.117-0.002 0.256-0.003 0.395-0.003 4.543 0 8.816 1.155 12.543 3.186l-0.137-0.069c4.34 2.345 7.828 5.779 10.174 9.942l0.066 0.127c2.072 3.567 3.57 7.737 4.242 12.178l0.024 0.196c0.464 3.181 0.729 6.855 0.729 10.59 0 0.267-0.001 0.534-0.004 0.8v-0.041c-0.143 4.305-0.571 8.392-1.271 12.387l0.076-0.525c-0.598 4.6-1.997 8.765-4.060 12.513l0.092-0.182c-2.16 3.919-5.108 7.154-8.653 9.582l-0.094 0.061c-3.95 2.673-8.82 4.268-14.062 4.268-0.081 0-0.162 0-0.244-0.001h-102.004v76.288h122.155c0.065-0.001 0.141-0.001 0.218-0.001 4.85 0 9.385 1.349 13.251 3.692l-0.114-0.064c4.498 2.809 8.029 6.793 10.214 11.525l0.068 0.165c1.354 2.989 2.436 6.469 3.076 10.102l0.039 0.266c0.626 3.459 0.983 7.44 0.983 11.505 0 0.185-0.001 0.37-0.002 0.555v-0.028c0.005 0.324 0.009 0.707 0.009 1.090 0 4.137-0.36 8.189-1.051 12.128l0.061-0.418c-0.708 3.932-1.774 7.424-3.193 10.728l0.121-0.318c-4.003 9.233-13.039 15.574-23.555 15.574-0.044 0-0.088 0-0.132 0h-170.404c-8.723-0.035-16.743-3.016-23.124-7.999l0.084 0.063c-8.019-6.473-13.106-16.303-13.106-27.321 0-0.896 0.034-1.784 0.1-2.663l-0.007 0.117v-320.341c-0.070-0.828-0.11-1.792-0.11-2.766 0-10.91 5.006-20.651 12.847-27.051l0.063-0.050c6.285-4.951 14.31-7.951 23.034-7.979h172.379c0.096-0.001 0.209-0.002 0.323-0.002 4.792 0 9.265 1.367 13.050 3.732l-0.104-0.060c4.184 2.534 7.544 6.045 9.828 10.227l0.070 0.141c2.106 3.694 3.609 8.014 4.245 12.611l0.021 0.189c0.489 3.277 0.769 7.060 0.769 10.908 0 0.14 0 0.281-0.001 0.421v-0.022c0.002 0.219 0.003 0.478 0.003 0.737 0 3.924-0.28 7.782-0.822 11.556l0.051-0.432c-0.611 4.785-2.119 9.112-4.355 12.965l0.088-0.165zM821.76 633.856c-2.765 3.924-6.453 7.023-10.756 9.019l-0.166 0.069c-3.871 1.83-8.367 3.102-13.099 3.57l-0.17 0.014c-4.073 0.402-8.804 0.632-13.589 0.632s-9.516-0.229-14.183-0.678l0.594 0.046c-4.716-0.427-9.057-1.579-13.065-3.347l0.265 0.104c-4.69-1.965-8.573-5.066-11.425-8.97l-0.053-0.076c-2.828-3.937-4.523-8.854-4.523-14.166 0-0.015 0-0.029 0-0.044v0.002-208.427c-1.664 3.328-3.456 6.613-5.205 9.941-4.821 9.216-9.899 18.688-15.061 28.331l-83.968 157.568c-3.346 6.379-6.686 11.766-10.36 16.897l0.291-0.428c-3.604 4.965-7.835 9.196-12.638 12.688l-0.162 0.112c-4.651 3.432-10.132 6.054-16.066 7.528l-0.318 0.067c-5.149 1.226-11.061 1.929-17.138 1.929-0.41 0-0.819-0.003-1.228-0.010l0.062 0.001h-23.509c-9.386-0.028-18.017-3.236-24.879-8.601l0.090 0.067c-8.34-6.63-13.64-16.775-13.64-28.157 0-0.797 0.026-1.587 0.077-2.371l-0.006 0.107v-331.392c0-0.037 0-0.080 0-0.123 0-4.935 1.465-9.527 3.983-13.367l-0.057 0.093c3.066-4.762 7.543-8.385 12.835-10.311l0.178-0.057c3.073-1.099 6.69-1.98 10.425-2.486l0.284-0.031c4.274-0.593 9.212-0.932 14.229-0.932s9.955 0.339 14.793 0.995l-0.563-0.063c4.037 0.541 7.655 1.392 11.131 2.554l-0.422-0.122c10.178 3.361 17.409 12.75 17.493 23.841v220.895l108.032-201.472c3.954-7.722 7.949-14.257 12.369-20.467l-0.337 0.499c3.867-5.546 8.287-10.332 13.277-14.452l0.121-0.097c4.88-4.006 10.685-7.088 17.032-8.88l0.333-0.080c5.11-1.385 10.977-2.181 17.030-2.181 0.283 0 0.566 0.002 0.848 0.005h15.744c4.574 0.026 8.974 0.726 13.121 2.005l-0.321-0.085c5.007 1.557 9.344 3.95 13.076 7.048l-0.062-0.050c4.049 3.378 7.317 7.547 9.591 12.283l0.095 0.219c2.347 4.915 3.717 10.681 3.717 16.768 0 0.225-0.002 0.449-0.006 0.673v-0.034 331.349c0 0.055 0.001 0.12 0.001 0.186 0 5.116-1.597 9.86-4.319 13.759l0.052-0.078z" />
<glyph unicode="&#xe92b;" glyph-name="Icon-Schools" d="M294.4 540.032l-0.301-0.088c-16.839-5.705-28.96-21.637-28.969-40.402v-392.875c0-23.564 19.103-42.667 42.667-42.667h79.232c23.564 0 42.667 19.103 42.667 42.667v94.464h164.608v-94.464c0-23.564 19.103-42.667 42.667-42.667h79.147c23.564 0 42.667 19.103 42.667 42.667v392.874c0 0.004 0 0.007 0 0.011 0 18.741-12.083 34.66-29.184 40.48l-190.165 63.445v91.392h149.333c23.564 0 42.667 19.103 42.667 42.667v51.797c0 23.564-19.103 42.667-42.667 42.667h-161.536c-23.564 0-42.667-19.103-42.667-42.667v-185.856zM854.869 64v0c-22.724 0-41.149 18.41-41.173 41.128v273.069c0.029 5.869 4.793 10.616 10.667 10.616 1.206 0 2.365-0.2 3.446-0.569l-0.075 0.022 60.971-20.309c4.277-1.47 7.296-5.458 7.296-10.151 0-0.001 0-0.003 0-0.004v0-252.885c-0.024-22.706-18.425-41.106-41.128-41.131h-0.002zM169.131 64v0c-22.706 0.024-41.106 18.425-41.131 41.128v252.887c0 0.001 0 0.003 0 0.004 0 4.693 3.019 8.681 7.221 10.128l0.075 0.023 60.971 20.096c1.006 0.346 2.165 0.547 3.371 0.547 5.888 0 10.662-4.771 10.667-10.658v0-273.067c-0.049-22.703-18.464-41.088-41.173-41.088 0 0 0 0 0 0v0zM512 475.435c45.413-0.024 82.219-36.845 82.219-82.261 0-45.432-36.83-82.261-82.261-82.261-45.417 0-82.237 36.805-82.261 82.216v0.002c0 45.455 36.849 82.304 82.304 82.304v0z" />
<glyph unicode="&#xe92c;" glyph-name="Icon---Expand" d="M767.147 746.667l-254.123-0.512c-24.076-0.096-43.57-19.576-43.691-43.636v-0.012c0-0.051 0-0.111 0-0.171 0-23.941 19.408-43.349 43.349-43.349 0.060 0 0.12 0 0.18 0h-0.009l210.517 0.384-0.384-210.517c0.758-23.489 19.981-42.242 43.584-42.242s42.826 18.753 43.582 42.172l0.002 0.069 0.512 254.293c0 0.051 0 0.111 0 0.171 0 23.941-19.408 43.349-43.349 43.349-0.060 0-0.12 0-0.18 0h0.009zM256.853 149.333l254.123 0.512c24.076 0.096 43.57 19.576 43.691 43.636v0.012c0 0.051 0 0.111 0 0.171 0 23.941-19.408 43.349-43.349 43.349-0.060 0-0.12 0-0.18 0h0.009l-210.517-0.384 0.384 210.517c-0.758 23.489-19.981 42.242-43.584 42.242s-42.826-18.753-43.582-42.172l-0.002-0.069-0.512-254.293c0-0.051 0-0.111 0-0.171 0-23.941 19.408-43.349 43.349-43.349 0.060 0 0.12 0 0.18 0h-0.009zM248.448 244.779l474.723 474.723 60.34-60.34-474.723-474.723-60.34 60.34z" />
<glyph unicode="&#xe92d;" glyph-name="bag" d="M365.714 886.857c68.571-2.286 68.571-2.286 146.286-36.571 64-112 64-112 109.714-219.429 48.274 12.069 96.549 24.137 146.286 36.571 84.516-104.615 140.043-204.298 189.714-329.143 12.587-30.926 25.174-61.851 38.143-93.714 28.143-89.143 28.143-89.143 28.143-235.429-337.92 0-675.84 0-1024 0 41.162 246.974 41.162 246.974 102.857 375.571 12.917 27.178 25.834 54.356 39.143 82.357 13.483 27.649 26.966 55.299 40.857 83.786 13.483 28.356 26.966 56.713 40.857 85.929 99.535 207.606 99.535 207.606 142 250.071zM402.286 813.714c-24.137-72.411-48.274-144.823-73.143-219.429 90.514-18.103 90.514-18.103 182.857-36.571-24.137 84.48-48.274 168.96-73.143 256-12.069 0-24.137 0-36.571 0z" />
<glyph unicode="&#xe92e;" glyph-name="dock" d="M728.714 979.429c133.727-34.25 218.817-127.051 295.286-238.857 0-73.143 0-73.143-54.857-132.571-18.103-16.594-36.206-33.189-54.857-50.286 36.206-54.309 36.206-54.309 73.143-109.714 8.881-160.739-8.169-292.494-107.429-420.571-154.114-112.083-291.43-113.99-477.714-91.429-99.107 38.279-167.443 84.296-256 146.286-22.629 15.086-45.257 30.171-68.571 45.714-70.225 109.24-67.23 228.665-77.714 356.571 72.411-24.137 144.823-48.274 219.429-73.143-12.069 72.411-24.137 144.823-36.571 219.429 84.48-24.137 168.96-48.274 256-73.143-12.069 12.069-24.137 24.137-36.571 36.571-10.332 116.229-8.962 198.145 36.571 306.286 93.092 75.637 171.274 84.118 289.857 78.857zM694.857 850.286c36.571-73.143 36.571-73.143 36.571-73.143zM219.429 411.429c36.571-73.143 36.571-73.143 36.571-73.143zM585.143 411.429c0-60.343 0-120.686 0-182.857 12.069 0 24.137 0 36.571 0 0 60.343 0 120.686 0 182.857-12.069 0-24.137 0-36.571 0z" />
<glyph unicode="&#xe92f;" glyph-name="plant" d="M987.429 923.429c2.974-52.537 5.096-105.123 6.857-157.714 1.909-43.914 1.909-43.914 3.857-88.714-10.714-82.714-10.714-82.714-56.429-147.857-112.888-78.618-222.645-51.158-356.571-44.571-12.069-48.274-24.137-96.549-36.571-146.286 84.48 0 168.96 0 256 0-5.159-53.35-10.533-106.68-16-160-2.97-29.7-5.94-59.4-9-90-11.571-79.143-11.571-79.143-48.143-152.286-144.823 0-289.646 0-438.857 0-65.096 162.74-80.904 235.415-73.143 402.286 72.411 0 144.823 0 219.429 0 0 24.137 0 48.274 0 73.143-39.223-8.297-78.446-16.594-118.857-25.143-137.143-11.429-137.143-11.429-226.286 20.571-90.973 123.723-74.342 258.265-57.143 406.857 12.069 24.137 24.137 48.274 36.571 73.143 24.137 0 48.274 0 73.143 0 0-24.137 0-48.274 0-73.143 40.731-4.526 81.463-9.051 123.429-13.714 132.571-22.857 132.571-22.857 205.714-96 12.069 21.874 24.137 43.749 36.571 66.286 125.886 137.688 295.63 213.076 475.429 153.143zM512 630.857c36.571-109.714 36.571-109.714 36.571-109.714zM475.429 521.143c36.571-73.143 36.571-73.143 36.571-73.143z" />
<glyph unicode="&#xe930;" glyph-name="images" horiz-adv-x="1152" d="M1088 832h-64v64c0 35.2-28.8 64-64 64h-896c-35.2 0-64-28.8-64-64v-768c0-35.2 28.8-64 64-64h64v-64c0-35.2 28.8-64 64-64h896c35.2 0 64 28.8 64 64v768c0 35.2-28.8 64-64 64zM128 768v-640h-63.886c-0.040 0.034-0.082 0.076-0.114 0.116v767.77c0.034 0.040 0.076 0.082 0.114 0.114h895.77c0.040-0.034 0.082-0.076 0.116-0.116v-63.884h-768c-35.2 0-64-28.8-64-64v0zM1088 0.116c-0.034-0.040-0.076-0.082-0.116-0.116h-895.77c-0.040 0.034-0.082 0.076-0.114 0.116v767.77c0.034 0.040 0.076 0.082 0.114 0.114h895.77c0.040-0.034 0.082-0.076 0.116-0.116v-767.768zM960 608c0-53.020-42.98-96-96-96s-96 42.98-96 96 42.98 96 96 96 96-42.98 96-96zM1024 64h-768v128l224 384 256-320h64l224 192z" />
<glyph unicode="&#xe931;" glyph-name="book" d="M896 832v-832h-672c-53.026 0-96 42.98-96 96s42.974 96 96 96h608v768h-640c-70.398 0-128-57.6-128-128v-768c0-70.4 57.602-128 128-128h768v896h-64zM224.056 128v0c-0.018-0.002-0.038 0-0.056 0-17.672 0-32-14.326-32-32s14.328-32 32-32c0.018 0 0.038 0.002 0.056 0.002v-0.002h607.89v64h-607.89z" />
<glyph unicode="&#xe932;" glyph-name="images1" horiz-adv-x="1152" d="M1088 832h-64v64c0 35.2-28.8 64-64 64h-896c-35.2 0-64-28.8-64-64v-768c0-35.2 28.8-64 64-64h64v-64c0-35.2 28.8-64 64-64h896c35.2 0 64 28.8 64 64v768c0 35.2-28.8 64-64 64zM128 768v-640h-63.886c-0.040 0.034-0.082 0.076-0.114 0.116v767.77c0.034 0.040 0.076 0.082 0.114 0.114h895.77c0.040-0.034 0.082-0.076 0.116-0.116v-63.884h-768c-35.2 0-64-28.8-64-64v0zM1088 0.116c-0.034-0.040-0.076-0.082-0.116-0.116h-895.77c-0.040 0.034-0.082 0.076-0.114 0.116v767.77c0.034 0.040 0.076 0.082 0.114 0.114h895.77c0.040-0.034 0.082-0.076 0.116-0.116v-767.768zM960 608c0-53.020-42.98-96-96-96s-96 42.98-96 96 42.98 96 96 96 96-42.98 96-96zM1024 64h-768v128l224 384 256-320h64l224 192z" />
<glyph unicode="&#xe933;" glyph-name="book1" d="M896 832v-832h-672c-53.026 0-96 42.98-96 96s42.974 96 96 96h608v768h-640c-70.398 0-128-57.6-128-128v-768c0-70.4 57.602-128 128-128h768v896h-64zM224.056 128v0c-0.018-0.002-0.038 0-0.056 0-17.672 0-32-14.326-32-32s14.328-32 32-32c0.018 0 0.038 0.002 0.056 0.002v-0.002h607.89v64h-607.89z" />
<glyph unicode="&#xe934;" glyph-name="graduation-cap" d="M941.098 736.854l-314.624 149.888c-69.256 41.368-155.456 42.102-225.408 1.92l-318.164-151.808c-1.194-0.598-2.432-1.238-3.584-1.92-75.504-43.172-101.716-139.378-58.544-214.882 14.634-25.596 36.16-46.568 62.128-60.532l87.766-41.814v-209.066c0.052-93.486 60.882-176.078 150.144-203.862 62.118-17.97 126.528-26.768 191.19-26.112 64.652-0.724 129.062 8 191.19 25.898 89.262 27.782 150.092 110.376 150.144 203.862v209.366l85.334 40.79v-351.914c0-23.564 19.102-42.666 42.666-42.666s42.666 19.102 42.666 42.666v512c0.284 50.102-39.276 96.386-82.904 118.186zM768 208.426c0.022-55.918-36.258-105.38-89.6-122.154-54.092-15.456-110.146-22.958-166.4-22.272-56.254-0.686-112.308 6.816-166.4 22.272-53.342 16.776-89.622 66.236-89.6 122.154v168.618l141.526-67.414c34.92-20.736 74.802-31.632 115.414-31.53 38.656-0.274 76.662 9.96 109.952 29.61l145.108 69.336v-168.62zM904.534 536.534l-321.792-153.6c-44.868-26.126-100.482-25.386-144.64 1.92l-314.838 149.76c-35.094 18.924-48.202 62.714-29.278 97.806 6.4 11.868 15.996 21.706 27.7 28.402l319.786 152.746c44.882 26.068 100.466 25.33 144.64-1.92l314.624-149.888c23.138-12.848 37.614-37.11 37.93-63.574 0.042-25.068-12.866-48.38-34.132-61.652v0z" />
<glyph unicode="&#xe935;" glyph-name="bucket" d="M475.685 842.423c-11.048 22.144-33.539 37.088-59.52 37.088s-48.472-14.943-59.346-36.704l-0.174-0.384-350.464-743.168c-3.612-7.749-5.719-16.823-5.719-26.39 0-35.205 28.539-63.744 63.744-63.744 0.584 0 1.165 0.008 1.745 0.023l-0.085-0.002h894.866c35.13 0.441 63.439 29.022 63.439 64.215 0 9.485-2.056 18.489-5.747 26.592l0.164-0.402-218.258 498.651c-9.872 22.629-32.051 38.159-57.856 38.159s-47.984-15.53-57.698-37.754l-0.158-0.405-45.166-103.205zM402.944 820.48c2.64 4.665 7.569 7.761 13.221 7.761s10.58-3.097 13.181-7.686l0.039-0.075 111.909-237.166-46.665-30.939c-2.442-1.579-5.427-2.517-8.631-2.517s-6.188 0.938-8.694 2.555l0.063-0.038-30.903 20.517c-10.389 6.933-23.163 11.063-36.901 11.063s-26.511-4.13-37.146-11.217l0.246 0.154-30.903-20.517c-2.442-1.579-5.427-2.517-8.631-2.517s-6.188 0.938-8.694 2.555l0.063-0.038-36.571 24.247z" />
<glyph unicode="&#xe936;" glyph-name="plants" d="M447.744 460.581c18.436-15.271 34.731-31.96 49.134-50.211l0.53-0.696c17.422 56.334 44.457 105.116 79.524 146.935l-0.53-0.649c-57.307 78.921-60.562 229.486 68.169 284.306 80.786 34.487 217.381 6.656 249.6 103.168 3.423 9.677 12.493 16.486 23.154 16.486 9.673 0 18.037-5.605 22.021-13.744l0.064-0.145c0.293-0.658 118.784-247.259-9.070-385.353-110.409-119.223-270.629-56.759-315.977-35.291-44.181-52.729-74.418-118.544-84.226-190.85l-0.217-1.955h238.848c13.496-0.041 24.425-10.971 24.466-24.462v-0.004l-1.463-112.457-71.826-240.896c-2.678-10.89-12.347-18.846-23.878-18.871h-368.094c-11.021 0.086-20.323 7.349-23.468 17.342l-0.048 0.176-73.691 250.807v103.973c0.041 13.496 10.971 24.425 24.462 24.466h224.772c-11.528 40.642-36.677 74.225-70.095 96.301l-0.634 0.393c-46.043-21.577-205.458-83.346-315.575 35.438-128 138.24-9.362 384.695-9.070 385.353 3.937 8.412 12.331 14.136 22.061 14.136 10.657 0 19.711-6.865 22.98-16.415l0.051-0.171c55.259-101.998 153.6-68.462 237.495-98.45 140.434-50.249 139.483-206.921 80.457-288.658z" />
<glyph unicode="&#xe937;" glyph-name="dock1" d="M554.021 423.57c21.738-26.161 34.93-60.098 34.93-97.115 0-84.207-68.263-152.47-152.47-152.47-47.189 0-89.371 21.438-117.339 55.105l-0.202 0.25c-51.054 66.523-112.347 373.029-112.347 373.029s296.229-112.421 347.429-178.798zM911.616 638.135l112.421 76.8-122.551 96.914c-43.259 88.057-132.115 147.696-234.947 148.151h-0.061c-1.368 0.027-2.981 0.042-4.598 0.042-136.579 0-247.667-109.138-250.812-244.961l-0.005-0.292c1.235-63.403 26.282-120.727 66.536-163.605l-0.122 0.131c0.001-0.033 0.001-0.072 0.001-0.111 0-2.767-2.243-5.010-5.010-5.010-0.039 0-0.078 0-0.117 0.001h0.006c49.254-22.755 91.465-51.872 127.887-86.957l-0.143 0.137c29.21-34.334 46.977-79.189 46.977-128.193 0-7.029-0.366-13.972-1.079-20.813l0.072 0.855c-4.944-55.561-31.549-104.092-71.202-137.703l-0.295-0.244c-34.367-28.626-78.982-46.002-127.655-46.002-1.845 0-3.683 0.025-5.516 0.075l0.27-0.006c-0.177-0.001-0.386-0.001-0.595-0.001-62.742 0-119.043 27.573-157.448 71.264l-0.202 0.234c-34.159 52.783-60.662 114.24-76.025 179.982l-0.775 3.936c-143.067-20.443-199.241 122.624-204.361 102.144-1.364-10.732-2.142-23.15-2.142-35.749s0.778-25.016 2.289-37.206l-0.147 1.458c51.2-490.423 924.672-715.191 965.486-81.774-1.74 94.69-38.301 180.517-97.373 245.519l0.275-0.308c16.576 17.368 30.302 37.64 40.309 59.943l0.542 1.35zM717.495 755.639c-28.277 0-51.2 22.923-51.2 51.2s22.923 51.2 51.2 51.2c28.277 0 51.2-22.923 51.2-51.2v0c0-28.277-22.923-51.2-51.2-51.2v0z" />
<glyph unicode="&#xe938;" glyph-name="map3" d="M512 64c-200.533 145.067-298.667 285.867-298.667 426.667 0 166.4 132.267 298.667 298.667 298.667s298.667-132.267 298.667-298.667c0-140.8-98.133-281.6-298.667-426.667zM512 183.467c140.8 106.667 213.333 209.067 213.333 307.2 0 119.467-93.867 213.333-213.333 213.333s-213.333-93.867-213.333-213.333c0-98.133 72.533-200.533 213.333-307.2zM512 362.667c-72.533 0-128 55.467-128 128s55.467 128 128 128 128-55.467 128-128-55.467-128-128-128zM512 448c25.6 0 42.667 17.067 42.667 42.667s-17.067 42.667-42.667 42.667-42.667-17.067-42.667-42.667 17.067-42.667 42.667-42.667z" />
<glyph unicode="&#xe939;" glyph-name="map2" d="M801.999 612.87c0 152.773-138.191 276.63-291.783 276.63s-287.992-123.856-287.992-276.63c0-141.658 284.775-480.848 284.775-480.848s295 334.456 295 480.848v0 0zM418.426 603.087c0 52.268 43.308 94.689 96.65 94.689 53.407 0 96.649-42.355 96.649-94.689s-43.305-94.694-96.649-94.694c-53.342 0.063-96.65 42.422-96.65 94.694v0 0zM607.621 123.751c0.825-2.466 1.267-5.050 1.267-7.575 0-26.137-43.308-47.35-96.653-47.35-53.341 0-96.649 21.213-96.649 47.35 0 2.586 0.443 5.109 1.262 7.575-58.519-10.859-97.911-31.377-97.911-54.925 0-34.909 86.55-63.127 193.299-63.127 106.755 0 193.303 28.218 193.303 63.127-0.064 23.548-39.457 44.066-97.918 54.925v0 0z" />
<glyph unicode="&#xe93a;" glyph-name="DCI-Icon_Curriculum-ALevel" d="M832 192h-640c-35.345 0-64-28.655-64-64s28.655-64 64-64h640c35.345 0 64 28.655 64 64s-28.655 64-64 64zM268.855 234.667h53.376c17.668 0 33.51 10.889 39.838 27.388l33.024 86.106h233.813l33.024-86.106c6.327-16.499 22.17-27.388 39.838-27.388h53.376c30.003 0 50.637 30.153 39.77 58.121l-198.959 512c-6.374 16.405-22.17 27.213-39.77 27.213h-88.363c-17.6 0-33.395-10.807-39.77-27.213l-198.959-512c-10.871-27.968 9.762-58.121 39.77-58.121zM512.009 660.493l71.676-191.159h-144.23l72.555 191.159z" />
<glyph unicode="&#xe93b;" glyph-name="DCI-Icon_Curriculum-BoardingA" d="M853.333 832c-23.561 0-42.667-19.106-42.667-42.667v-512h-597.333v256c0 23.561-19.106 42.667-42.667 42.667s-42.667-19.106-42.667-42.667v-426.667c0-23.561 19.106-42.667 42.667-42.667s42.667 19.106 42.667 42.667v85.333h597.333v-85.333c0-23.561 19.106-42.667 42.667-42.667s42.667 19.106 42.667 42.667v682.667c0 23.561-19.106 42.667-42.667 42.667zM768 490.667h-469.333c-23.561 0-42.667-19.102-42.667-42.667v-128h512v170.667zM597.333 533.333h128c23.467 0 42.667 19.2 42.667 42.667s-19.2 42.667-42.667 42.667h-128c-23.467 0-42.667-19.2-42.667-42.667s19.2-42.667 42.667-42.667z" />
<glyph unicode="&#xe93c;" glyph-name="DCI-Icon_Curriculum-BoardingB" d="M810.667 533.333v213.333c0 47.061-38.272 85.333-85.333 85.333h-426.667c-47.061 0-85.333-38.272-85.333-85.333v-213.333c-47.061 0-85.333-38.272-85.333-85.333v-341.333c0-23.561 19.106-42.667 42.667-42.667s42.667 19.106 42.667 42.667v128h597.333v-128c0-23.561 19.106-42.667 42.667-42.667s42.667 19.106 42.667 42.667v341.333c0 47.061-38.272 85.333-85.333 85.333zM298.667 746.667h426.667l0.064-213.333h-85.397c0 70.583-57.417 128-128 128s-128-57.417-128-128h-85.333v213.333zM554.667 533.333h-85.333c0 23.522 19.145 42.667 42.667 42.667s42.667-19.145 42.667-42.667zM213.333 320v128h597.333l0.043-85.129c0-0.073-0.043-0.132-0.043-0.205v-42.667h-597.333z" />
<glyph unicode="&#xe93d;" glyph-name="DCI-Icon_Curriculum-IGCSE" d="M512 874.667c-235.639 0-426.667-191.027-426.667-426.667s191.027-426.667 426.667-426.667 426.667 191.027 426.667 426.667-191.023 426.667-426.667 426.667zM554.667 109.632v39.71c0 23.561-19.098 42.662-42.662 42.662h-0.009c-23.561 0-42.662-19.098-42.662-42.662v-39.71c-154.095 19.345-276.356 141.606-295.701 295.701h39.71c23.561 0 42.662 19.102 42.662 42.662v0.009c0 23.561-19.098 42.662-42.662 42.662h-39.71c19.345 154.095 141.606 276.356 295.701 295.701v-39.71c0-23.561 19.102-42.662 42.662-42.662h0.009c23.561 0 42.662 19.102 42.662 42.662v39.71c154.095-19.345 276.356-141.606 295.701-295.701h-295.706c-23.561 0-42.662-19.102-42.662-42.662v-0.009c0-23.561 19.102-42.662 42.662-42.662h77.474c-17.668-49.557-64.589-85.333-120.137-85.333-70.583 0-128 57.417-128 128s57.417 128 128 128c31.228 0 61.269-11.354 84.625-31.979 17.707-15.625 44.625-13.875 60.228 3.729 15.603 17.668 13.918 44.646-3.729 60.228-38.98 34.415-89.084 53.355-141.124 53.355-117.623 0-213.333-95.71-213.333-213.333s95.71-213.333 213.333-213.333c103.014 0 189.197 73.417 209.020 170.667h129.348c-19.345-154.095-141.606-276.356-295.701-295.701z" />
<glyph unicode="&#xe93e;" glyph-name="DCI-Icon_Curriculum-Pre_ALevel" d="M832 832h-640c-35.345 0-64-28.655-64-64s28.655-64 64-64h640c35.345 0 64 28.655 64 64s-28.655 64-64 64zM595.955 634.121c-6.374 16.405-22.17 27.213-39.77 27.213h-88.363c-17.6 0-33.395-10.807-39.77-27.213l-198.959-512c-10.871-27.968 9.762-58.121 39.77-58.121h53.376c17.668 0 33.51 10.889 39.838 27.388l33.024 86.106h233.813l33.024-86.106c6.327-16.499 22.17-27.388 39.838-27.388h53.376c30.003 0 50.637 30.153 39.77 58.121l-198.959 512zM439.454 298.671l72.555 191.159 71.676-191.159h-144.23z" />
<glyph unicode="&#xe93f;" glyph-name="Find-a-School_White" d="M932.5 78.7v405c0 20.6-16.7 37.2-37.2 37.2h-123.3v106.2c6.1-3.9 13-6 19.8-6 11.7 0 23.3 5.5 30.5 15.9 11.8 16.8 7.7 40.1-9.1 51.9l-279.9 196c-12.8 9-29.9 9-42.7 0l-279.8-196c-16.8-11.8-20.9-35-9.1-51.9 11.5-16.3 33.6-20.5 50.3-10v-106.1h-123.2c-20.6 0-37.2-16.7-37.2-37.2v-405c-19.8-0.8-35.7-17-35.7-37.1 0-20.6 16.7-37.2 37.2-37.2h837.7c20.6 0 37.2 16.7 37.2 37.2 0.1 20-15.7 36.2-35.5 37.1zM858 446.4v-367.6h-86v367.6h86zM512 808.9l185.9-130.2c-0.1-0.9-0.3-1.7-0.3-2.6v-597.3h-63.8v133.9c0 20.6-16.7 37.2-37.2 37.2h-169.1c-20.6 0-37.2-16.7-37.2-37.2v-133.9h-63.8v597.3c0 0.9-0.2 1.7-0.3 2.6l185.8 130.2zM559.3 78.8h-94.6v96.7h94.6v-96.7zM252 446.4v-367.6h-86v367.6h86zM512 389.8c67.2 0 121.8 54.6 121.8 121.8s-54.6 121.8-121.8 121.8-121.8-54.6-121.8-121.8 54.6-121.8 121.8-121.8zM512 558.9c26.1 0 47.3-21.2 47.3-47.3s-21.2-47.3-47.3-47.3c-26.1 0-47.3 21.2-47.3 47.3s21.2 47.3 47.3 47.3z" />
<glyph unicode="&#xe940;" glyph-name="Careers" d="M852.8 177.792l140.672-140.672-56.576-56.576-139.968 139.968c-80.785-69.954-186.906-112.577-302.981-112.577-256.26 0-464 207.74-464 464s207.74 464 464 464c256.26 0 464-207.74 464-464 0-112.016-39.693-214.761-105.782-294.937l0.635 0.794zM494.016 88c212.077 0 384 171.923 384 384s-171.923 384-384 384v0c-212.077 0-384-171.923-384-384s171.923-384 384-384v0zM512.128 691.264c-42.522 0-76.992-34.47-76.992-76.992s34.47-76.992 76.992-76.992v0c42.522 0 76.992 34.47 76.992 76.992s-34.47 76.992-76.992 76.992v0zM673.024 230.016v62.016c-0.432 34.309-28.345 61.955-62.715 61.955-0.227 0-0.453-0.001-0.679-0.004h-194.27c-0.191 0.002-0.418 0.003-0.644 0.003-34.393 0-62.32-27.683-62.716-61.982v-61.989h-71.040v72.064c0 66.304 53.76 120.064 120.064 120.064h220.928c66.304 0 120.064-53.76 120.064-120.064v-72.064h-68.992zM511.488 768c84.884 0 153.696-68.812 153.696-153.696s-68.812-153.696-153.696-153.696v0c-84.884 0-153.696 68.812-153.696 153.696s68.812 153.696 153.696 153.696v0z" />
<glyph unicode="&#xe941;" glyph-name="Find-a-School_Red" d="M932.5 78.7v405c0 20.6-16.7 37.2-37.2 37.2h-123.3v106.2c6.1-3.9 13-6 19.8-6 11.7 0 23.3 5.5 30.5 15.9 11.8 16.8 7.7 40.1-9.1 51.9l-279.9 196c-12.8 9-29.9 9-42.7 0l-279.8-196c-16.8-11.8-20.9-35-9.1-51.9 11.5-16.3 33.6-20.5 50.3-10v-106.1h-123.2c-20.6 0-37.2-16.7-37.2-37.2v-405c-19.8-0.8-35.7-17-35.7-37.1 0-20.6 16.7-37.2 37.2-37.2h837.7c20.6 0 37.2 16.7 37.2 37.2 0.1 20-15.7 36.2-35.5 37.1zM858 446.4v-367.6h-86v367.6h86zM512 808.9l185.9-130.2c-0.1-0.9-0.3-1.7-0.3-2.6v-597.3h-63.8v133.9c0 20.6-16.7 37.2-37.2 37.2h-169.1c-20.6 0-37.2-16.7-37.2-37.2v-133.9h-63.8v597.3c0 0.9-0.2 1.7-0.3 2.6l185.8 130.2zM559.3 78.8h-94.6v96.7h94.6v-96.7zM252 446.4v-367.6h-86v367.6h86zM512 389.8c67.2 0 121.8 54.6 121.8 121.8s-54.6 121.8-121.8 121.8-121.8-54.6-121.8-121.8 54.6-121.8 121.8-121.8zM512 558.9c26.1 0 47.3-21.2 47.3-47.3s-21.2-47.3-47.3-47.3c-26.1 0-47.3 21.2-47.3 47.3s21.2 47.3 47.3 47.3z" />
<glyph unicode="&#xe942;" glyph-name="Admissions" d="M282.9 508.9c-12.8 0-23.7 10.3-23.7 23.7 0 12.8 10.9 23.7 23.7 23.7h457.8c13.1 0 24.3-10.9 24.3-23.7 0-13.4-11.2-23.7-24.3-23.7h-457.8zM282.9 223.7c13.4 0 23.7-10.9 23.7-23.7s-10.3-23.7-23.7-23.7c-12.8 0-23.7 10.9-23.7 23.7s10.9 23.7 23.7 23.7zM282.9 334.6c13.4 0 23.7-10.9 23.7-23.7 0-13.1-10.3-23.2-23.7-23.2-12.8 0-23.7 10-23.7 23.2 0 12.8 10.9 23.7 23.7 23.7zM282.9 445.2c13.4 0 23.7-10 23.7-23.5 0-12.8-10.3-23.7-23.7-23.7-12.8 0-23.7 10.9-23.7 23.7 0 13.5 10.9 23.5 23.7 23.5zM377.9 176.2c-13.4 0-24 10.9-24 23.7s10.6 23.7 24 23.7h362.9c13.1 0 24.3-10.9 24.3-23.7s-11.2-23.7-24.3-23.7h-362.9zM377.9 398c-13.4 0-24 10.9-24 23.7 0 13.4 10.6 23.5 24 23.5h362.9c13.4 0 24.3-10 24.3-23.5 0-12.8-10.9-23.7-24.3-23.7h-362.9zM377.9 287.7c-13.4 0-24 10-24 23.2 0 12.8 10.6 23.7 24 23.7h362.9c13.4 0 24.3-10.9 24.3-23.7 0-13.1-10.9-23.2-24.3-23.2h-362.9zM169.5 960h466.2c10.9 0 20.7-4.7 28.2-11.7l284.7-284.6c7.5-8.4 11.4-18.2 11.4-28.5v-593.6c0-28.8-11.7-55-31-74.6v-0.3l-0.9-0.3c-19.3-18.7-45.5-30.4-73.8-30.4h-684.8c-29.1 0-55.3 11.7-74.3 30.7v0c-19.5 19.3-31.2 46.1-31.2 74.9v812.8c0 28.8 11.7 55 31.3 74 18.9 19.3 44.9 31.6 74.2 31.6zM612 881.2h-442.5c-7.2 0-13.9-3.1-19-8.1-4.8-5-7.8-11.7-7.8-18.7v-812.8c0-7.3 3-14 7.8-19 5-5.3 11.7-7.8 19-7.8h684.9c7.6 0 14 2.5 19 7.8 5 5 7.8 11.7 7.8 19v570.3h-179.5c-24.3 0-46.9 9.8-62.9 26.3l-1.7 1.7c-15.4 16.5-25.2 38-25.2 61.7v179.6h0.1zM841.3 659.2l-181.8 181.8v-139.4c0-10.9 4.5-21.5 11.7-28.8l1.1-1.1c7.3-7.8 17.9-12.6 29.4-12.6l139.6 0.1z" />
<glyph unicode="&#xe943;" glyph-name="X_logo_2023" horiz-adv-x="1134" d="M891.749 960h173.815l-381.638-434.539 445.875-589.461h-349.898l-273.948 358.211-313.624-358.211h-173.815l404.31 464.768-426.982 559.232h358.589l247.498-327.227zM830.914 38.022h96.354l-623.469 823.734h-103.534z" />
<glyph unicode="&#xe944;" glyph-name="tag-21" d="M938 501.2l-29.6 312.6c-1.5 16.2-14.4 29-30.6 30.6l-313 29.6c-3.2 0-5.7-1-7.6-2.9l-468.3-468.3c-3.9-3.9-3.9-10.2 0-14.1l363.8-363.8c1.9-1.9 4.4-2.9 7.1-2.9s5.2 1 7.1 2.9l468.3 468.3c2 2.1 3 5 2.8 8zM459.7 125.3l-270.4 270.4 399.7 399.7 247-23.4 23.4-247-399.7-399.7zM680 704c-48.5 0-88-39.5-88-88s39.5-88 88-88 88 39.5 88 88-39.5 88-88 88zM680 584c-17.7 0-32 14.3-32 32s14.3 32 32 32 32-14.3 32-32-14.3-32-32-32z" />
<glyph unicode="&#xe945;" glyph-name="Contact-Us_Icon" d="M765.811 339.492c-57.6-77.692-149.678-128.234-253.777-128.234-104.111 0-196.245 50.543-253.788 128.234-103.213-77.352-170.327-200.266-170.327-339.136h848.162c0 138.87-67.057 261.784-170.27 339.136zM252.816 273.5c67.896-69.236 161.653-109.368 259.218-109.368 97.553 0 191.31 40.131 259.207 109.368 63.858-60.281 104.111-139.485 114.855-226.075h-748.135c10.745 86.59 50.997 165.794 114.855 226.075zM512.034 763.268c-130.869 0-236.992-105.905-236.992-236.486 0-130.587 106.124-236.434 236.992-236.434 130.857 0 236.981 105.848 236.981 236.434 0 130.581-106.123 236.486-236.981 236.486zM512.034 337.421c-104.732 0-189.861 84.968-189.861 189.36 0 104.387 85.129 189.355 189.861 189.355 104.663 0 189.861-84.968 189.861-189.355 0-104.392-85.198-189.36-189.861-189.36zM217.499 424.403c1.795 0 3.417 0.454 5.154 0.506v211.016c-1.737 0.115-3.359 0.5-5.154 0.5-0.552 0-1.116-0.161-1.737-0.161 2.128 5.706 4.533 11.193 6.891 16.732v3.302h1.392c49.375 110.047 159.525 186.842 287.989 186.842 128.395 0 238.557-76.794 287.978-186.841h1.346v-3.302c2.404-5.539 4.809-11.027 6.879-16.732-0.564 0-1.116 0.161-1.737 0.161-1.737 0-3.405-0.385-5.142-0.5v-211.017c1.737-0.052 3.405-0.506 5.142-0.506 58.555 0 106.020 47.471 106.020 106.014 0 34.702-16.911 65.21-42.657 84.577-39.573 161.032-184.546 280.65-357.83 280.65-173.353 0-318.325-119.618-357.841-280.65-25.803-19.367-42.703-49.875-42.703-84.577 0.002-58.543 47.467-106.014 106.010-106.014z" />
</font>
</defs>
</svg>
