<svg id="Button_Expand" data-name="Button Expand" xmlns="http://www.w3.org/2000/svg" xmlns:xlink="http://www.w3.org/1999/xlink" width="48" height="48" viewBox="0 0 48 48">
  <defs>
    <clipPath id="clip-path">
      <rect id="Rectangle_3628" data-name="Rectangle 3628" width="24" height="24" fill="#d30013"/>
    </clipPath>
  </defs>
  <g id="Group_3833" data-name="Group 3833" transform="translate(-1186 -7857)">
    <g id="Rectangle_2621" data-name="Rectangle 2621" transform="translate(1186 7857)" fill="none" stroke="#d30013" stroke-width="1">
      <rect width="48" height="48" rx="24" stroke="none"/>
      <rect x="0.5" y="0.5" width="47" height="47" rx="23.5" fill="none"/>
    </g>
  </g>
  <g id="Icon_-_Expand" data-name="Icon - Expand" transform="translate(12 12)">
    <g id="Group_3838" data-name="Group 3838" clip-path="url(#clip-path)">
      <path id="Path_6494" data-name="Path 6494" d="M18.98,4l-5.956.012A1.028,1.028,0,0,0,12,5.035a1.016,1.016,0,0,0,1.02,1.02l4.934-.009-.009,4.934a1.022,1.022,0,0,0,2.043,0L20,5.02A1.016,1.016,0,0,0,18.98,4" fill="#d30013"/>
      <path id="Path_6495" data-name="Path 6495" d="M5.02,20l5.956-.012A1.028,1.028,0,0,0,12,18.965a1.016,1.016,0,0,0-1.02-1.02l-4.934.009.009-4.934a1.022,1.022,0,0,0-2.043,0L4,18.98A1.016,1.016,0,0,0,5.02,20" fill="#d30013"/>
      <line id="Line_623" data-name="Line 623" x1="13.955" y2="13.955" transform="translate(5.116 4.929)" fill="#3c3737"/>
      <rect id="Rectangle_3627" data-name="Rectangle 3627" width="19.735" height="2" transform="translate(4.409 18.177) rotate(-45)" fill="#d30013"/>
    </g>
  </g>
</svg>
