<?xml version="1.0" encoding="UTF-8"?>
<svg xmlns="http://www.w3.org/2000/svg" version="1.1" viewBox="0 0 360 360">
  <!-- Generator: Adobe Illustrator 29.7.0, SVG Export Plug-In . SVG Version: 2.1.1 Build 138)  -->
  <defs>
    <style>
      .st0 {
        fill: #231f20;
        mix-blend-mode: multiply;
      }

      .st0, .st1 {
        isolation: isolate;
      }
    </style>
  </defs>
  <g class="st1">
    <g id="Layer_1">
      <path id="Path_4831" class="st0" d="M183.1835,236.0359c19.3953,14.5339,13.445,26.448,8.4125,43.4958-3.367,21.6004,7.1754,42.2863,29.7011,47.3128,18.3435,8.9988,43.6087-4.5632,61.6334,4.6925-2.103-15.2214-6.0397-31.3093-1.6425-46.3149,3.6864-12.5804.8666-26.3462-8.4413-35.5776-22.7495-22.4209-54.8692-2.5914-62.0732-43.3224,26.6715-38.1418,58.7147,41.2743,99.7469-10.6107,8.9501-15.2471,11.8769-35.6306,25.4671-48.8113-19.5887-6.1335-28.7328-18.4008-44.5117-27.3811-25.969-10.7424-47.3705,2.4642-61.6014,25.261-6.4698,14.524-15.4325,22.0764-33.9619,21.2202-8.2167-23.8121-.2288-29.6119,14.8567-44.5682,15.6275-15.472,18.1338-44.4546,2.1232-61.546-12.338-13.2274-26.9445-16.9292-36.0799-36.0779-15.9815,27.0649-48.259,31.9104-46.6898,65.7908,2.621,38.9968,39.816,36.2424,29.7118,80.6462-26.214,5.4064-26.3705-5.413-35.5214-24.1035-8.943-24.3315-38.7381-36.2595-62.1011-20.4623-12.4135,9.0249-21.4936,17.6394-38.1995,23.3428,13.3751,16.0729,16.1902,34.507,25.4671,50.9344,46.1049,57.4043,64.1121-27.6388,101.8699,14.8516-3.6542,17.0662-15.7996,28.386-31.096,27.6473-24.3698-.1479-44.5564,20.1663-43.183,44.5115-.1458,17.3545,13.6462,30.0931,10.611,48.8112,16.4222-4.3695,31.7509-6.0493,47.0977-6.3275,6.6465-.1205,13.2135-1.8654,18.8321-5.4179,38.9088-27.5774-8.1379-68.0474,29.5721-88.0016"/>
    </g>
  </g>
</svg>