<?xml version="1.0" encoding="UTF-8"?>
<svg id="mobile" xmlns="http://www.w3.org/2000/svg" xmlns:xlink="http://www.w3.org/1999/xlink" viewBox="0 0 200 280">
  <defs>
    <style>
      .cls-1 {
        fill: none;
      }

      .cls-2 {
        clip-path: url(#clippath-1);
      }

      .cls-3 {
        fill: #fff;
      }

      .cls-4 {
        fill: #9c1726;
      }

      .cls-5 {
        clip-path: url(#clippath);
      }
    </style>
    <clipPath id="clippath">
      <rect class="cls-1" y="183" width="220" height="97"/>
    </clipPath>
    <clipPath id="clippath-1">
      <rect class="cls-1" width="220" height="180"/>
    </clipPath>
  </defs>
  <g class="cls-5">
    <path class="cls-4" d="M25,0h195v280H25c-13.8,0-25-11.2-25-25V25C0,11.2,11.2,0,25,0Z"/>
  </g>
  <g class="cls-2">
    <path class="cls-4" d="M25,0h195v280H25c-13.8,0-25-11.2-25-25V25C0,11.2,11.2,0,25,0Z"/>
  </g>
  <g>
    <path class="cls-3" d="M25,121.81c10.87-10.61,21.9-21.07,32.73-31.71,2.87-2.82,5.93-5.53,8.32-8.79.44-3.1,1.2-6.11,2.25-9.05.17-.49.88-1.89.92-2.23.09-.78-1.1-3.09-1.57-3.79-3.24-4.86-9.5-6.43-15.03-5.2-5.73,1.27-9.55,6.13-10.17,11.87l-16.17-1.28c.38-5.16,1.97-10.11,4.98-14.32,6.9-9.65,19.55-12.42,30.82-10.91,6.72.89,13.53,3.65,17.98,8.89.9-.82,1.86-1.58,2.84-2.29,14.42-10.47,33.88-10.65,48.49-.43,8.06,5.64,13.99,14.14,16.44,23.69.18.26.95-.23,1.24-.17l-1.08.59c-.07,1.19,1.53.08,2.18.08v-.33c.14,0,.14.21.2.24.22.13,3.33-.88,3.84-.98.14-.97.29-1.95.25-2.94-.06-.06-1.47.32-1.54.38-.12.1-.08.37-.15.54s-.78.66-.97.74c-.64.27-1.37-.04-1.95-.34-.1-.05-.17-.21-.26-.25-.14-.06-.37-.02-.42-.05-.17-.13-.06-1.58-.78-1.27-.01-.34.18-.53.18-.9,0-.47-.22-1.06-.26-1.54-.22-2.4-.14-4.95-1.32-7.15-.31-.57-.88-.68-.05-1.32.23-.18.49-.35.81-.3.37.06.34.47.78.02.32.18.2.46.13.75.37.02.71.29.98.52.25.21,1.01,1.2,1.18,1.18.25-.02,1.25-.87,1.6-1.06.31-.17,2.06-.8,2.14-.9l-.51-1.48c.28-2.66.84-5.56.94-8.22.05-1.31-.2-.92-.75-1.81-.36-.58-.52-1.13-.44-1.83h.43s-.08-.93-.08-.93l.88-.33c.3.03.38.43.54.48.37.13.94-.13,1.23-.04.17.06.65.7.91.89.76.56,2.03.82,2.49,1.71.22.43.77,2.12.58,2.5-.08.17-.5.27-.56.51.58,0,.85-.55,1.24-.85.26-.21,1.1-.87,1.35-.96.28-.11.5.02.64-.04.24-.11.21-.45.66-.46.43,0,.41.35.75.53.31.17,1.27.31,1.41.43.05.05.19.53.29.69.16.26.75.87.81,1.08s-.11.28-.12.4.16.18.13.37c-.16.99-.79.57-1.45.7-.3.06-.68.43-.98.56-.58.25-1,.21-1.48-.2-1.06.9-2.83.84-3.96,1.43-.67.35-.83,1.05.2.85-.31.65-.07,1.37-.26,2.05.66-.19,1.51-.24,2.14-.47.41-.15.57-.59.94-.38v-.43s.51.09.51.09v-.33c.21-.16.46.02.63,0,.09-.02.09-.28.29-.33.28-.08.68.09.93-.19.07.29.28.12.49.19.4.13.62.39,1.13.16.14.03.2.47.3.63.45.71,1.62,1.29,2.04,2.07.12.21.38,1.05.36,1.26,0,.04-.23.81-.25.84-.07.13-.57.28-.59.44l.15.47c-.3.11-.64.06-.93.22-.8.44-1.74,3.45-2.13,4.37-.08.19-.29.4-.32.54-.06.2.12.3.14.48.02.31-1.26,2.19-1.55,2.47-.21.21-.45.37-.76.31l.07.2-.12.13c-.39-.23-.78.27-1.02.26-.16,0-.26-.21-.41-.28-.66-.27-1.71-.22-1.94-1.09l.81.34c.18-.33-.47-.46-.62-.77-.18-.03-.36,0-.54.04-.83.17-.2.38.04.74.37.54.35,1.04.53,1.63,1.84-.35,3.69-.68,5.51-1.07,1.34-.29,2.95-.89,4.26-1.05.28-.03.85.07.91.05.13-.03.17-.45.65-.38,1.19.41,2.1.5,3.08,1.37.4.35,1.3,1.23.68,1.67.55.1.56.93.13,1.2-.2.13-.54.1-.69.25-.12.13-.08.38-.26.51-.74.51-3.3-.74-4.21-.91s-1.88.02-2.71-.11c-.33-.05-.53-.42-.9-.34l.09.34-1.28-.08.09.34-1.03-.26.09.43c-.19.02-.46-.05-.63.01-.12.04-.11.22-.2.25-.44.11-1.08-.19-1.51-.09-.04.01-.5.75-.57.15-.2-.24-.17.22-.39.36-.04.02-.65.33-.69.34-.17.04-.33-.17-.5,0-.24.25-.04.54-.04.81.02,1.75-.11,3.91-.36,5.64-.06.39-.33,1.09-.33,1.39,0,.36.47.53-.13.98-.18.14-.42,0-.26.34.76.1.34.56.26,1.11-.19.22-.14-.24-.34-.17-.7.59.56,1.03.13,1.74-.08.12-.32.11-.35.36-.02.18.15.34.17.52.08.57-.26.4-.47.64-.39.46-.31,2.53-.39,3.21-.01.09-.18,1.35-.43,1.07v-.51c-.7.23-.18,1.16-.36,1.66-.04.12-.23.15-.31.29-.18.3-.25,1.6-.57,1.74-.04.02-.21.03-.21-.04-.19-1.44.02-2.88,0-4.32l-.18.29-.33,1.42c0-.87-.01-1.74,0-2.61,0-.23.11-.43.09-.68-.03-.56-.71-1.92-.68-2.32,0-.12.14-.2.15-.27.02-.1-.18-.28-.2-.49-.04-.54.5-1.4.08-1.92-.07-.08-.22-.12-.29-.23-.27-.43,0-3.51,0-4.27,0-.5-.16-1-.09-1.54.06-.46.41-.43.01-.93l.59-.57c-.14,0-.31-.04-.43.04-.09.06-.03.24-.17.22,0-.38-.03-.78-.09-1.16-.02-.11.06-.15-.12-.13l-5.43,1.89c1.11,6.56.64,13.32-1.29,19.67.26.02.54-.04.79.02.19.04.32.23.49.28.49.17.95.23,1.44.35s2.13,1.62,2.22,2.06c.05.22.06,1.21.02,1.43-.07.37-1.07.8.14.98.95.13,1.35.34,2.12.97.33.27.97.98,1,1.4.02.37-.45.73-.5,1.04-.04.27.33.5.08.84-.35.48-2.46.44-3,.94-.19.18-.21.47-.35.68-.26.39-1.52,1.27-1.46,1.7,0,.03.47.22,0,.44l.17.33-.34.31.46.17.91-.34c-.08-.32-.77-.1-.86-.17.04-.14.06-.39.13-.51.24-.36,3.39-1.14,3.93-1.12,1.36.03,2.51.99,2.61,2.37.03.37-.3.66-.08,1.06l.73-.43c.34,0,.66.98,1.15.6l-.17,5.56c1.12-.66,2.07-1.52,3.25-2.1,1.52-.75.52.23.6.3l.34.04c-.32.48-1,.53-1.2,1.07l1.33-.59s.12.23.12.3c-.01.19-.5,1.3-.64,1.49-.26.37-.7.58-.98.91-.63.74-.91,2.06-1.8,2.65.92.36-.23.55-.38.73s-.13.62-.13.85l-1.11-.34-.17.99s-.72-.09-.8-.13c-.13-.07-.08-.25-.17-.32-.11-.11-.39-.05-.54-.19-.09-.08-.1-.32-.21-.39-.21-.13-.57.06-.73-.13-.19-.37-.11-.9-.28-1.26-.22-.48-1.03-.61-.79-1.39l.34.09c-.26-1.52.53-2.99.9-4.45.24-.95.69-2.71.73-3.64s-.93.04-1.2.18c-.39.21-.91.27-1.35.45-1.08.45-3.64,1.8-3.83,3.03-.21,1.4,1.03.38,1.49.2.53-.22,1.27-.28,1.84-.21.94.11.78.8.57,1.52l-.36.49.33.14-.16.97c-.55.19-1.24.84-1.77.97-.18.04-.38,0-.56.04-.26.06-.47.24-.75.24-.05-.43.5-.49.68-.77h-1.11c-.05.63-.25.77.34,1.15l-.35.18c.13,1.33-.34,2.6-.34,3.91,8.17,2.98,16.93,3.68,25.42,5.36l-.26.34c.33.02.78-.13.94.26l-1.11.3-.08.16.16.27-.25.21c.41,0,.84-.04,1.24.08.12.04.15-.05.12.17-.14.08-.5.05-.58.1-.07.04-.05.34-.24.4-.22.07-.51-.04-.8.06-.26.09-.51.47-.75.62-.64.4-1.56.24-2.29.36-2.02.35-3.41.77-5.57.75-2.68-.03-6.25-1.51-8.79-2.49-2.18-.83-5.04-1.88-7.05-2.96-.12-.06-.71-.42-.71-.49l.25-.21c-.37-.08-.69-.48-1.11-.3l.77.56c-.32-.06-1.1-.19-1.24-.51s.11-.54-.56-.51l-.13.25-.22-.51c-.49.23-.74-.28-1.18-.33-.21-.02-.37.09-.56.06-.22-.04-.59-.41-.86-.52-.35-.14-.68-.09-.94-.17-.19-.06-.36-.48-.61-.06-.11.19-.45,1.16-.54,1.43-.23.76-.2,1.47-.39,2.17-.26.97-.69.36-1.22,1.01l-.51-.43c-.97,1.41-1.78.05-2.06-1.02-.06-.24.02-.57-.12-.73-.41-.46-.95-.12-1.46-.13-.21-.82.84-.65,1.36-.95.15-.37-.22-.78-.24-1.06-.02-.26.25-.58.17-.89.1-.12.64.68.77.73l-.21.21c.42.18.47.56.99.43-.28-.52.46-.91.43-1.45l-.94.99-.26-.09c.14-.31.64-.7.68-1.03.04-.28-.39-.04-.5-.14l-.26-.48c-.19-.67,2.2-1.76,2.21-2.59.6.1-.1.63,0,.97.06.2.31.18.46.05.22-.19.65-1.01.83-1.31,1.27-2.2,1.73-3.62,3.71-5.36.14-.13.44-.77.47-.21.02.45-.17,1.06-.28,1.52-.5,2.01-1.35,3.91-1.94,5.89.06.07,1.19.15,1.39.19.32.07,1.51.53,1.67.3.23-.33-.19-1.48-.21-1.92-.02-.5.19-1.15-.03-1.65l.34.08v-1.41c0-.24-.39-.95-.4-1.03,0-.05.29-.98.32-1.02.1-.15.75-.27.47-.65-.12-.16-.43.04-.39-.21.03-.18.22-.25.23-.34.04-.4-.59-1.05.2-1.58-.61-.15-.81.28-1.22.53-1.42.85-4.81,2.24-5.82,3.23-.14.14-.16.35-.28.51-.3.39-2,1.19-2.5,1.27-1.45.22-2.34-1.1-2.82-2.27-.42-1.01-.03-1.8.94-2.26.74-.35.62.49,1.04.53,3.43-.93,6.66-2.49,9.84-4.02-.19-.57.05-1.97-.81-1.79l-.09.25c.01-.88-.86-.78-1.45-1.08-.38-.19-.77-.67-1.15-.82-.55-.23-1.16-.16-1.39-.92-6.51,9.71-17,16.45-28.63,18.14v6.76h-.94v-6.67l-1.45.17v6.5h-.94v-6.42c-8.77.59-17.58-1.64-24.98-6.3-7.73-4.86-13.61-12.14-16.91-20.66l-24.52,22.76h41.76v13.86H25v-16.22ZM147.62,86.72c0-22.19-17.99-40.17-40.17-40.17s-40.17,17.99-40.17,40.17,17.99,40.17,40.17,40.17,40.17-17.99,40.17-40.17ZM154.99,62.37l-.51-.31c-.11.13-2.54,1.01-2.23,1.25,1.01.02,1.76-.87,2.74-.94ZM162.95,62.2l-4.45,1.07c-.32.1-.6.67-.91.7-.21.02-.54-.2-.74-.15-.1.02-.12.53-.68.09-.13-.1-.21-.38-.38-.41-.04,0-.78.05-.83.06-.08.02-.1.21-.25.28-.21.1-.55.07-.77.17-.17.07-.24.24-.44.33-.51.23-1.25.25-1.76.55-.28.27.45,1.55.52,1.93,1.88-.78,3.85-1.31,5.78-1.97.14-.05.25-.17.38-.22,1.37-.46,2.34.44,2.99,1.54.07.23-.33.06-.51.17-.03.02-.39.47-.42.53-.17.3.02.48-.01.8l-.6-.17.04.34-.34-.4c-.48.18-1.03.14-1.52.25-1.77.39-3.45,1.43-5.29,1.52l.18,1.28c.12.1,2.31-.76,2.67-.87,1.05-.33,2.16-.52,3.19-.92.46-.18,1.57-.88,1.95-.77.07.02.05.15.06.16h.16c.77-1.91,1.54-3.86,1.97-5.89ZM166.88,72.73c-.64.1-1.22.44-1.88.34v.26s1.88-.17,1.88-.17v-.43ZM161.06,73.76l-1.14.17c-.3.6,1.14.28,1.14-.17ZM142.75,109.01c.2.16,3.28-1.48,3.67-1.76.93-.66.92-.94,1.03-2.05.07-.7.16-2.23-.15-2.84-.19-.37-.69-.53-.7-.97-.12,0-.13.13-.17.21-.3.65-.54,1.4-.84,2.07-.83,1.84-1.8,3.6-2.84,5.33ZM147.54,114.66c-.75-.02-1.67.43-2.34.78-.5.26-.76.4-1.08.89,0,.06.18.09.23.16.07.09-.06.28.14.23l.65-.47-.34-.04c-.24-.23,1.2-.64,1.33-.77.26-.05.04.33.17.43.13-.24.59-.24.71-.36.16-.16.07-.62.11-.66.03-.04.4.05.42-.17ZM150.78,115.16c-.09.05-.32,0-.49.06-.32.11-.79.62-.56.98.08.1.1.1.22.04.27-.14.93-1,1.02-1.33-.13,0-.13.21-.19.24ZM143.69,116.54c-.2-.04-2.01.57-1.71.85.61-.14,1.36-.29,1.71-.85ZM44.51,127.07v7.71h.94v-7.71h-.94ZM53.41,127.07h-.94v7.7l.86-.04.08-.56c1.39,1.28,3.56.7,4-1.18.59-2.52-2.04-4.22-4-2.5v-3.42ZM34.48,127.43c-2.83.38-3.87,4.07-2.12,6.18,1.37,1.65,4.19,1.84,5.47.01l-.74-.55c-.43.26-.63.63-1.14.8-1.61.52-3.18-.61-3.4-2.25-.35-2.59,2.38-4.44,4.38-2.52l.81-.63c-.82-.96-2.05-1.21-3.27-1.05ZM72.51,128.22c0-.37-.3-.68-.68-.68s-.68.3-.68.68.3.68.68.68.68-.3.68-.68ZM68.81,128.61h-.86v1.28l-1.11.05v.81s1.11,0,1.11,0v3.29s.24.42.3.47c.41.43,1.38.43,1.89.17l.04-.86c-.34.26-1.14.23-1.27-.23-.01-.05-.1-.63-.1-.67v-2.18h1.37v-.86h-1.37v-1.28ZM43.31,132.63c.45-3.84-5.15-3.7-4.79.04.23,2.34,3.24,2.91,4.62,1.2l-.73-.54c-.82,1.15-2.87.82-2.87-.71h3.77ZM51.36,132.63c.41-3.81-5.13-3.75-4.8.05.2,2.35,3.24,2.89,4.62,1.19l-.73-.54c-.62.91-2.18.94-2.73-.02-.1-.17-.29-.55-.09-.68h3.72ZM58.63,129.89v4.88l.9-.08c.27-1.58-.78-4.23,1.83-3.86v-.98c-.66-.2-1.34.13-1.76.63l-.04-.6h-.94ZM65.39,131.78h-1.58c-.05,0-.73.23-.83.28-1.12.53-1.2,2.13-.02,2.63.88.37,1.88.14,2.48-.6l.04.68h.86c-.46-1.64.86-4.63-1.59-4.96-.88-.12-1.61.15-2.35.59l.48.67c.91-.74,2.59-.83,2.51.69ZM77.97,134.77v-3.64c0-.14-.31-.64-.43-.77-.76-.86-2.24-.71-2.87.22l-.04-.68h-.94v4.88h.94v-2.78s.13-.47.15-.53c.3-.73,1.22-1.06,1.88-.57.11.08.36.49.36.59v3.29h.94ZM84.13,135.24v-5.35h-.94s0,.6,0,.6c-1.97-1.76-4.69.06-4,2.58.41,1.5,2.39,2.26,3.65,1.3.18-.13.19-.3.35-.38.05.93.06,1.82-.96,2.16-1.08.37-1.67-.11-2.55-.62l-.5.73c1.2,1.26,3.87,1.26,4.71-.41.05-.1.23-.54.24-.61ZM72.32,129.89h-.94v4.88h.94v-4.88ZM152.42,131.69c-.51-.43-1.24-.71-1.88-.85l1.05.61.83.24ZM156.96,133.49l-1.63-.6c.41.41,1.06.56,1.58.77l.04-.17ZM158.15,133.83l-.94-.17c.1.34.59.26.75.36.06.04.07.19.14.24.18.13.6.11.82.04-.12-.23-.73-.08-.77-.13v-.34Z"/>
    <path class="cls-3" d="M167.05,113.46c.7-.55.53-1.62.43-2.4,1.26,0,2.9,1.4,2.73,2.73l-.32.11c.17.59-.17.81-.33,1.25-.45,1.21-.71,2.57-1.34,3.7-.13.22-.23.44-.47.55,1.11,2.12,2.74,3.99,4.4,5.69.19.04.12-.08.13-.21.09-1.18-.38-2.3-.32-3.23.02-.31.24-.55.3-.81.19-.75.05-1.52.11-2.29.04-.57.24-1.12.27-1.69l.32-.23c-.05.67.09,1.32.21,1.97.33,1.83,1.81,8.26,3.08,9.33.09.08.28.08.34.17.06.08.38.93.39,1.06.03.36,0,.76-.09,1.12-.12.47-.36,1.17-.95.98v.51c-.63-.13-.62.41-1.07.6-.21.04-.1-.18-.21-.3-.21-.21-.7-.1-.98-.14-.71-.1-.86-.67-1.34-1.05-.3-.24-.7-.34-.98-.56-.2-.16-.31-.44-.47-.55-.17-.12-.48-.12-.5-.14-.03-.03,0-.25-.13-.43-.14-.18-.8-.5-1.12-.85-1.47-1.59-2.4-3.79-3.76-5.48l-1.37,1.28c-.93.82-2.28,1.1-2.99,2.14l-.08-.43c-.31.32-.55.86-1.07.85-.11-.1,1.08-1.35,1.18-1.51.31-.49.48-1.19.75-1.73.41-.81,2.11-3.02,2.09-3.73,0-.24-.66-2.4-.8-2.72-.15-.37-.46-.66-.58-.96-.14-.39-.56-2.85-.7-2.94-.33-.11-.58.13-.88.16-.82.1-.94-.32-1.55-.59-.27-.12-.58-.15-.85-.27-.58-.26-1.24-1.05-1.15-1.71.68-.1,1.41-.3,2.05-.56.29-.12,1.52-.67,1.54-.94-.31-1.8-.62-3.6-.85-5.4-.19-1.56-.15-4.25-.85-5.57-.43-.8-1.52-1.34-1.54-2.33.56-.41,1.09-.03,1.58-.02.27,0,.59-.19.89-.04.12.06.17.28.31.38.2.14.42.1.68.35.38.36.97,1.59.98,2.1-.45,3.11.44,6.13,1.15,9.11l.39.08.09-.77,1.54.34-.21-.43,1.2.52-.17-.51c.47.27.92.66,1.07,1.2l.25-.21-.51-.56c.86.12.57.34.7.88.11.43.48.77.1,1.17s-1.03.24-1.35.43c-.08.05-.11.22-.23.3-.58.38-1.6.63-1.69,1.48-.07.66.61,2.75.91,3.42.15.33.44.59.44.97.2.05.14-.04.2-.11.52-.66.73-2.73.83-3.62.01-.13.02-.26.17-.3v1.37ZM173.04,120.48v-.63s-.17-.65-.17-.65c-.02.42-.28.99.17,1.28Z"/>
    <path class="cls-3" d="M170.91,107.64s-.02.37-.34.48c-.6.19-1.29-.12-1.76-.48-.58-.45-.81-1.36-1.67-1.03.08-.32.15-.5,0-.82-.08-.18-1.06-1.06-1.29-1.28-.69-.65-1.56-1.03-1.54-2.18.06-.06,1.26.24,1.5.24s.49-.15.75-.13c.36.02.84.32,1.22.32.23,0,.44-.14.66-.07.24.07,2.19,1.23,2.42,1.44s.96,1.19,1.03,1.45c.05.18.14,1.21.13,1.42,0,.25-.47.73-.73.73-.11,0-.35-.12-.39-.09Z"/>
    <polygon class="cls-3" points="93.2 127.58 93.2 128.52 89.52 128.52 89.52 130.58 92.95 130.58 92.95 131.52 89.52 131.52 89.52 133.74 93.37 133.74 93.37 134.77 88.63 134.77 88.5 134.64 88.5 127.58 93.2 127.58"/>
    <path class="cls-3" d="M135.65,132.72h-3.85c.2,1.44,2.1,1.76,2.87.6l.71.44c.22.38-1.07.98-1.37,1.04-4.07.86-4.35-5.27-.45-4.99,1.56.11,2.19,1.49,2.09,2.91ZM134.62,131.86c-.13-1.82-2.54-1.63-2.82,0h2.82Z"/>
    <path class="cls-3" d="M109.12,132.72h-3.85c.2,1.44,2.1,1.76,2.87.6.92.46.88.75.01,1.21-3.11,1.67-5.29-2.51-2.94-4.23,1.93-1.42,4.22.11,3.91,2.42ZM108.09,131.86c-.13-1.82-2.54-1.63-2.82,0h2.82Z"/>
    <path class="cls-3" d="M119.56,132.72h-3.85c.21,1.42,2.12,1.77,2.87.6l.71.44c-.05.6-1.11,1.05-1.66,1.1-3.94.4-3.85-5.38-.08-5.05,1.47.13,2.15,1.57,2.01,2.91ZM118.53,131.86c-.09-1.82-2.55-1.63-2.82,0h2.82Z"/>
    <path class="cls-3" d="M124.87,134.77h-.94v-3.29s-.24-.42-.3-.47c-.49-.51-1.48-.37-1.83.23-.09.15-.27.79-.27.93v2.61h-.94v-4.88h.94s.04.6.04.6c.63-.83,2.14-.97,2.87-.21.1.11.43.66.43.77v3.72Z"/>
    <path class="cls-3" d="M97.48,129.89h1.2l-1.6,2.27,1.86,2.48c.02.17,0,.11-.13.13-.21.03-.8.03-.98-.04-.27-.11-1.02-1.46-1.3-1.78-.06-.07-.08-.17-.2-.14l-1.33,1.93-1.11.04,1.88-2.61-1.71-2.27,1.2.04,1.16,1.58,1.07-1.62Z"/>
    <path class="cls-3" d="M128.01,129.83c.84-.11,1.75.07,2.32.72l-.65.62c-.86-.66-2.19-.67-2.57.51-.59,1.83,1.14,2.99,2.59,1.81.62.42.92.63.12,1.07s-1.91.42-2.69-.03c-1.91-1.12-1.37-4.38.88-4.69Z"/>
    <path class="cls-3" d="M101.48,129.83c.84-.11,1.75.07,2.32.72l-.65.62c-.86-.66-2.19-.67-2.57.51-.59,1.83,1.14,2.99,2.59,1.81.62.42.92.63.12,1.07s-1.91.42-2.69-.03c-1.91-1.12-1.37-4.38.88-4.69Z"/>
    <path class="cls-3" d="M152.42,131.69l-.83-.24-1.05-.61c.64.14,1.38.42,1.88.85Z"/>
    <path class="cls-3" d="M158.15,133.83v.34s.66-.1.77.13c-.22.07-.64.1-.82-.04-.07-.05-.08-.2-.14-.24-.16-.11-.65-.02-.75-.36l.94.17Z"/>
    <path class="cls-3" d="M156.96,133.49l-.04.17c-.52-.21-1.18-.37-1.58-.77l1.63.6Z"/>
    <path class="cls-3" d="M173.04,120.48c-.45-.29-.19-.87-.17-1.28l.16.65v.63Z"/>
    <path class="cls-3" d="M111.33,75.57s0,.12.06.13c.34.07.66-.28.99-.07l.04-.26c.39.37.62.13.93.17.13.02.21.16.34.17.15.01.42-.13.61-.15.62-.06,1.24.42,1.89.47.56-.1,1.16.32,1.74.37l-.34.17.26.13c0,.14-.1.33-.26.3.27.25.03.28.03.4,0,.13.08.24.07.32,0,.1-.22,0-.18.14h.26s-.17.34-.17.34c.43.02.26-.32.51-.56l-.26-.21c.22-.02.29-.12.26-.34h-.34c.05-.16.24-.26.39-.17l-.04-.25c.4-.02.07.34.25.47.14.02.35.13.47.13.03,0,.08-.29.3-.17.03.14-.11.05-.15.1-.02.02.05.1.03.14-.01.02-.12.01-.12.06-.02.16-.02.79.15.77l-.17.26.25.17-.34.09.26.21-.26.09c.08.2.1.3.34.26l-.17.13.34.22-.34.26.17.09c.07.09-.51.24-.6.26l.04-.17-.22.05s-.08-.1-.11-.16c-.13-.32.29-.36-.57-.32v.43s-.34-.17-.34-.17v.26c-.22-.15-.35-.18-.6-.09-.04-.04.39-.69.04-.6-.21.06-.28.3-.32.32-.11.06-.24,0-.35.02-.08.02-.03.15-.18.18-.12.02-.72.03-.73-.13-.01-.22.51.14.34-.3-.29.2-.81-.04-.86.43l.26.17-.31.06c-.15-.34-.43-.18-.68-.4-.14.31-.27.47-.64.51l-.04-.34-.04.43s-.5-.12-.63-.06c-.17.07-.2.56-.52-.02l-.34.18-.09-.18-.25.1-.09-.18c-.38.34-.62.06-.87.03-.47-.07-1.25.22-1.7.19-.13,0-.25-.15-.43-.14-.26,0-.42.32-.8.01-.04.46-.62.05-.61.42l-.25-.17c-.1.22-.45.54-.53.09l-.21.07-.08-.15c-.2.17-.44-.03-.59-.02-.06,0-.12.33-.45.35-.09,0-.13-.23-.51-.16-.06.01-.64.21-.68.22-.2.02-.51-.06-.73.02l.04-.17c-.33.31-.67-.05-1.03.07-.15.05-.12.29-.49.19-.06-.02-.1-.44-.28,0-.33-.15-.59.02-.93-.01s-.21-.26-.48-.25l.09.26c-.25.04-.47.23-.56-.08l-.34.34-.15-.16-1.48.59-.09-.18c-.49.21-.96.2-1.45.26-.13.02-.21.15-.34.16-.07,0-.64-.12-.68-.15-.14-.1.11-.42-.31-.14l.43.47-1.39.69-.11.26-1.06.42c.21,0,.41,0,.62-.02.61-.09,1.26-.36,1.84-.47.82-.17,1.9-.26,2.82-.42.34-.06.71-.09,1.05-.11l-.09-.17c.46.12.89-.14,1.33-.17s.99-.04,1.44-.06c.14,0,.3.11.44.1.23-.02.3-.38.6-.38.15,0,.29.08.43.08,1.33-.04,2.83-.19,4.11-.09.03,0,.03-.13.1-.16.08-.03.51-.16.56-.16.33,0,.6.52,1.04.49.06,0,.01-.18.17-.18.15,0,.3.09.43.08.51-.03.99-.24,1.49-.07l.14-.34c.55.28,1.05.2,1.62.25.26.02.5.13.76.14s.34-.11.57-.14l-.04.17c.31.04.64-.15.86-.17.31-.04.32.25.51-.17.4.34.65.13,1.02.17.21.02.56.18.68.18.05,0,.04-.15.11-.17.84-.24,1.07.06,1.71.14.48.06,1.02.01,1.52.02.27,0,.47.17.73,0l-.26.21.51.04-.17-.17h.68s-.09.17-.09.17c.03.02.49-.17.51.09-.32-.13-.41.24-.49.26-.14.03-.33-.03-.48,0-.07.01-.07.14-.12.17-.25.14-.81-.17-1.14-.09.03-.26.49-.06.51-.08l-.13-.34c-.4.35-.88-.13-1.15.43l.34.04-.39.21c-.04-.26-.84-.46-1.01-.43-.07.01-.08.18-.2.25-.14.08-.39.08-.54.19l.09-.54-.35-.23v.86c-.45-.37-.96,0-1.46,0l.07-.16-.15-.06.51-.52c.06-.15-.12-.16-.21-.13-.05.02-.31.53-.43.6l-.17-.26-.37.19.07.16c-.24-.14-.6-.03-.64-.26l-.09.17-.21-.17c.04.27-.3.13-.48.24l-.26-.25c-.14.04-.27.1-.42.1-.62-.03-1-.08-1.54.08l-.09-.17c-.27.27-.68,0-1.03.02-.47.03-2.03.16-2.46.33-.08.03-.07.17-.11.17-.06,0-.46-.21-.57-.27-.07-.04-.07-.16-.11-.15-.09,0-.24.1-.38.11-.46.04-.94.13-1.34.39l.04-.21-.13-.13c-.2.28-.23,0-.47,0l.09.26c-.53-.27-1.25.15-1.73,0-.07-.02-.07-.13-.11-.15-.1-.03-1.01.37-1.24-.01.03.27-.2.13-.37.17-.08.02-.03.28-.51.15-.08-.02-.24-.22-.32-.15-.19.17.22.14.17.26-.18.05-.56-.14-.69-.13-.28.02-.49.18-.9.13-.26-.03-.45-.22-.72-.17l.26.26-.64.09-.17-.17c-.35.35-.75.14-1.18.27-.66.2-1.3.52-1.97.55-.77.04-1.5.24-2.25.28-.68.04-.69-.43-.94-.43-.15.39-1.11.31-1.33.47-.09.06-.05.24-.14.31-.16.12-.63.11-.82.17-.04.01-.65.32-.69.34-.07.04-.71.5-.73.54-.05.07,0,.22-.02.23-.09.09-.46-.2-.63-.18-.05,0-.05.13-.08.15-.1.04-.23.01-.29.06-.18.13-.23.52-.54.31l.08.43c-.24-.05-.96.16-1.11.3-.15.13.04.31-.3.29-.09.25-.15.4.04.61h-.25s0,.28,0,.28l-.17.1c.4.23.23.4.29.64.07.29.87.5,1.16.6l-.34.17.17.13c-.17.07-.2.1-.17.3l-.08-.17c-.41.09-.6.03-.86-.3l.34-.21c-.25.16-.43.05-.68,0v.43c-.24-.19-.04-.84-.31-.92-.09-.03-.21.17-.37-.23-.1-.24.57-.07.6-.3l-.77.08c.34-.35-.03-.66.09-1.03h.6s-.16-.37-.16-.37l.42-.23-.09-.25c.16-.02.75-.28.83-.37.06-.06.38-.54.51-.57.13-.03.4.04.45-.01v-.24s.34-.02.34-.02c-.05-.46.5-.14.26-.59l.43.09-.08-.26.77-.09-.17-.17c.29.06.35-.19.43-.43l.13.26c.41-.21.64-.41,1.03-.6l.12.17c-.03-.29.45-.17.63-.25.11-.05,0-.21.11-.26.23-.1,1.05-.22,1.31-.17l-.09-.17h.51s0-.26,0-.26c.44.19.7-.5,1.03-.64.21-.09.5-.18.75-.28.3-.12.65-.2.96-.28,0-.17-.4-.03-.43-.22-.02-.11.42-.51-.26-.55l.26-.09-.26-.13.43-.69-.26-.04c.16-.54.73-.29,1.2-.43-.26.26-.07.44-.04.68.03.2-.13.37.12.6h-.26s.09.34.09.34c.69.11,1.3-.22,1.95-.39.21-.06.23-.12.25-.12.23-.05.54.05.8-.09l-.5-.36c.32-.57-.09-.53-.17-.68-.06-.12.24-.77.42-.89l-.21-.21-.78.42-.16-.17c-.64.36-1.38.55-2.09.82-.12,0-.51-.29-.65-.38-.07-.04-.18.05-.12-.18.13.13.57-.01.67-.1.02-.02-.07-.15,0-.2.13-.08.78-.23,1.03-.34.35-.15,2.14-.98,2.27-.97.16.01.24.11.5.06.69-.14,1.34-.61,2.08-.74.46-.08,1.25-.04,1.58-.13.21-.06.16-.27.38-.31.19-.03.56-.06.78-.08.93-.08,2.16-.03,2.92-.34.12-.05.56-.21.66-.16.08.03.08.18.17.24.48.34.46.03.52,0,.02,0,.25.08.35.06.38-.05.76-.22,1.11-.1l.13-.32,1.87.3c.15.05.44-.13.51-.1ZM114.08,76.66c.08-.32.23-.39-.04-.68-.2.09-.11.59-.13.77h-.43c.18.22.26.35,0,.56.33.08.04.09.03.34,0,.13.05.25.14.35l-.26.04.26.26c.03.14-.24.11-.26.21,0,.04.15.27.25.22.04.12-.34.07-.17.25.03.03.66.2.77.22.76.12,1.63-.1,2.4.13l-.26-.3c-.05-.22.18-.08.26-.13-.08-.34.05-.45-.34-.64l.26-.08-.26-.17c.2-.13.42-.4.48-.64.03-.12-.25-.22.12-.52l-.68-.17.34-.08v-.26c-.38.18-.84-.18-1.03.26l.26.17c-.26.03-.78-.42-.98-.4-.09,0-.44.46-.73.32ZM112.57,76.47c-.05-.11-.03-.21-.03-.32-.18.09-.13.26-.4.33-.3.07-.1-.12-.28-.16-.13.2.1.56-.17.51l.25.3-.26.3.26.04c-.4.27,0,.52,0,.68l-.26.04v.26s.26.08.26.08l-.34.26.34.17c.09.09-.34.08-.17.25.15.16.65,0,.86,0l-.07-.13.15-.04c.02-.16-.31-.13-.34-.17-.12-.19.13-.26.14-.27.02-.04-.04-.09-.02-.13,0-.02.11-.02.12-.06.05-.35-.17-.42-.41-.6l.26-.04-.26-.26c.35.01.25-.46.27-.5.03-.05.19-.04.23-.16.13-.36-.12-.38-.13-.4ZM109.38,76.32c-.25.37-.71.02-.81.03-.11.02-.2.19-.34.19-.13,0-.3-.15-.42-.14-.05,0-.04.15-.16.2s-.4.02-.53.06l.04.17-.17-.17-.21.17c-.07-.23-.16-.18-.38-.17l.17.34s-.61-.58-1.03-.13c-.13.12.07.2.08.34.03.37-.21.58.18.9l-.34.13.26.21h-.16c-.1.21.18.31.22.36.02.02-.05.09-.03.13.01.02.15,0,.15.06,0,.13-.24.3-.09.55.62-.36.76-.08,1.24.26.09-.34.31-.09.51-.13.3-.05.59-.3.98-.13l.14-.34c.31-.03.49.25.52.25.05,0,.15-.06.23-.05.41.06.95.2,1.3-.03l.12.17.08-.33c-.54-.2-.1-.36-.09-.39.04-.11.04-.81-.23-.74l.08-.28-.18-.09c.23-.05.1-.15.14-.21.04-.06.16-.07.18-.1.02-.03.02-.53.19-.66l-.25-.18c.22.02.1-.1.17-.26-.31.17-.77-.04-1.06,0-.03,0-.11.23-.43.17l-.05-.17ZM104.58,76.92s-.23.09-.34-.09v.26s-.43-.09-.43-.09c.07.47-.24,1,.17,1.37l-.34.17h.34c-.05.19-.32.08-.26.39l.26.04-.09.21.17.05c-.17.19-.12.28-.08.51l1.11-.09-.33-.35.08-.25-.43-.09c0-.13.19-.13.24-.19.04-.05-.02-.85-.41-.67l.17-.08v-.17s-.17-.04-.17-.04c.28-.13.15-.46.19-.53.01-.02.29-.11.15-.37ZM102.46,78.11l.5-.81c-.25-.38-.33-.08-.48-.07-.81.06-1.44.3-2.22.34-.4.02-.58-.03-.97-.14l.26.17-.26.09.08.13.26-.05c.02.17.02.18-.15.18v.38s.15.08.15.08l-.17.21.17.04-.17.26.26.21-.34.17.34.08-.34.13.43.13-.17.17h.16s-.08.43-.08.43c.14.04.04-.17.13-.18.11,0,.24.1.33.1.05,0,.04-.16.11-.17.22-.06,1.2-.04,1.53-.04.13,0,.26.11.34.1.15-.02.17-.29.27-.32.21-.05.56.04.79,0l-.26-.26.17-.17-.51-.17.24-.19-.05-.14.15-.1c-.28.06-.12-.26-.18-.34h-.25s.08-.22.08-.22l-.15-.05ZM117.59,79.23c.63-.25.43-.71-.17-.77l.34.17-.34.17.17.43Z"/>
    <path class="cls-3" d="M115,85.59c.53.3.71-.03,1.16,0,.32.02.32.33.53-.11.44.37.9.18,1.36.26.18.03.34.21.54.24.26.03.65-.12.93-.12.77,0,1.6.54,2.32.72.41.1,1.24.06,1.56.32.07.06.08.19.09.21.08.1.06-.3.26-.17l-.09.26.21.08.13-.17-.05-.08c.24.03.42.24.62.32.43.17.7-.17.36.62.08.07.46-.09.55-.17.06-.05-.04-.31.18-.26.03,0,.35.27.39.34l-.34-.09-.08.39-.69-.05.06.15-.15.06v.17c.29.08.18.24,0,.44l.17.17c-.16.45-.2.45.08.81l-.34.21.34.3c-.4.05-.36.55.09.52l-.26.09.26.26v.16c-.46.01.2,1.03-.21,1.1l-.56-.24.26-.25-.34.08.08-.6-.34.09.26-.26c-.2-.02-.44-.02-.43-.26l-.17.6-.59-.08.51-.17-.52-.04v-.47s-.34-.04-.34-.04l.26-.13-.6-.26c.31-.38.3-.92-.17-1.15l.25-.17-.26-.13v-.13c0-.08.12-.01.15-.09.13-.3.28-1.14.27-1.46l-.16-.08c.08-.24.6.03.51-.3-.21-.07-.48.09-.65.08-.24-.01-.68-.43-.98.09l.43.04c-.42.39-.5-.04-.71-.16-.13-.07-.78-.32-.88-.32-.2,0-.16.24-.26.26-.13.02-.52-.14-.72,0l.17-.47-.17-.13-.17.17-.04-.34-.13.86c-.47-.46-1.14-.2-1.71-.17l.06-.16-.14-.02v-.12c1.21-.73.42-.85-.13-.04-.32.07-.01-.44-.25-.34-.35.15-.47.6-1.02.17-.21.08-.12.33-.16.41-.01.03-.13,0-.14.02-.03.04.14.2.15.31s-.12.63-.13.79c-.01.19.15.33.15.52l-.34.17.34.22c-.51.24-.03.45-.01.51.04.15-.22.27.18.43l-.24.17.24.82-.68-.09.17-.26-.34.08v-.51s-.26-.04-.26-.04l.17-.13c-.75-.2-.35-.41-.27-.75.09-.43-.21-.54-.32-.88l.26-.04-.17-.09c.05-.48.15-.95.43-1.36l-.18-.09.09-.38-.21.17-.09-.18-.55.09v.29s.17.1.17.1c-.32.27-.03.87-.04,1.11,0,.07-.2.37-.21.52,0,.02.27.15.25.29h-.34c-.12.28.26.32.26.39,0,.18-.6.61.08.64l-.17.13v.17s.17.08.17.08v.13c-.41.04-.08.71-.17,1.03l.65-.09c.13-.04.11.17.17.18.48.05,1.02-.2,1.48,0l.22-.25c.24.47.88.21,1.26.27.22.03.43.22.63.24.49.05.84-.21,1.52-.07.61.12,1.36.49,1.98.58.41.06,1.42-.12,1.49.39l.52.13-.13-.26c.38.12,1.03.1,1.24.43h-.42s0,.26,0,.26c-.36,0-.33-.37-.8-.25l-.05.25-1.37-.26c.1-.28.31-.13.47,0l.13-.34c-.24-.06-.5.12-.72.09-.25-.04-.47-.35-.82.04l.34.21c-.54.21-.44-.04-.66-.17-.04-.02-.87-.31-.92-.31-.06,0-.79.39-1.07.31l.17-.46-.39-.3c-.25-.1-.08.73-.13.85-.3-.34-.35-.18-.64-.19-.11,0-.23-.07-.34-.06-.34.02-.83.41-.9-.26l.77-.52-.46.1-.52.5-.04-.34c-.3-.03-.43.27-.73.26-.19,0-.31-.19-.54-.11l-.1-.16v.17s-.3-.17-.3-.17c-.05-.01-.03.13-.06.15s-.54.01-.56,0c-.02,0-.03-.2-.25-.22-.17-.02-.33.08-.5.07-.24-.01-.47-.19-.69-.18-.28,0-.41.38-.51,0h-.13s-.05.18-.05.18l-.64-.09.51-.34c-.37-.1-.68.35-.98.35-.22,0-.61-.21-.94-.18-.21.02-.36.16-.5.15-.17,0-.47-.22-.61-.2-.1.01-.19.17-.3.18-.25.04-.63,0-.9.04l.04.17c-.27-.03-.33-.33-.56,0-.07-.28-.31-.15-.56-.17l.17.26c-.23-.04-.57-.11-.79-.18-.08-.02-.06-.16-.1-.15-.71.02-1.52.32-2.19.5l.04-.34c-.21.22-.39.12-.64.08l.09.17h-1.06s-.06.17-.06.17l-.09-.17c-.32.18-.7.18-1.05.13-.08-.01-.16-.14-.26-.13-.03,0-.51.32-.57.24-.15-.21.21-.12.17-.26-.25-.09-.24.13-.32.16-.37.14-.47-.05-.58-.04-.31.01-.66.38-.95.39-.19,0-.54-.24-.63-.17-.19.16.22.15.17.26-.24.02-.59-.09-.81-.08-.26.01-.81.22-1.12.21-.34-.01-.65-.41-.81-.04l.26.17c-.25-.16-.4.1-.64.09-.17,0-.28-.15-.34-.15-.12,0-.41.36-.52.38-.1.02-.23-.08-.33-.06-.98.19-1.97.92-2.91.85l-.08.17c-.62-.02-1.41.26-2.07.42s-1.28.64-1.83-.12c0-.05.7-.44.85-.3v-.25c.41.03.72-.06,1.1-.16.45-.12,1.5-.41,1.88-.6.18-.08.04-.31.53-.11l-.09-.17.86-.09-.09-.42-.25-.05.17-.13-.41-.02-.1-.2.26-.25c-.02-.27-.27-.34-.32-.41-.01-.02-.03-.5-.02-.53,0-.03.27-.36.31-.57.02-.1-.12-.16-.1-.26.09-.47.8-.24,1.16-.34l-.26.3.17.08c-.27.21-.03.36-.03.43,0,.14-.32.18.02.25l-.08.42.18.14-.34.13.34.13-.25.21c.24.29-.09.46.43.39.04.14-.15.04-.17.14-.03.11.01.25,0,.37.22.04.37-.15.56-.17s.35.07.5.06c.44-.04,1.33-.67,1.9-.41l.09-.25c.3-.17.62.17.85-.25.05.25.25.08.47.17l-.09-.17c.73-.07,1.45-.16,2.18-.21.15-.01.32.06.51.04.33-.05.49-.41.78-.42.16,0,.33.1.51.09.48-.02,1.02-.23,1.5,0l-.26-.17v-.17s.26-.08.26-.08l-.6-.26.25-.18-.07-.24.16-.05c-.26-.24,0-.53-.43-.69l.17-.26-.26-.04c-.03-.13.12-.05.17-.15.1-.2.01-.43.05-.54.03-.09.19-.13.21-.3.03-.23-.14-.35-.14-.42,0-.06.26-.44.22-.47l-.34.08.09-.17c-.16-.12-.97.51-.86.13l.17-.13c-.38.04-.55.47-.94.09.04.29-.27.1-.41.19-.04.02-.04.17-.15.22-.26.11-.87-.18-.98-.06l.09.17c-.58-.09-1.22.21-1.75.18-.28-.01-.44-.12-.65-.14-.04,0-.26.06-.12.13l.21.17c-.29-.19-.73.37-.9-.09-.16.03-.49.41-.53.42-.1.03-.23-.06-.32-.05-.81.15-1.8.69-2.58,1-.24.09.07-.28-.17-.17-.68.32-2.06.72-2.85.92-.34.09-.97.12-1.13-.28-.07-.17.36-.18.41-.38.37-.25.79-.21,1.19-.34,1.42-.46,2.58-.97,4.06-1.26.61-.12.44-.04.98-.05.04,0,.04-.13.1-.15.58-.22,1.19-.41,1.82-.44l-.09-.17c.36-.16.65.16.9-.26.06.22.18.12.39.17l-.09-.17c.7-.06,1.4-.21,2.09-.26.21-.02.68.09.72.07.04-.01.3-.43.59-.49.19-.03.34.08.49.07,1.24-.07,2.42-.3,3.62-.41.37-.04.81-.17,1.01-.18.17,0,.34.11.49.09.06-.01.05-.15.12-.17.24-.07.71-.2.88,0l.05-.17c.34.23.55.49,1.02.43.06,0,.04-.15.11-.17.08-.03,1.38-.06,1.7-.09.21-.02.43.07.63.03.26-.05.2-.28.39-.28.26,0,.74.18.99.2.36.04,2.44.1,2.55.16ZM112.46,85.91c-.08-.09-.74.39-.91.43-.27.06-.63-.2-1.01-.14-.18.03-.32.22-.51.21-.18,0-.38-.19-.53-.2-.2-.01-.21.21-.32.25-.17.06-.66,0-.88.06.03.49-.15,0-.17,0-.26-.06-.21.18-.26.18-.15,0-.41-.27-.64-.18l.26.34s-.82-.29-1.03-.3c-.06,0-.76.06-.79.07-.12.03-.18.17-.29.21-.21.07-.62.08-.76.19-.24.19.06.8-.12,1.07l.17.05c-.31.3.05.36.09.68l-.26.13.26.13-.17.21.33.22-.08.2.16.09c-.13.25-.09.5.18.6l-.1.2h-.67s.07-.14.07-.14c-.3-.05-.14-.44-.41-.31l-.09-.09.17-.13-.6-.17c-.05-.08.21-.15.24-.19.02-.03-.12-.63-.17-.66-.1-.07-.35.08-.33-.1.32.04.07-.19.09-.38.03-.32.43-.73.09-1.07.16.01.13-.16.25-.3-.06-.18-.67,0-.84-.03l-.1.2.17.13c-.31-.04-.1.18-.11.37-.03.42.08.66.08.95,0,.12-.27.23-.05.59.04.08.21,0,.17.14l-.34.21.34.13-.26.3c-.02.2.08.29.26.3l-.17.25h.26s-.17.43-.17.43c.38-.2.76,0,1.08,0,.63,0,1.21-.14,1.86-.17.41-.02.84-.31,1.28-.25.08.01.14.31.31.38.08.03.2-.04.28-.02.67.17.24,0,.53-.03.25-.03.47.09.68.09.34-.01.78-.16,1.12-.17.19,0,.44.13.58.1.09-.02.08-.18.14-.22.04-.03.79.02.88.05.06.01.07.08.41.13.46.08.85.22,1.27-.05l-.34-.22.08-.37-.34-.04.34-.08-.6-.39c.03-.16.22-.09.31-.3.01-.03.04-.64.03-.67-.05-.15-.35-.1-.25-.4l.17-.04-.26-.3c.07.01.12,0,.16-.07.03-.04.3-.81.31-.87.04-.21-.27-.49.04-.78h-1.11s.46-.17.46-.17l.06-.26ZM124.27,87.45c-.47-.1-.56.23-.76.57l.17.16c-.19.24-.04.45-.05.51-.03.27-.21.34.04.64.1.01.18-.19.2-.27.2-.56.07-.66.08-1.06,0-.12.17-.27.14-.3-.03-.03-.2.07-.17-.09l.34-.17ZM124.1,90.7c-.08-.35-.03-.72-.47-.77l-.13.34h.26s-.09.35-.09.35l.43.09Z"/>
    <path class="cls-3" d="M108.18,99.08v-.16s.13-.01.13-.01c.13.09.25.31.38.37.1.04.86.23.82-.04.72.34,1.64-.08,2.31,0,.16.02.12.17.16.17.39-.02.45-.32.6-.34.07,0,.71.09.86.11.03,0,.23.08.48.11.59.08,1.44.27,2,.3.25.01.62-.12.75-.09.06.01.05.17.1.18.35.02.84-.08,1.19-.09.38-.01.51.26.69-.16.5.42,1.05.18,1.62.26.61.09.33.18,1.04.09,1.29-.17,1.54.27,2.48.33.72.05,1.46.12,2.22.18.22.02.65.04.52.26.29.2.64.07.93-.07l1,.28-.51.13.09.17-.97-.16-.05.25-1.46-.21c-.14-.07-.01-.21.05-.22.15-.02.38.3.51.09.29-.47-.78-.08-.86-.08-.16,0-.11-.17-.18-.18-.19-.03-.7.13-.8.34.17.01.43-.18.51.09l-.47.09c-.17.01-.12-.19-.27-.25-.06-.03-1.05-.27-1.1-.27-.16,0-.22.18-.36.23-.11.04-.93.18-.84-.06l.13-.3-.17-.13-.09.17c.04-.24-.06-.27-.26-.34l.08.85-1.11-.26.09-.26c-.25-.02-.51,0-.68.21l.51-.04c-.17.29-.63.26-.94.26l.07-.16-.14-.02v-.17s.72-.43.72-.43l-.09-.17c-.33-.05-1.03,1.18-.98.26-.25.1-.44.34-.73.35s-.41-.25-.68-.09l.04-.17c-.29,0-.12.32-.51.08-.03.23,0,.22.17.3-.35.26-.04.61,0,.95.06.65-.14.47.07,1.27.08.31-.04.81-.24,1.07l.34.13c-.15.37-.24,1.21-.12,1.58.03.08.17.15.2.21.1.23-.32.03-.4.26-.03.09.06.52.12.62.11.19.27.15.28.28-.2-.05-.38.54-.39.68-.01.18.26.64.27.74,0,.03-.16.33-.11.5.04.14.24.2.23.35,0,.08-.21.45-.22.6-.01.29.25.78-.04,1.12l.17.08-.12.04.03.26-.31-.29c0-.35-.26-.07-.46-.35l.17-.09c.03-.21.02-.27-.16-.33l.08-.31.34.04c-.15-.44-.34-.13-.6-.34l.26-.08v-.25c-.66-.12-.13-.6-.6-.77l.16-.06c-.16-.33.11-.19.15-.41s-.17-.29-.14-.35c0,0,.11.03.16-.07.22-.41-.05-.34-.07-.42-.04-.13.14-.6.07-.92-.01-.07-.13-.05-.14-.07-.03-.06.08-.15.05-.23,0-.02-.26-.06-.25-.31.53-.27.01-.4.1-.68.02-.08.15-.05.16-.06.02-.03-.14-.32-.13-.59.01-.23.27-.81-.04-.78v-.13c-.01-.08.12-.01.15-.08.02-.06.1-1.17.08-1.29-.08-.49-.11-.37-.1-.87,0-.32-.11-.65.2-.84l-.17-.08.17-.21-.3.17-.08-.16c-.25.1-.6.11-.87.08s-.69-.22-1.02-.17c-.14.02-.22.15-.34.16-.18,0-.41-.18-.65,0-.05-.3.46-.26.6-.17-.01-.15.09-.27-.13-.26-.35.02-.59.34-.94.35-.29.01-.54-.17-.85-.18-.34-.01-.66.16-.91.13-.19-.02-.46-.21-.63-.21s-.28.21-.43.23c-.13.01-.94-.09-.97-.06l.09.26c-.24.07-.13-.2-.33-.22-.14-.01-.23.11-.3.1-.11,0-.4-.26-.65-.14l.17.26c-.28.1-.39-.16-.52-.21-.66-.27-1.63.04-2.27.12-.58.07-.56-.16-.61-.17-.22-.03-.4.17-.67-.08l-.04.26-1.2-.04.43.05-.26.09c.27.25.03.31.02.48,0,.23.12.51.14.76.04.64-.13.44.07,1.19.08.31-.04.81-.24,1.07l.34.09c-.23.63-.22,1.36.08,1.97h-.34s0,.85,0,.85l.34.13-.35.85.18.05-.17.21.34.22c.09.21-.17.15-.17.22,0,.15.16.25-.08.46.55.18.19.37.12.64s.05.72.02,1.03c-.02.18-.12.35-.1.56l-.3-.09.08-.17h-.43s.26-.26.26-.26c.04-.14-.12-.06-.14-.1,0-.02-.12-.35-.12-.37,0-.24.33-.11.26-.38l-.51-.09c-.03-.15.15-.05.23-.1.05-.03.14-.29.11-.32-.55.03-.31-.47-.6-.73.3-.09.18-.49.21-.76.03-.24.13-.91.1-1.13-.02-.16-.3-.16.04-.25l-.43-.68.26-.18v-.17c-.44-.2.06-1.42,0-1.7-.02-.07-.19-.02-.17-.18.02-.15.15-.33.19-.51.05-.23-.07-.52.16-.48l-.34-.99c.27-.04.1-.8.21-.98s.44-.07.39-.34c-.2,0-.46.18-.65.16-.16,0-.21-.2-.38-.16l.08.22c-.24.08-.1.14-.13.29-.06.27-.18,1.46-.17,1.74.02.49.42,1.02-.11,1.56l.26.18c-.17.66-.24,1.37.08,2-.57-.06-.46.94-.09,1.03-.32.47-.44,1.18,0,1.58l-.17.1c.13.17-.06.38-.06.42,0,.09.22.17.24.35,0,.03-.09.47-.1.5-.02.07-.17.05-.16.09.01.12.19.49.15.69,0,.05-.15.03-.16.09-.04.27.39.74-.34.55l.26-.17-.51.09c-.11-.24.05-.33.09-.56l-.17-.16.08-.31.34.04-.09-.3-.16.07c0-.25-.13-.2-.1.01l-.17-.13.26-.38c-.2-.04-.36-.13-.26-.34h-.25c.19-.29-.05-.35-.08-.6l.26-.08-.26-.09c.38,0,.16-.45.18-.56.01-.04.16-.04.19-.23s-.12-.27-.13-.45c-.01-.2.06-.65.18-.81-.26,0-.52-.49-.42-.67.04-.07.29-.01.25-.31,0-.04-.13-.03-.15-.08-.04-.09.11-.26-.19-.34l.34-.17c-.13-.23-.28-.62.09-.64l-.17-.13c-.05-.18.12-.1.15-.17.12-.28-.15-.33-.16-.35-.01-.14.25-.61.3-.8.04-.15-.18-.38.13-.35l-.26-.17c-.04-.14.16-.04.18-.14.03-.2-.26-.61-.24-.76.01-.09.16-.15.18-.21.13-.52-.13-1.03.73-.95-.05-.47-.32-.08-.64-.07-.27,0-.21-.17-.25-.17-.26.01-1.1,0-1.21.03-.12.02-.35.31-.76.28-.24-.02-.4-.26-.65-.23l.21.26c-.73-.24-1.52.08-2.22,0-.31-.03-.57-.23-.9-.17l.34.25c-.33-.07-.69.12-.99.1-.16-.01-.12-.18-.17-.19-.28-.01-.55.36-.72.4-.1.02-.18-.13-.29-.12-1.01.08-2.29,1-3.34.83-.1.3-.19.09-.34.12-.48.11-1.69.53-2.16.73-.57.24-1.18.92-1.83.3.15-.35.61-.4.77-.51.09-.07.04-.25.14-.3.86-.48,2.44-.79,3.38-1.2.07-.03.07-.17.12-.17.73,0,1.72-.37,2.57-.48.22-.03.52-.03.67.14.05-.17.5-.28.71-.32.52-.11,1.05-.07,1.56-.2l-.09-.17c.41-.05.78.22,1.07-.17l.08.16c.11-.1.33.01.37-.01.02,0-.02-.14.14-.15.91-.11,2.14.15,2.99.07.2-.02.38-.25.54-.3.37-.1.69.04,1.01.04,1.68,0,3.35-.01,5.04-.11.23-.01.61.15.76.13.02,0,.04-.07.31-.13.34-.07.55-.25.85.04Z"/>
    <path class="cls-3" d="M104.95,65.91s0,.18-.04.21c-.03.03-.39.07-.56.17-.62.35-1.24,1.07-1.84,1.44-.04.02-.27-.01-.43.11-.18.13-.32.5-.66.52l.08.25c-.39-.05-.43.27-.6.38-.22.14-.47.22-.69.35-.11.07-.22-.02-.17.21.45.11.84-.32,1.24-.09l.04-.25c.43.2.4-.07.55-.09.46-.06,1.15.02,1.62.07l.28-.33c.89.24,1.74-.02,2.62.06l1.2-.32c.17.61.51.25.96.43,0-.1.46-.22.59-.24.21-.03.23.24.44-.17.14-.04,1.46.36,1.71.33.11-.01.19-.09.26-.17.13.36.62-.05.9.17v-.26s.17,0,.17,0c.03.4.46.16.63.19.44.07,0,.22.67.03.43-.12.49-.04.86.12.14.06.43.21.63.24.45.07,1.02-.05,1.41.26-.01-.63-.99-.32-.94-1.03l-.08.26-.51-.17.09-.25-.46.08c-.34-.46-1.21-.36-1.68-.64-.08-.05.02-.15-.05-.22-.19-.19-.56-.21-.76-.34-.12-.08-.29-.31-.42-.43-.13-.11-.27-.11-.38-.24-.21-.25-.12-.64.12-.85.08.09.52.16.54.18.43.33.52.56,1.14.86.77.38,1.55.77,2.34,1.09.14.05.25.15.36.25l.17-.17c.21.29.47.21.71.32.29.14,1.14.74,1.28.78.19.05.37-.11.56-.06.14.04.67.47.84.54.65.28,1.5.45,2.09.82l.08-.16.6.15c.03.22.11.56.32.67.04.02.16-.05.24-.03.16.04.15.18.23.21.19.07.49.06.68.15.13.07.1.19.11.19.13.08.22-.27.54-.07.15.09.18.25.25.31.39.28.98.75,1.43.8l-.06.15c.15.17.4.25.54.36.2.15-.03.33.46.17-.21.39.24.75.26.99.01.14-.09.29-.09.43.03.62.34.79-.17,1.37-.37.42-1.6,1.57-2.09,1.77-.21.09-.29-.12-.36.15-.22-.07.04-.61.04-.77l.25.26-.08-.51c.35-.06.54-.42.85-.09-.06-.21.24-.13.27-.22v-.38s-.26.09-.26.09v-.34c.41.28.43-.31.77-.17-.1-.27-.27-.42-.26-.77.29.07.48.26.77.04l-.77-.13c-.04-.21.03-.14.17-.21-.02-.43-.45-.21-.34-.52.02-.06.26.01.17-.21l-.26-.09.34-.09c-.39.09-.32-.13-.51-.3-.35-.31-.45-.45-.84-.69-.18-.11,0-.29-.45-.12l.04-.17c-.26.19-.17-.15-.47-.09l.43-.26-.63.16c-.34-.18-.4-.58-.82-.34l-.18-.42c-.29.3-.34.06-.58.02-.09-.02-.21.06-.24.05-.04-.01-.4-.32-.43-.41l-.13.34c-.04-.42-.41-.51-.73-.68l-.08.17c-.2-.17-.49-.2-.73-.09l.17-.34-.25.07c.03-.14-.1-.24-.18-.16-.03.03.07.21-.08.17-.09-.46-.85-.13-.99-.51h-.21s-.08.17-.08.17l.17-.34-.73-.25-.21.25-.17-.26-.08.39-.35.04c.07-.28.32-.23.26-.6l-.43.09.17.17c-.29.11-.42-.02-.68-.08l-.13.34-.64-.3c.19-.26.4.19.34-.3-.31.17-.65,0-.85.3-.02.04.35.06.17.21-.07.06-.67-.38-.81-.42-.29.45-.82.64-.47-.09l-.26-.17-.04.77c-.33-.42-.64.05-.98-.09v-.33s-.18-.17-.18-.17l-.47.26c-.19-.4-.4,0-.43,0-.21,0-.93-.33-1.36-.25-.03,0-.31.37-.44,0-.19.29-.29.06-.53.04-.18-.01-.29.11-.39.11-.15,0-.28-.14-.36-.15-.04,0-.03.14-.15.19-.15.07-.52-.06-.49.23l-.08-.17-.25.17-.13-.26c-.22-.01.07.44-.17.34-.21-.09-.43-.34-.78-.33-.05,0-.06.17-.18.23-.15.08-.36.06-.5.19l.04-.26-.26-.09-.09.26-.54-.09-.1.18-.09-.17c-.17.25-.5.17-.6-.09-.14.31-.92-.01-1.07.09l.09.17c-.22.02-.42.02-.56-.17l-.09.18c-.27-.18-.51.01-.77,0-.3-.01-.3-.26-.56-.26l.17.34c-.25-.15-.48.17-.56-.17-.2.36-.55.16-.83.26-.08.03-.07.15-.17.19-1.04.39-2.4.31-3.29.85-.04.02-.05.13-.13.17-.69.42-.48-.02-.76,0-.44.04-1.06.56-1.53.57v.33s-.48.01-.6.05c-.27.08-1.13.34-1.03.64-.29-.11-.67.31-.51.68l-.32.02c.05.37-.33.44-.4.58-.05.1.06.5,0,.69-.13.39-.58.33-.47.81.04.17.4.87.51,1.03.09.12.25.09.25.22h-.68s0-.34,0-.34l-.42.08-.18-.68.21.17.21-.17c-.26-.02-.4-.28-.43-.51-.14-.13-.25.48-.43-.04l.59-.56c-.12-.26-.34-.3-.16-.63l.69.13c-.03-.27-.84-.29-.68-.51,0,0,.11.02.16-.07.15-.28.08-.47.22-.71h.65s-.08-.5-.08-.5c.35.03.62-.3.77-.6l.17.17c.03-.29.71-.24.79-.58l.15.07v-.25s1.12-.23,1.12-.23c.26-.47.22-.16.54-.2.03,0,.11-.17.21-.23.27-.18.44.01.28-.37l.21.17.05-.16.25.07-.17-.34c.2.05.63,0,.6.25l.34-.43.17.17.34-.6.08.2.17.06c-.03-.32.23.08.17-.25l-.26-.09c.48.15.46-.06.71-.22.03-.02.11.03.15,0,.11-.07.03-.32.3-.13l.04-.16.26.17v-.24c.42-.07.73-.13.85-.58l.43.05-.09-.26c.5.03.74-.58,1.28-.34l-.26-.26c.31.02.22-.27.6-.12l.08-.39.25.07c.17-.12.35-.46.43-.54.29-.3,1-.77,1.35-.97.16-.09,1.07-.51,1.18-.5l.47.44c-.07.12-.23.15-.32.24Z"/>
    <path class="cls-3" d="M127.69,113.03l.51-.09-.34-.17,1.8.09-.58.19-.06.24h-.25c-.14-.31-.64-.1-.91,0l.17.13c-.11.27-1.57-.08-1.88.04.09-.32.7-.04.76-.09l.09-.25c-.42-.26-.67.14-.99.17-.37.03-.83-.26-1.15.26.14,0,.47-.14.51.09-.16,0-.36.13-.51.14s-.2-.18-.39-.22c-.14-.03-1.21-.16-1.27-.15-.11.02-.21.23-.37.3-.24.11-.58.08-.83.19l-.09-.17.14-.34-.26-.09-.09.26-.04-.34h-.3s.17.77.17.77c-.48-.22-.81.03-1.28-.09l.09-.26c-.27-.01-.63-.03-.77.26l.6-.04c-.39.32-.89.45-1.2-.04l.81-.51c.13-.1-.16-.14-.18-.14-.26.04-.66.41-.77.65h-.17s-.18-.27-.18-.27c-.39.16-.54.42-1.02.34-.19-.03-.27-.27-.52,0l-.08-.26-.09.26-.47-.17.04.17-.77.08.09-.34-.34.26-.09-.18c-.48.26-1.09-.02-1.53,0-.22.01-.54.08-.85.1-.33.02-.66.06-.99.07l.68-.17-.04-.26c-.74.41-1.22.44-2.04.39-.15,0-.27-.12-.43-.11-.2,0-.45.21-.68.21s-.59-.23-.77-.21c-.15.02-.28.18-.45.21-.32.05-.84,0-1.19.03l.04.17c-.17.04-.24-.17-.39-.17-.13,0-.2.17-.34.18-.05,0-.03-.16-.1-.17-.17-.04-.44.03-.63,0l.26.17c-.12.22-.59.05-.65-.17l-.33.08-.14-.25c-.36.39-.98.05-1.32.09-.39.04-.77.35-1.28.25-.13-.03-.23-.15-.35-.17-.22-.02-.45.2-.68-.09l-.04.25c-.36-.08-.7-.09-1.07-.09s-.88.11-1.19.1-.83-.24-1.03-.23c-.17,0-.53.25-.81.14l.26-.26c-.35.06-.5.24-.89.17-.13-.02-.23-.17-.33-.15-.48.09-.98.34-1.54.22-.13-.03-.51-.3-.57-.24-.17.17.4.2.04.26-.85-.28-1.69-.04-2.56-.18-.25-.04-.33-.22-.68-.26-.08,0-.33-.05-.3.09l.43.17h-1.2s-.04-.25-.04-.25c-.25-.02-.6.23-.78.25-.27.03-.96-.11-1.37-.09-.83.03-1.93.3-2.74.27-.16,0-.11-.17-.18-.18-.7-.11-1.99-.05-2.81-.08-.71-.03-1.42.04-2.12-.09l-.49-.56c.08-.13.18-.1.3-.13.65-.16,1.28,0,1.88,0,2,.02,4.42-.24,6.35-.06.84.08.93.08,1.78.05.79-.03,1.76.08,2.48,0,.22-.02.65-.38.86.09.08.01.02-.12.06-.15.27-.17,2.99.14,3.5.19l.04.22.3-.09-.17-.17c.59-.38.92-.18,1.49-.17.99.03,1.96.13,2.91.09.64-.03,1.19-.03,1.79-.01.36,0,2.03.05,2.22,0,.02,0,.07-.06.33-.11.29-.06.78-.34.88.02l.33-.18c.23.48.43.31.75.36.15.03.34.16.45.16.05,0,0-.16.17-.18.34-.05.66.09.94.08.49-.01,1.04-.16,1.55-.17.22,0,.53.12.67.1.09-.02.1-.21.18-.27.12-.1.89-.01,1.12.01.91.09,1.9.24,2.83.25.35,0,.69-.07,1.02-.17l-.04.17c.29-.13.56.02.8,0,.36-.03.81-.36,1.25-.08l.13-.35c.6.44,1.09.17,1.71.17.36,0,.66.12,1.03.09.4-.03.85-.23,1.28-.26.97-.07,2.09.21,3.08.18l2.19-.09.13.26.09-.52.04.51Z"/>
    <path class="cls-3" d="M107.82,93.71s.06.2.21.27c.11.05.56.12.71.14.25.03-.04-.18.08-.17l1.02.18.1-.18c.46.22.92-.07,1.41,0-.22.51.51-.17.55-.18s.78.08.84.09c.57.13.96.19,1.64.26.57.05,1.06.31,1.67.09l-.09.17c.05.04,1.15-.09,1.33-.09.33-.01.41.27.6-.16.51.46,1.01.19,1.53.26.24.03.5.24.78.24.5.02,1.04-.24,1.61-.16.61.09,1.36.4,2.07.5.59.08,1.2.06,1.78.18l.04.22.61.04-.17-.17c.38-.06.73.14,1.08.22.13.03.32-.11.37.12h-.34c-.05.11.36.1.17.26s-.45-.48-.39,0c-.12.03-.26-.07-.36-.06-.06,0-.48.25-.41-.02l.21-.17c-.27.09-.34.05-.39.35l-1.49-.3c.14-.29.77.24.68-.17-.07-.32-.66.05-.81.04-.23-.01-.67-.41-.98.09l.43.17c-.48.19-.51-.07-.81-.18-.13-.05-.9-.3-.95-.3-.15,0-.29.23-.44.28-.06.02-.77.05-.8.03l.17-.51c-.21-.13-.16.34-.34.17-.03-.03.15-.26-.04-.34-.26-.1-.07.7-.13.77-.17.03-.22-.16-.39-.17-.23-.02-.62.23-.77-.17-.18.38-.54.32-.9.25-.06-.52.52-.5.77-.85-.52-.11-.76.4-1.15.6l.04-.34c-.5,0-.48.44-1.05.25-.1-.03-.02-.29-.36-.08l-.05-.18-.13.17h-1.06s.08-.26.08-.26l-.21.17-.09-.18c-.24.09-.51.12-.77.09-.32-.04-.92-.25-1.27-.18-.06.01-.05.17-.11.18-.15,0-.49-.17-.72-.09l.6-.34c-.4-.1-.73.35-1.07.35-.28,0-.73-.2-1.11-.18-.21,0-.38.15-.57.13-.2-.01-.6-.28-.63-.28-.04,0-.22.22-.4.27-.26.07-.85-.12-.97.23h-.13c-.05-.42-.32-.1-.46-.11-.17,0-.43-.22-.66-.15l.26.34c-.27-.11-.63-.17-.88-.26-.08-.03-.06-.16-.11-.17-.52-.03-1.95.43-2.29.34-.07-.02-.05-.17-.11-.17-.17-.02-.54.13-.8,0l.09.26c-.14.05-.19-.12-.3-.13-.69-.06-1.45.28-2.12.13-.07-.02-.06-.13-.11-.15-.2-.07-.62.38-.9.24l.17-.26c-.25-.09-.24.14-.32.16-.39.13-.79-.06-1.22.05-.06.02-.12.15-.23.19-.37.11-.7-.09-1.06-.14l.26.26c-.33.08-.69-.1-.98-.09-.18,0-.32.13-.47.15-.59.04-1.05-.03-1.63-.14l.26.26c-.3-.06-.62.12-.9.1-.17-.01-.11-.19-.17-.19-.22,0-.59.37-.72.4-.12.03-.21-.11-.31-.1-.66,0-2.17.72-2.95.88-.51.1-.82-.07-1.5.15-.31.1-.41.09-.75.17-.49.11-1.65.49-2.06.38-.19-.05-.35-.31-.58-.32.2-.31.6-.37.94-.34l-.09-.17c1.09-.23,2.18-.46,3.27-.71.33-.07.49-.37.92-.15l-.09-.17c.58-.08,1.16-.17,1.75-.27.67-.11.55-.02,1.13,0,.04,0,.5-.26.79-.31.33-.06,1.06-.06,1.25-.12.12-.04.11-.22.2-.25.2-.05.52.05.74,0,.06-.02.05-.15.12-.17.09-.02.32.08.45,0l.04.17c.08-.01,0-.15.1-.17.4-.11,1.75-.18,2.21-.18.26,0,.53.15.81.09l-.09.17h.26s-.08-.25-.08-.25c.19-.03.28-.23.47-.26.33-.06,1.2-.04,1.61-.05,1.67-.04,3.31-.04,4.97-.12.32-.02,1.16-.35,1.49-.15Z"/>
    <path class="cls-3" d="M127.95,101.65c.04.14-.11.05-.16.1-.03.04.04.14.02.19-.16.58.01.55,0,.94,0,.31-.17.62-.14.95.02.16.16.11.18.18.07.28-.09.69-.25.93l.26.18c-.13.24-.22,1.46.04,1.57l.3-.3-.33-.58.25-.27-.17-.08c.15-.13.08-.33.11-.43.01-.05.11-.03.13-.08.07-.22-.15-.23-.15-.26-.01-.3.5-.75.18-.94l.17-.08c-.05-.05-.12-.1-.13-.17-.11-.8-.11-2.22,1.07-1.5v.08c-.37.03-.06.9-.1,1.24,0,.06-.14,0-.16.16-.02.15.02.32,0,.48l.17-.09c-.08.32.1.84-.26.98l.34.13s-.21.45-.22.56c0,.08.1.16.1.26,0,.3-.17.4.15.72.22.22-.2.25-.37.27l.09.77h.34c-.23.33-.36.66-.25,1.06.02.08.23.02.07.23h.26c.03.14-.12.04-.17.15-.2.46.22.52.23.66,0,.09-.2.36-.21.53,0,.1.1.18.1.24.02.33.07.67-.04.98l-.08-.17h-.51c-.13-.19.02-.41,0-.55,0-.02-.23-.13-.18-.4.08-.06.42.13.34-.17l-.51.09.26-.43c-.45,0-.36-.28-.43-.54-.03-.11-.22,0-.17-.19l.26-.04-.26-.13.18-.1-.08-.42.17-.09c.04-.21-.13-.32-.14-.42-.02-.22.23-.41-.04-.64l.17-.08c-.23.06-.13-.25-.21-.26l-.51.17.04.77h.26c-.18.32-.29.71-.21,1.07.03.12.14.2.17.35s-.07.39-.03.5c.05.13.24.12.25.19.02.16-.22.54-.22.67,0,.22.27.51-.04.77l.18.09-.09.55-.34-.26.17-.17-.43.08-.09-.26h.34s0-.34,0-.34c-.28.21-.46-.2-.34-.34.04-.04.35.1.25-.17-.21.17-.16-.08-.21-.08l-.22.08.26-.43c-.18,0-.33-.05-.47-.17-.29-.25.06-.14.04-.21-.05-.22-.33-.17-.26-.39h.26c-.16-.24.1-1.08.07-1.16-.02-.05-.14-.03-.16-.1-.02-.07.07-.73.17-.8h-.25s.03-.17.03-.17l-.21-.08.26-.25-.26-.04c.55-.24-.05-.53-.08-.7-.02-.1.13-.19.15-.27.04-.28-.04-.66.19-.92-.32-.07-.02-.63.05-.9.03-.13-.16-.28.12-.26-.24-.37-.29-1.74.15-1.95.22-.1.55-.11.79-.11Z"/>
    <path class="cls-3" d="M121.95,78.38l.06.17.72-.09-.17.17.17.09-.17.3.16.08c-.02.12-.1.41-.08.5.02.11.21,0,.17.14l-.34.04.34.13-.26.13.34.13-.17.09.18.13c-.22.42,0,.33.08.44.44.73.73.5,1.39.72.32.11.62.38.83.46.42.17,1.04.15,1.42.29.24.09.9.56,1.11.53l.16-.17c.51.43,1.05.46,1.65.66.13.04.12.16.13.16.1.03.96-.11,1.09.03-.11.56.14.38.34.47.07.03.12.14.22.17.19.06.52-.1.6.21h.13c.03-.15.07-.29.26-.26.04.39.59.68.9.94.2.17.45.35.66.51.15.12.08.36.4.18-.24.37.09.7.08.9,0,.15-.18.25-.21.37-.04.15.09.34.1.5.02.46-.28.4-.51.62-.28.27-.52.82-.87,1.11-.09.08-.33.26-.42.26l-.21-.22c.08-.23.04-.36.33-.3l-.18-.13c-.07-.17.42-.64.52-.55.17.15-.19.18-.17.21l.26.21c0-.25-.08-.39.18-.48l-.09-.29h-.43s.77-.34.77-.34c.02-.03-.31-.32-.26-.54.03-.1.21,0,.17-.14l-.16-.04.09-.25c-.27-.07-.11-.37-.12-.61-.22-.08-.56-.64-.67-.7-.04-.02-.17.06-.24.03-.15-.08-.69-.45-.75-.46-.1-.02-.24.08-.27.06-.03-.02-.02-.19-.15-.23-.02,0-.47-.03-.5-.02-.1.01,0,.21-.14.18l-.04-.16-.22.08-.08-.26-.04.26c-.28-.61-.57-.33-1.01-.43-.07-.02-.02-.22-.22-.1l-.1-.15v.17s-.39-.26-.39-.26l-.13.17c.05-.27-.58-.1-.34-.43-.32.17-.47-.13-.81-.26l-.08.17c-.26-.04-.5-.36-.63-.43-.29-.15-1.04-.25-.96-.6l-.38.18-.33-.24-.44.32c-.19-.08-.17-.33-.23-.41-.03-.03-.75-.14-.87-.2l-.18.26c-.11-.28-.08-.29-.43-.34l.04.51h-.6c.03-.24.35-.21.43-.26.02-.01-.17-.36.04-.42.06.17.81.18.81.13l-.78-.53c-.14-.21.05-.46-.07-.65-.05-.07-.49-.48-.61-.4l.08-.17-.34-.14.17-.42-.34-.13.17-.13-.26-.04c.01-.12.24-.18.3-.28.13-.21.15-.48-.05-.66l.34-.09-.09-.17h.17Z"/>
    <path class="cls-3" d="M108.86,56.56s-.02.16.03.23c.23.28.61.24.92.37l-.17.17c.42,0,.27.21.31.26.12.15.32.18.38.48l-.17.08c.29.13.08.48.13.56.04.07.3.03.22.29-.01.04-.15.03-.16.08-.06.31-.05.34-.15.69-.03.11.19.34-.12.3l.17.08c.04.15-.13.21-.15.31-.02.09.09.67.06.71-.04.05-.28.04-.33.11-.04.06.02.21-.03.3s-.38.15-.32.49c.31.15.29.22.68.14.05.36.31.64.46.96.12.25-.03.51.32.62l-.3.22c-.12-.45-.53-.24-.64-.3-.21-.11.09-.27.26-.13v-.26s-.34.08-.34.08v-.26s.26-.08.26-.08h-.42s-.18.26-.18.26l.08-.34-.68.26-.04-.26c-.18.03-.24-.16-.26-.16-.34-.03-.69.09-.85.42l-.17-.16c-.06,0-.1.19-.14.23-.15.12-.6-.25-.51.18-.31.1-.91.29-.66.65-.23.06-.2.29-.28.38-.07.07-.77.24-.84.19-.12-.23.05-.33.09-.55.15-.79.12-.36.45-.84.12-.17.05-.34.09-.4.11-.15.4-.17.5-.25.09-.08.05-.24.14-.3.12-.09.95-.27,1.01-.32s.06-.19.15-.24l.18.35c.26.03.43-.09.46-.35.42.19.61.39,1.11.26-.16-.25-.77-.13-.86-.47l.26.13-.09-.34c.4.05.45-.57.57-.92.02-.05-.05-.15-.03-.18.03-.05.18-.03.21-.14.09-.35-.13-.42-.14-.44-.04-.14.11-.79.17-.97h-.25c0-.63-.33-.94-.95-.77v-.43s-.51.09-.51.09l.09.26c-.2-.16-.94.17-.94.31,0,.2.21.23-.08.34l.07.19-.16.06c.35.4-.04.44-.07.7-.01.1.26.62.07.84l.25.04-.47.35-.09-.18-.29.09-.09-.26.34-.04c-.13-.27-.43-.28-.34-.64h.43c-.17-.11-.33-.1-.38-.26l-.39.17.35-.47-.26-.34.17-.13h-.26s0-.6,0-.6c.44.11.46-.43.78-.63.15-.1.43-.1.49-.16.14-.14-.08-.26.5-.38.19-.04.46-.02.65-.04.12-.02.67-.32.74-.24Z"/>
    <path class="cls-3" d="M82.42,60.92l1.11,2.53c.02.27-.34.52-.57.62l-3.62-2.25.77-.61,2.05,1.33-1-2.35c.14-.17.42-.51.64-.54.32-.05,1.89,1.13,2.33,1.27l-1.19-2.28.76-.71,1.78,3.88-.61.56-2.45-1.44Z"/>
    <path class="cls-3" d="M136.85,67.76c.08.1,1.75-1.4,1.97-1.5.07-.03.12-.07.2-.03l.48.57-.07.24-3.21,2.35c-.14-.32-.67-.72-.64-1.07l1.11-2.96-2.2,1.62-.53-.71,3.27-2.44.74.97-1.11,2.95Z"/>
    <path class="cls-3" d="M132.81,95.17s.03.16.16.22c.42.18,1.39-.1,1.66.61.52-.34.51.05.83.25.16.1.68.48.73.5.1.05.56.03.71.19.1.13-.07.34-.06.46.03.17.8.41.61.66l.43-.17c-.05.27.38,1.75.53,1.87.06.04.16.01.24.02.04.14-.22.08-.25.22-.02.1.08.23.06.32-.02.11-.22.19-.22.26,0,.05.19.17.16.42l-.97,1.21c-.47.12-.56.55-1.08.63-.05-.3.29-.05.08-.38h.17s-.26-.26-.26-.26l.5-.22c-.04-.25.08-.41.31-.5.24-.1-.04.36.21.34v-.6s-.17.08-.17.08l-.09-.25.43-.13c.03-.18-.13-.07-.18-.25-.06-.2.04-.41.01-.5-.02-.1-.26,0-.17-.23l.26-.04c.05-.27-.13-.4-.14-.52,0-.04.1-.12.09-.17-.04-.31-.49-.62-.7-.93-.05-.08-.01-.2-.03-.22-.02-.03-.54.19-.55-.08l-.22.08c.19-.6-.31-.53-.77-.51l.26-.17c-.26.08-.31-.21-.36-.23-.04-.02-.15.04-.26-.04-.24-.15-.4-.33-.62-.5l-.04.17-.17-.26-.17.17c-.06-.41-.57-.18-.43-.68l-.08.26h-.26s0-.26,0-.26l-.21.17c-.05-.39-1.08.14-1.15.08l.09-.3-.08-.09c-.61-.07-1.02-.24-.85-.97.31-.14.52.1.83.14.18.03,1.12.07,1.2.12Z"/>
    <path class="cls-3" d="M86.99,95.2c.05.07.21.04.13.29l-.13-.17c-.13.36-.34.21-.62.32-.31.13-.41.34-.63.48s-.62.15-.68.19c-.1.06-.17.38-.51.29l.26.17c-.18-.03-.23.21-.28.24-.06.04-.17-.04-.24-.02-.28.09-.54.21-.84.21v.33c-.27.04-.51.13-.75.24-.28.13-.47.31-.65.5-.47.51-.31.24-.69.21-.28-.02-.9.46-.65.76-.53-.01-.86.31-.93.82l.16.12-.16.02-.1.41.31.08c.01.54.03.65.53.88l-.07.15c.25,0,.39.06.34.34-.16-.03-.01-.25-.3-.17-.03,0-.03.15-.1.17-.24.06-.62.04-.68-.25-.03-.15.26-.21,0-.32-.21-.1-.21.24-.47.15l.08-.51c-.16,0-.42.02-.43-.22l.34-.13h-.51c.14-.27-.14-.43-.17-.68l.33-.1c-.05-.39.27-.52.27-.93.15.15.42-.07.49-.19.11-.2.05-.36.39-.55.2-.11.37-.15.57-.34.21-.2.27-.52.6-.37l-.26-.34.46.16c.15-.05.35-.54.42-.57.12-.07.31.01.44-.02.15-.03-.1-.17.45-.19.05,0,.04-.14.11-.15.11-.03.33-.02.37-.04.08-.06-.04-.23.18-.32s.28.02.37,0c.05,0,.03-.13.1-.15.46-.15.69-.12,1.11-.46.08-.07.39-.49.43-.49.11-.01.25.1.32.1.07,0,.06-.19.19-.24.04-.02.64-.16.67-.16.11.01.34.34.42.45Z"/>
    <path class="cls-3" d="M104.39,52.33c0,1.23-1,2.24-2.24,2.24s-2.24-1-2.24-2.24,1-2.24,2.24-2.24,2.24,1,2.24,2.24ZM101.74,51.1c-.55.11-.85.69-.84,1.22.05,1.85,2.72,1.68,2.48-.16-.11-.89-.8-1.23-1.64-1.06Z"/>
    <path class="cls-3" d="M126.83,57.33c.33.41.42.9.12,1.36-.74,1.17-2.57-.24-3.37-.72l2.09-3.55c.79.5,3.06,1.36,2.01,2.61-.24.29-.49.33-.86.3ZM125.73,56.38c1.3.84,1.74-.24.38-.76l-.38.76ZM124.87,57.83c.38.07.86.66,1.25.35.48-.39-.5-1.12-.78-1.12-.18,0-.53.67-.46.77Z"/>
    <path class="cls-3" d="M141.64,71.36l-.9-.25c.07-1.16-.83-2.13-1.98-1.48-.98.55-.77,1.79.1,2.3l.46-.24-.25-.71.73-.4.82,1.46-1.97.99c-1.47-.97-2.22-3.23-.4-4.26,1.92-1.09,3.63.67,3.39,2.58Z"/>
    <path class="cls-3" d="M117.76,53.9l-.68-.22.17-.8,1.63.43c-.14.34-.42,2.01-.66,2.12-.5.22-1.76-.03-2.26-.28-1.2-.61-1.47-2.19-.68-3.26.95-1.29,2.91-.97,3.85.17l-.76.52c-.1.03-.43-.35-.6-.44-1.78-.97-2.88,1.95-.84,2.39.57.12.78-.04.84-.63Z"/>
    <path class="cls-3" d="M74.96,69.15c.67-.07,1.62.42,1.97.98.74,1.16-.12,2.65-.81,3.61l-3.53-1.93c.38-1.02,1.14-2.54,2.37-2.66ZM75.91,72.47c.29-.62.65-1.48,0-2-.91-.74-1.91-.02-2.1.98l2.1,1.02Z"/>
    <path class="cls-3" d="M115.54,100.37l-.17.13c.27.18.07.41.08.69.01.35.22.66-.08.94l.17.04c-.16.18-.15.48-.16.73,0,.05.14.03.16.1.08.33-.08.77-.17,1.09l.24.17c-.13.47-.34,1.51.1,1.8l-.43.26c.14.36-.07.9.43.89.01.13-.13.05-.2.19-.19.36-.41,1.27.2,1.26v.08c-.26-.06-.28.4-.23.55s.24.21.23.35-.17.21-.22.34c-.05.16.12,1.84-.08,1.84-.11-.13-.06-.37-.3-.34l.26-.17-.51.09-.09-.29.18-.09v-.17c-.48-.09.21-.56.08-.73l-.43-.04c.64-.42.06-.33-.09-.5-.2-.24.18-.53-.25-.57l.34-.17-.26-.13c.36-.09.1-.4.1-.6,0-.04.12-.03.15-.1.14-.28-.08-.35-.09-.57-.01-.2.06-.65.18-.81l-.43-.26.17-.17-.25-.13.34-.26-.18-.43.18-.17c-.14-.11-.19-.51-.18-.69,0-.12.24-.14.17-.51-.04-.24-.34-.29.09-.39l-.17-.08c.18-.26.29-.96.24-1.24-.11-.58-.16-.28-.09-.94.03-.23.05-.49.03-.72l.92-.27Z"/>
    <polygon class="cls-3" points="92.86 52.7 94.57 56.43 93.64 56.81 92.95 55.31 91.41 55.96 92.1 57.62 91.29 57.92 89.53 54.29 90.34 53.82 90.98 55.19 92.6 54.5 92 53.1 92.86 52.7"/>
    <path class="cls-3" d="M122.98,53.05l-.26.85c-.37.05-1.56-.71-1.79-.56-.06.04-.31.5-.17.6l1.54.56-.26.85-1.6-.58c-.24-.01-.25.47-.35.63l1.77.73-.26.85-2.73-1.03,1.46-3.84,2.65.94Z"/>
    <path class="cls-3" d="M129.2,56.56l2.24,1.66-.54.65-1.46-1.02-.38.53,1.37,1.04-.56.72-1.37-1.01-.47.54,1.5,1.16c.11.2-.32.59-.43.77l-2.34-1.75,2.43-3.29Z"/>
    <path class="cls-3" d="M114.51,50.48l-.09.94-1.88-.26-.09.68,1.76.25-.13.86-1.8-.26-.09.73,1.97.3-.09.85-2.91-.34.55-4.03c.18-.26,2.36.32,2.79.26Z"/>
    <path class="cls-3" d="M91.15,101.91c-.19.49.05.98,0,1.41-.01.16-.12.25-.13.39-.03.42.27.34.11,1.04-.07.3-.29.24.11.46-.08.21-.2,1.02-.16,1.19,0,.05.12.03.14.08.21.7.01.34-.19.55-.08.08.03.93.39.78.02.14-.13.04-.2.19-.15.32-.21,1,.2,1.09v.08c-.44,0,.07.61.08.72,0,.14-.12.32-.13.47,0,.24.23,1.1.04,1.29l-.26-.09.17-.17-.51.09c-.12-.16.05-.34.05-.38-.01-.16-.37-.48.04-.6l-.51-.13c.04-.18.41-.04.34-.34-.51.05-.41-.41-.51-.54-.06-.07-.29-.05-.18-.23,0-.01.12.03.15-.04.07-.15,0-.48.02-.59.01-.07.14-.05.15-.1.04-.15-.14-.41-.15-.52,0-.16.11-.54.07-.67,0-.03-.38-.4-.41-.53.15-.21.42-.16.34-.47l-.26.08-.09-.3c.33-.09.11-.36.13-.6s.36-.71.04-.64v-.17s.17-.04.17-.04l-.17-.13.16-.02c0-.12,0-.56.03-.63.03-.06.14-.03.15-.04.02-.03-.17-.61-.19-.7-.03-.09-.17-.2-.15-.24,0,0,.15.03.2-.11.06-.17-.07-.61.14-.79.15-.13.57-.13.77-.13Z"/>
    <path class="cls-3" d="M134.6,104.12s-.13-.02-.16.14c-.05.35.24.42.14.91-.08.39-.39.44.03.64-.08.29-.18.77-.13,1.07.06.34.46.64-.11.69l-.02.12c.07.3.04.65.35.77-.3.27-.4,1.09.09,1.16l-.26.6.34.22c-.47.46-.01,1.12-.1,1.62,0,.04-.18,0-.11.21-.2-.05-.15-.2-.41-.28-.09-.03-.14-.01-.23.02l.09-.46-.17-.09.08-.31.34.04c-.11-.33-.21-.03-.29-.29l-.22.08.17-.43c-.47,0-.41-.39-.6-.64.17.02.31-.95.31-1.02,0-.07-.13-.16-.13-.26,0-.2.11-.62.02-.79-.08-.16-.22-.16-.26-.21-.02-.02.06-.12.04-.14-.04-.05-.21.05-.15-.19.61,0,.15-.38.1-.58,0-.03,0-.52,0-.58.03-.26.38-.63.07-.69l.34-1.1-.16-.08c.15-.24-.07-.48-.07-.71,0-.04.15-.78.17-.82.15-.29.76-.34.88-.06.03.07-.15.34-.14.56,0,.16.22.74.16.88Z"/>
    <path class="cls-3" d="M74.9,67.75c-.08-.14.39-.86.53-.84.59.31,2.03,1.7,2.65,1.6s.85-.86.44-1.35c-.28-.33-2.13-1.38-2.17-1.6l.47-.71c1.27.9,3.75,1.81,2.55,3.75-1.29,2.09-3.14-.09-4.47-.86Z"/>
    <path class="cls-3" d="M89.35,102.42l-.17.21.17.04c-.29.27-.04.46-.02.75.03.44-.15.54-.15.58-.01.21.24.52.26.68s-.21.69-.17.72h.26c-.26.5-.18,1.1.09,1.58l-.35.1v.63s.26.04.26.04l-.24.94.41.26-.26.04c.05.17.09.27-.08.39l.33.27c-.37.55-.08,1.2-.25,1.83l-.17-.04.08-.18-.25-.12.26-.17-.51.09c-.06-.2-.08-.32.09-.47l-.17-.08.17-.47-.26.05.17-.26-.51-.3.17-.09-.25-.34s.12.01.15-.01c.03-.03.19-.74.19-.8,0-.16-.26-.34,0-.68-.27-.07-.07-.17-.15-.37-.07-.18-.6-.31-.03-.58v-.13c-.37,0,.07-.6-.24-.64l.25-.68-.18-.09c-.02-.15.18-.42.21-.59.02-.14-.17-.34.13-.3l-.15-.09c.13-.26-.11-.4-.15-.58,0-.04.11-.69.13-.73.14-.37.61-.31.94-.39Z"/>
    <path class="cls-3" d="M99.96,54.07c-.48,1.49-2.58,1.7-3.55.51-1.59-1.95.58-4.49,2.69-3.3l-.51.69c-.15.09-.61-.29-1.19.09-1.53,1,.5,3.58,1.68,1.76l.89.25Z"/>
    <path class="cls-3" d="M88.74,55.94c-1.97-.25-1.69,2.68.06,2.5.84-.09.87-.93.95-.95l.89.09c-.14,1.87-2.72,2.45-3.8.94-1.22-1.69.17-3.83,2.14-3.42l-.23.85Z"/>
    <path class="cls-3" d="M85.07,103.71c-.19.36-.02.68-.03.97,0,.21-.16.45-.15.7,0,.17.19.08.19.25,0,.25-.14.45-.26.65h.26c-.08.28-.17.71-.13.99.03.21.23.26.22.47-.54-.1-.31.25-.24.59l.24.06-.34.6c.3.08-.03.46.43.38.03.17-.2.05-.26.09-.02.02.07.48.27.48-.24.39-.08.59-.09.93,0,.18-.11.38-.1.5,0,.06.34.04.13.22l-.28-.04c.05-.25-.22-.45-.45-.3l.09-.38-.18-.1.09-.38-.08.17-.26-.13c.02-.28.36.05.26-.38l-.15.06c-.01-.14-.2-.18-.23-.23-.08-.14.23-.26-.22-.3l.26-.27c-.19-.4.08-.38.09-.42.02-.17-.21-.47-.02-.71l-.16-.05.17-.13h-.15s.07-.17.07-.17l-.26-.04c-.07-.35.18-.31.18-.34,0-.31-.38-.94.08-1.28l-.17-.17c.42-.49.13-.94.13-1.37,0-.04.21-.71.25-.73l.82-.17Z"/>
    <path class="cls-3" d="M110.7,53.22c.24.08.1.92,0,.95l-2.51-.19.21-4.1h.89s-.15,3.21-.15,3.21l.11.12h1.45Z"/>
    <polygon class="cls-3" points="107.75 53.13 107.75 53.99 105.1 54.07 105.01 50.02 105.95 49.88 106.04 53.13 107.75 53.13"/>
    <path class="cls-3" d="M80.79,66.65l-3.13-2.65v-.17s.47-.56.47-.56l.22.04,2.31,2.06,1.04-1.19c.24-.06.52.41.71.55l-1.63,1.92Z"/>
    <path class="cls-3" d="M131.03,62.12l.85.44c-.14.23-.1.67.22.67.44,0,1.93-1.92,2.41-2.22l.71.64c-.65.48-2.07,2.41-2.79,2.52-1.04.15-1.97-1.12-1.4-2.05Z"/>
    <rect class="cls-3" x="85.35" y="56.91" width=".99" height="4.17" transform="translate(-18.28 62.05) rotate(-36.18)"/>
    <rect class="cls-3" x="132.54" y="63.53" width="4.19" height="1.02" transform="translate(-8.54 105.62) rotate(-41.63)"/>
    <rect class="cls-3" x="129.15" y="60.24" width="4.2" height=".99" transform="translate(-.33 120.76) rotate(-49.35)"/>
    <path class="cls-3" d="M129.23,90.27c-.04.24.21.58-.08.64.36.21-.26.4.17.51-.27.21-.17.33,0,.56h-.34s.26.26.26.26l-.26.21.24.23c-.22.31.23.2.1.41,0,.01-.12-.02-.15.04-.01.03.02.3-.02.39l.26.09-.68.26v-.26s-.43.17-.43.17l.24-.21-.06-.42-.26-.05.17-.17c-.23-.02-.34-.1-.43-.3.41-.22.27-.67-.08-.9l.15-.04.35-1.29c.16-.2.62-.1.86-.12Z"/>
    <path class="cls-3" d="M94.06,89.16c.09.22-.15.15-.16.21-.02.21.18.72-.1.77l.26.3-.34.04.26.13-.17.21c.2.24.26.36.16.68l.18.1-.56.2-.29-.2.17-.13c-.1,0-.17,0-.25-.06-.25-.2-.13-.38-.51-.5.22-.17.27-.28.15-.54l-.24-.02c0-.41.46-.57.27-1.02.37-.26.76-.18,1.19-.18Z"/>
    <path class="cls-3" d="M88.58,91.98c.04.14-.14.05-.16.12s.07.49.06.52c-.03.1-.32-.09.01.3l-.26.09.26.09c-.13,0-.27-.03-.07.12.32.25.07.17.07.43l.18.09c-.62.44-.96-.22-1.45-.51l.17-.38c-.17,0-.38-.04-.34-.26.08,0,.4-.26.41-.28.04-.09-.12-.31.16-.39l.97.07Z"/>
    <path class="cls-3" d="M132.31,112.86l-.8.09c-.13.23-.45.38-.32,0h-.68s.09.51.09.51h-.86s.74-.67.74-.67l1.82.07Z"/>
    <path class="cls-3" d="M130.86,101.05c.02.14-.21.1-.3.09-.19-.02-.36-.08-.55-.09l.09.17h-.43s.09-.26.09-.26l-.51-.09v.47s-.77.04-.77.04l.57-.6,1.82.26Z"/>
    <path class="cls-3" d="M128.72,95.66l-.34.08v.43s-.77,0-.77,0c-.16-.13.52-.4.6-.43l-.17-.09.14-.16.55.17Z"/>
    <path class="cls-3" d="M124.44,78.2l-.94.26c.03-.14.22-.15.3-.26.09-.13.06-.55.26-.08l.21-.13-.26-.42.31-.22.13.85Z"/>
    <polygon class="cls-3" points="126.75 93.1 125.89 93.27 125.98 93.01 125.55 92.92 125.47 93.4 124.87 93.35 125.43 92.75 126.75 93.1"/>
    <polygon class="cls-3" points="131.88 89.93 131.8 89.59 131.97 89.76 132.14 89.63 131.71 89.37 132.01 89.07 132.31 89.71 131.88 89.93"/>
    <path class="cls-3" d="M91.49,77.78s.26-.24.17-.34c-.15-.17-.18.25-.38.26-.12,0-.38-.07-.31-.26l.42.08c.19-.65.77.34.09.26Z"/>
    <path class="cls-3" d="M81.37,130.68c2.39-.39,2.55,3.66-.09,3.21-1.66-.28-1.55-2.95.09-3.21Z"/>
    <circle class="cls-3" cx="54.94" cy="132.33" r="1.63"/>
    <path class="cls-3" d="M47.63,131.95c-.23-.06.07-.63.17-.77.6-.86,2.09-.84,2.49.17.06.15.16.51,0,.6h-2.65Z"/>
    <path class="cls-3" d="M39.55,131.95c-.09-1.38,2.06-1.94,2.64-.72.09.19.26.59.05.72h-2.7Z"/>
    <path class="cls-3" d="M65.39,132.46c.13,1.13-.61,1.81-1.73,1.61-.64-.12-.86-.83-.36-1.26.11-.1.66-.34.77-.34h1.33Z"/>
  </g>
  <g>
    <path id="_4" data-name="4" class="cls-3" d="M158.02,244.23c-1.22-1.1-2.44-2.23-3.68-3.38-1.24-1.15-2.47-2.33-3.68-3.53-.08-.09-.14-.19-.18-.29s-.03-.22.03-.36c.06-.14.17-.31.33-.5.16-.2.38-.44.67-.73.27-.27.5-.47.68-.61.19-.14.35-.23.48-.27.13-.04.25-.04.33,0,.09.04.17.09.26.16l10.18,10.18c.15.15.28.32.38.5.1.18.15.39.15.63,0,.23-.04.43-.13.6s-.22.35-.39.53l-10.18,10.18c-.08.08-.17.14-.26.17-.09.03-.2.03-.33-.01-.13-.04-.29-.13-.48-.27-.19-.14-.41-.34-.68-.61-.29-.29-.51-.53-.67-.73-.16-.2-.27-.36-.33-.5-.06-.14-.07-.26-.03-.36s.1-.19.18-.27c1.22-1.22,2.45-2.4,3.68-3.55,1.24-1.15,2.47-2.28,3.68-3.38h-17.81c-.08,0-.16-.03-.23-.08-.07-.05-.13-.14-.19-.27-.05-.13-.09-.31-.12-.55-.03-.24-.05-.54-.05-.9s.02-.66.05-.9c.03-.24.07-.42.12-.55.05-.13.11-.22.19-.27.07-.05.15-.08.23-.08h17.81Z"/>
    <g>
      <g>
        <path class="cls-3" d="M38.04,201.46h7.49c1.36,0,2.49.19,3.37.56.88.38,1.58.85,2.09,1.43.51.58.87,1.23,1.07,1.95.2.72.3,1.41.3,2.08s-.12,1.35-.36,1.99c-.24.64-.59,1.22-1.04,1.73-.45.52-1,.95-1.65,1.31-.65.35-1.38.57-2.18.65l6.05,9.82h-3.61l-5.42-9.48h-3.22v9.48h-2.89v-21.52ZM40.93,210.94h3.79c.56,0,1.12-.05,1.67-.14.55-.09,1.04-.26,1.47-.5.43-.24.78-.59,1.04-1.05s.39-1.05.39-1.78-.13-1.32-.39-1.78-.61-.81-1.04-1.05c-.43-.24-.92-.41-1.47-.5-.55-.09-1.11-.14-1.67-.14h-3.79v6.93Z"/>
        <path class="cls-3" d="M57.78,216.78c0,.63.14,1.2.41,1.72s.63.96,1.07,1.32c.44.36.95.65,1.53.85.58.2,1.18.3,1.81.3.84,0,1.57-.2,2.2-.59.62-.39,1.19-.92,1.72-1.57l2.05,1.58c-1.51,1.97-3.61,2.95-6.32,2.95-1.12,0-2.14-.19-3.05-.58-.91-.38-1.69-.92-2.32-1.6-.63-.68-1.12-1.48-1.46-2.4-.34-.92-.51-1.92-.51-2.99s.18-2.07.56-2.99c.37-.92.88-1.72,1.53-2.4.65-.68,1.43-1.21,2.33-1.6.9-.38,1.89-.58,2.95-.58,1.26,0,2.33.22,3.2.67.87.45,1.59,1.03,2.15,1.75.56.72.97,1.53,1.22,2.43.25.9.38,1.82.38,2.75v.97h-11.43ZM66.32,214.59c-.02-.61-.12-1.17-.29-1.67-.17-.51-.43-.95-.77-1.32-.34-.37-.77-.67-1.28-.88-.51-.21-1.11-.32-1.79-.32s-1.27.13-1.82.38c-.55.25-1.02.58-1.4.99-.38.41-.68.86-.89,1.35-.21.5-.32.99-.32,1.47h8.55Z"/>
        <path class="cls-3" d="M72.52,210.33c.76-.71,1.65-1.24,2.65-1.6,1-.35,2.01-.53,3.01-.53s1.94.13,2.69.39c.75.26,1.37.62,1.85,1.06.48.45.84.96,1.07,1.54.23.58.35,1.18.35,1.81v7.36c0,.51,0,.97.03,1.4s.05.83.09,1.22h-2.41c-.06-.73-.09-1.46-.09-2.19h-.06c-.6.93-1.31,1.59-2.14,1.98-.82.38-1.77.58-2.86.58-.66,0-1.29-.09-1.9-.27-.6-.18-1.13-.46-1.58-.82s-.81-.82-1.07-1.35c-.26-.54-.39-1.16-.39-1.87,0-.93.2-1.71.62-2.34.41-.63.97-1.14,1.69-1.54.71-.4,1.54-.68,2.5-.85.95-.17,1.97-.26,3.05-.26h1.99v-.61c0-.36-.07-.73-.21-1.09-.14-.37-.35-.69-.63-.99-.28-.29-.63-.53-1.05-.7-.42-.17-.92-.26-1.5-.26-.52,0-.98.05-1.37.15-.39.1-.75.23-1.07.38-.32.15-.61.33-.87.53-.26.2-.51.39-.75.58l-1.63-1.7ZM80.17,216.05c-.64,0-1.3.04-1.97.11-.67.07-1.28.21-1.84.41-.55.2-1,.49-1.35.85s-.53.83-.53,1.4c0,.83.28,1.43.83,1.79.55.36,1.3.55,2.24.55.74,0,1.37-.13,1.9-.38s.94-.58,1.26-.99c.32-.4.55-.86.69-1.35.14-.5.21-.99.21-1.47v-.91h-1.44Z"/>
        <path class="cls-3" d="M102.37,222.98h-2.71v-2.07h-.06c-.52.77-1.24,1.37-2.15,1.79s-1.85.64-2.81.64c-1.1,0-2.1-.19-2.99-.58-.89-.38-1.65-.92-2.29-1.61-.63-.69-1.12-1.49-1.46-2.4-.34-.91-.51-1.9-.51-2.98s.17-2.07.51-2.99c.34-.92.83-1.72,1.46-2.4.63-.68,1.39-1.21,2.29-1.6.89-.38,1.89-.58,2.99-.58,1.02,0,1.99.22,2.89.65.9.44,1.6,1.03,2.08,1.78h.06v-10.64h2.71v22.98ZM94.97,220.79c.72,0,1.37-.13,1.96-.38.58-.25,1.07-.6,1.47-1.03.4-.44.71-.96.93-1.58s.33-1.29.33-2.02-.11-1.4-.33-2.02c-.22-.62-.53-1.14-.93-1.58-.4-.44-.89-.78-1.47-1.03s-1.23-.38-1.96-.38-1.37.13-1.96.38-1.07.6-1.47,1.03c-.4.44-.71.96-.93,1.58-.22.62-.33,1.29-.33,2.02s.11,1.4.33,2.02c.22.62.53,1.14.93,1.58.4.44.89.78,1.47,1.03.58.25,1.23.38,1.96.38Z"/>
      </g>
      <g>
        <path class="cls-3" d="M124.42,223.34c-1.62,0-3.12-.29-4.48-.87-1.36-.58-2.53-1.37-3.51-2.39-.97-1.01-1.74-2.21-2.29-3.59s-.83-2.87-.83-4.47.28-3.09.83-4.47,1.31-2.57,2.29-3.59c.97-1.01,2.14-1.81,3.51-2.39,1.36-.58,2.86-.87,4.48-.87s3.12.29,4.48.87c1.36.58,2.53,1.37,3.51,2.39.97,1.01,1.74,2.21,2.29,3.59.55,1.38.83,2.87.83,4.47s-.28,3.09-.83,4.47c-.55,1.38-1.31,2.57-2.29,3.59-.97,1.01-2.14,1.81-3.51,2.39-1.36.58-2.86.87-4.48.87ZM124.42,220.61c1.22,0,2.33-.23,3.31-.68s1.83-1.07,2.53-1.84c.7-.77,1.24-1.68,1.63-2.72.38-1.04.57-2.15.57-3.33s-.19-2.28-.57-3.33c-.38-1.04-.92-1.95-1.63-2.72-.7-.77-1.55-1.38-2.53-1.84-.98-.46-2.09-.68-3.31-.68s-2.33.23-3.31.68c-.98.46-1.83,1.07-2.53,1.84-.7.77-1.24,1.68-1.63,2.72-.38,1.04-.57,2.15-.57,3.33s.19,2.29.57,3.33c.38,1.04.92,1.95,1.63,2.72.7.77,1.54,1.38,2.53,1.84.98.46,2.09.68,3.31.68Z"/>
        <path class="cls-3" d="M151.62,222.8h-2.71v-2.22h-.06c-.34.77-.93,1.39-1.78,1.87-.84.48-1.82.71-2.92.71-.7,0-1.36-.11-1.99-.32-.62-.21-1.17-.54-1.64-.99-.47-.45-.85-1.02-1.13-1.72s-.42-1.52-.42-2.48v-9.27h2.71v8.51c0,.67.09,1.24.27,1.72.18.48.42.86.72,1.15.3.29.65.51,1.04.64.39.13.8.2,1.22.2.56,0,1.08-.09,1.56-.27.48-.18.9-.47,1.26-.87.36-.4.64-.9.84-1.5s.3-1.33.3-2.16v-7.42h2.71v14.41Z"/>
        <path class="cls-3" d="M155.72,208.39h2.71v2.22h.06c.18-.38.42-.73.72-1.05s.64-.58,1.01-.81c.37-.22.78-.4,1.22-.53s.88-.2,1.32-.2.84.06,1.2.18l-.12,2.95c-.22-.06-.44-.11-.66-.15-.22-.04-.44-.06-.66-.06-1.32,0-2.34.38-3.04,1.12-.7.75-1.05,1.91-1.05,3.5v7.23h-2.71v-14.41Z"/>
      </g>
    </g>
    <g>
      <path class="cls-3" d="M38.42,251.57c.52.79,1.19,1.37,2,1.75.81.38,1.65.56,2.51.56.48,0,.97-.08,1.47-.23.5-.15.96-.38,1.37-.68.41-.3.75-.68,1.01-1.12.26-.45.39-.96.39-1.55,0-.83-.26-1.46-.78-1.9-.52-.44-1.17-.8-1.94-1.09-.77-.29-1.62-.58-2.53-.85-.91-.27-1.76-.65-2.53-1.14-.77-.49-1.42-1.14-1.94-1.96-.52-.82-.78-1.93-.78-3.33,0-.63.14-1.3.41-2.01s.7-1.36,1.28-1.95c.58-.59,1.33-1.08,2.24-1.47.91-.39,2.01-.59,3.3-.59,1.16,0,2.28.16,3.34.49,1.06.32,2,.98,2.8,1.98l-2.35,2.16c-.36-.57-.87-1.02-1.54-1.37-.66-.34-1.41-.52-2.26-.52s-1.47.11-2,.32c-.53.21-.96.49-1.28.82-.32.33-.55.69-.68,1.08-.13.39-.2.74-.2,1.06,0,.91.26,1.61.78,2.1.52.49,1.17.88,1.94,1.19.77.3,1.61.58,2.53.82.91.24,1.75.58,2.53,1.02s1.42,1.02,1.94,1.76c.52.74.78,1.76.78,3.05,0,1.03-.2,1.97-.59,2.8s-.92,1.53-1.58,2.1c-.66.57-1.44,1-2.35,1.31-.9.3-1.87.46-2.89.46-1.36,0-2.66-.24-3.88-.73-1.22-.49-2.2-1.24-2.92-2.25l2.38-2.07Z"/>
      <path class="cls-3" d="M61.47,244.03h-3.88v6.53c0,.41,0,.81.03,1.2.02.39.1.75.23,1.06.13.31.33.57.6.76.27.19.67.29,1.19.29.32,0,.65-.03.99-.09.34-.06.65-.17.93-.33v2.49c-.32.18-.74.31-1.25.38-.51.07-.91.11-1.19.11-1.04,0-1.85-.15-2.42-.44-.57-.29-.99-.67-1.26-1.14-.27-.47-.43-.99-.48-1.57-.05-.58-.08-1.16-.08-1.75v-7.51h-3.13v-2.37h3.13v-4.04h2.71v4.04h3.88v2.37Z"/>
      <path class="cls-3" d="M64.26,248.86c0-1.05.2-2.04.59-2.95s.93-1.71,1.61-2.4c.68-.69,1.48-1.23,2.41-1.63.92-.39,1.92-.59,2.98-.59s2.06.2,2.98.59c.92.39,1.73.94,2.41,1.63.68.69,1.22,1.49,1.61,2.4s.59,1.89.59,2.95-.2,2.04-.59,2.96-.93,1.72-1.61,2.4c-.68.68-1.48,1.22-2.41,1.61-.92.39-1.92.59-2.98.59s-2.06-.2-2.98-.59c-.92-.4-1.73-.93-2.41-1.61-.68-.68-1.22-1.48-1.61-2.4s-.59-1.91-.59-2.96ZM67.15,248.86c0,.73.11,1.4.33,2.02.22.62.53,1.14.93,1.58.4.44.89.78,1.47,1.03.58.25,1.23.38,1.96.38s1.37-.13,1.96-.38c.58-.25,1.07-.6,1.47-1.03.4-.44.71-.96.93-1.58.22-.62.33-1.29.33-2.02s-.11-1.4-.33-2.02c-.22-.62-.53-1.14-.93-1.58-.4-.44-.89-.78-1.47-1.03-.58-.25-1.23-.38-1.96-.38s-1.37.13-1.96.38c-.58.25-1.07.6-1.47,1.03-.4.44-.71.96-.93,1.58-.22.62-.33,1.29-.33,2.02Z"/>
      <path class="cls-3" d="M82.83,241.66h2.71v2.22h.06c.18-.38.42-.73.72-1.05.3-.31.64-.58,1.01-.81.37-.22.78-.4,1.22-.53.44-.13.88-.2,1.32-.2s.84.06,1.2.18l-.12,2.95c-.22-.06-.44-.11-.66-.15s-.44-.06-.66-.06c-1.32,0-2.34.38-3.04,1.12-.7.75-1.05,1.91-1.05,3.5v7.23h-2.71v-14.41Z"/>
      <path class="cls-3" d="M93.54,236.49c0-.55.2-1.02.59-1.41.39-.4.86-.59,1.4-.59s1.01.2,1.4.59c.39.39.59.87.59,1.41s-.2,1.02-.59,1.41c-.39.39-.86.59-1.4.59s-1.01-.2-1.4-.59c-.39-.4-.59-.87-.59-1.41ZM94.17,241.66h2.71v14.41h-2.71v-14.41Z"/>
      <path class="cls-3" d="M103.23,249.87c0,.63.14,1.2.41,1.72.27.52.63.96,1.07,1.32s.95.65,1.54.85c.58.2,1.18.3,1.81.3.84,0,1.57-.2,2.2-.59.62-.39,1.19-.92,1.72-1.57l2.05,1.58c-1.5,1.97-3.61,2.95-6.32,2.95-1.12,0-2.14-.19-3.05-.58-.91-.38-1.69-.92-2.32-1.6-.63-.68-1.12-1.48-1.46-2.4-.34-.92-.51-1.92-.51-2.99s.19-2.07.56-2.99c.37-.92.88-1.72,1.54-2.4.65-.68,1.43-1.21,2.33-1.6.9-.38,1.88-.58,2.95-.58,1.26,0,2.33.22,3.2.67.87.45,1.59,1.03,2.15,1.75s.97,1.53,1.22,2.43c.25.9.38,1.82.38,2.75v.97h-11.44ZM111.78,247.68c-.02-.61-.12-1.17-.29-1.67-.17-.51-.43-.95-.77-1.32-.34-.37-.77-.67-1.28-.88-.51-.21-1.11-.32-1.79-.32s-1.27.13-1.82.38c-.55.25-1.02.58-1.4.99-.38.41-.68.86-.89,1.35-.21.5-.32.99-.32,1.47h8.55Z"/>
      <path class="cls-3" d="M125.5,245.28c-.32-.4-.72-.74-1.19-1.02-.47-.27-1.05-.41-1.73-.41-.64,0-1.2.14-1.67.41-.47.27-.71.67-.71,1.2,0,.43.14.77.41,1.03.27.26.59.48.96.64s.77.28,1.19.36c.42.08.78.15,1.08.21.58.14,1.13.31,1.64.52.51.2.95.47,1.32.79.37.32.66.72.87,1.19.21.47.32,1.03.32,1.7,0,.81-.17,1.5-.51,2.08-.34.58-.78,1.05-1.32,1.41-.54.37-1.16.63-1.85.79-.69.16-1.39.24-2.09.24-1.18,0-2.22-.18-3.11-.55s-1.69-1.03-2.39-2.01l2.05-1.7c.44.45.93.84,1.47,1.19.54.35,1.2.52,1.99.52.34,0,.69-.03,1.04-.11.35-.07.66-.18.93-.33.27-.15.49-.34.66-.58.17-.23.26-.5.26-.81,0-.41-.13-.74-.38-1-.25-.26-.55-.47-.9-.62-.35-.15-.72-.27-1.11-.36s-.74-.17-1.04-.23c-.58-.14-1.13-.3-1.65-.49s-.98-.43-1.38-.73c-.4-.3-.72-.69-.96-1.15-.24-.47-.36-1.04-.36-1.73,0-.75.16-1.4.47-1.96.31-.56.72-1.02,1.23-1.38.51-.36,1.09-.64,1.75-.82.65-.18,1.31-.27,1.97-.27.96,0,1.88.18,2.77.55.88.36,1.58.97,2.11,1.82l-2.11,1.61Z"/>
    </g>
  </g>
</svg>