<?xml version="1.0" encoding="utf-8"?>
<!-- Generator: Adobe Illustrator 22.0.1, SVG Export Plug-In . SVG Version: 6.00 Build 0)  -->
<svg version="1.1" id="Layer_1" xmlns="http://www.w3.org/2000/svg" xmlns:xlink="http://www.w3.org/1999/xlink" x="0px" y="0px"
	 viewBox="0 0 307.3 11.4" style="enable-background:new 0 0 307.3 11.4;" xml:space="preserve">
<style type="text/css">
	.st0{fill:#3C3737;}
</style>
<g>
	<path class="st0" d="M0.4,0.8h3.3c0.8,0,1.5,0.1,2.3,0.3S7.3,1.6,7.8,2c0.5,0.4,1,0.9,1.3,1.5c0.3,0.6,0.5,1.4,0.5,2.3
		c0,0.8-0.2,1.5-0.5,2.1C8.8,8.5,8.4,9.1,7.9,9.5c-0.5,0.4-1.1,0.7-1.8,0.9c-0.7,0.2-1.4,0.3-2.1,0.3H0.4V0.8z M2.6,8.7h1.1
		c0.5,0,1-0.1,1.4-0.2s0.8-0.3,1.1-0.5C6.6,7.8,6.8,7.5,7,7.1c0.2-0.4,0.3-0.9,0.3-1.4c0-0.5-0.1-0.9-0.3-1.3
		C6.8,4.1,6.6,3.8,6.3,3.5S5.6,3.1,5.2,3C4.8,2.9,4.3,2.8,3.9,2.8H2.6V8.7z"/>
	<path class="st0" d="M20.8,6.9c0,0.6-0.1,1.1-0.3,1.6c-0.2,0.5-0.4,0.9-0.8,1.3c-0.4,0.4-0.8,0.6-1.3,0.9c-0.5,0.2-1.1,0.3-1.8,0.3
		c-0.7,0-1.3-0.1-1.8-0.3c-0.5-0.2-1-0.5-1.3-0.9c-0.4-0.4-0.6-0.8-0.8-1.3c-0.2-0.5-0.3-1-0.3-1.6V0.8h2.2v6c0,0.3,0,0.6,0.1,0.9
		c0.1,0.3,0.2,0.5,0.4,0.7c0.2,0.2,0.4,0.3,0.6,0.4C16,8.9,16.3,9,16.6,9c0.3,0,0.6-0.1,0.8-0.2c0.2-0.1,0.5-0.3,0.6-0.4
		c0.2-0.2,0.3-0.4,0.4-0.7c0.1-0.3,0.1-0.5,0.1-0.9v-6h2.2V6.9z"/>
	<path class="st0" d="M24.3,0.8h2.2v7.9h4v2h-6.2V0.8z"/>
	<path class="st0" d="M31.3,0.8h2.4l1.6,6.4h0l2.1-6.4h2l2.1,6.5h0l1.7-6.5h2.2l-2.9,9.9h-1.9l-2.2-6.9h0l-2.2,6.9h-1.9L31.3,0.8z"
		/>
	<path class="st0" d="M47.7,0.8h2.2v9.9h-2.2V0.8z"/>
	<path class="st0" d="M59.8,3.4c-0.2-0.3-0.5-0.5-0.8-0.6c-0.3-0.1-0.7-0.2-1.1-0.2s-0.8,0.1-1.1,0.2c-0.4,0.2-0.7,0.4-0.9,0.7
		c-0.3,0.3-0.5,0.6-0.6,1S55,5.3,55,5.8c0,0.5,0.1,0.9,0.2,1.3s0.3,0.7,0.6,1s0.5,0.5,0.9,0.7S57.4,9,57.8,9c0.4,0,0.8-0.1,1.2-0.3
		s0.6-0.4,0.9-0.8l1.8,1.4c-0.4,0.6-1,1-1.6,1.3c-0.6,0.3-1.3,0.4-2,0.4c-0.8,0-1.5-0.1-2.1-0.4c-0.7-0.2-1.2-0.6-1.7-1
		c-0.5-0.5-0.8-1-1.1-1.6s-0.4-1.4-0.4-2.2c0-0.8,0.1-1.5,0.4-2.2s0.6-1.2,1.1-1.6c0.5-0.5,1-0.8,1.7-1c0.7-0.2,1.4-0.4,2.1-0.4
		c0.3,0,0.6,0,0.9,0.1c0.3,0.1,0.6,0.1,0.9,0.2c0.3,0.1,0.6,0.3,0.8,0.4C61,1.5,61.2,1.8,61.4,2L59.8,3.4z"/>
	<path class="st0" d="M64.3,0.8h2.2v3.7h4.2V0.8h2.2v9.9h-2.2V6.5h-4.2v4.3h-2.2V0.8z"/>
	<path class="st0" d="M88.3,3.4c-0.2-0.3-0.5-0.5-0.8-0.6c-0.3-0.1-0.7-0.2-1.1-0.2s-0.8,0.1-1.1,0.2C85,3,84.7,3.2,84.4,3.5
		c-0.3,0.3-0.5,0.6-0.6,1s-0.2,0.8-0.2,1.3c0,0.5,0.1,0.9,0.2,1.3s0.3,0.7,0.6,1s0.5,0.5,0.9,0.7S86,9,86.4,9c0.4,0,0.8-0.1,1.2-0.3
		s0.6-0.4,0.9-0.8l1.8,1.4c-0.4,0.6-1,1-1.6,1.3c-0.6,0.3-1.3,0.4-2,0.4c-0.8,0-1.5-0.1-2.1-0.4c-0.7-0.2-1.2-0.6-1.7-1
		c-0.5-0.5-0.8-1-1.1-1.6s-0.4-1.4-0.4-2.2c0-0.8,0.1-1.5,0.4-2.2s0.6-1.2,1.1-1.6c0.5-0.5,1-0.8,1.7-1c0.7-0.2,1.4-0.4,2.1-0.4
		c0.3,0,0.6,0,0.9,0.1c0.3,0.1,0.6,0.1,0.9,0.2C88.7,1,89,1.2,89.3,1.3C89.6,1.5,89.8,1.8,90,2L88.3,3.4z"/>
	<path class="st0" d="M92.3,5.8c0-0.8,0.1-1.5,0.4-2.2s0.6-1.2,1.1-1.6c0.5-0.5,1-0.8,1.7-1c0.7-0.2,1.4-0.4,2.1-0.4
		c0.8,0,1.5,0.1,2.1,0.4s1.2,0.6,1.7,1s0.8,1,1.1,1.6S103,5,103,5.8c0,0.8-0.1,1.5-0.4,2.2s-0.6,1.2-1.1,1.6s-1,0.8-1.7,1
		c-0.7,0.2-1.4,0.4-2.1,0.4c-0.8,0-1.5-0.1-2.1-0.4c-0.7-0.2-1.2-0.6-1.7-1c-0.5-0.5-0.8-1-1.1-1.6S92.3,6.6,92.3,5.8z M94.6,5.8
		c0,0.5,0.1,0.9,0.2,1.3s0.4,0.7,0.6,1c0.3,0.3,0.6,0.5,1,0.7S97.2,9,97.7,9c0.5,0,0.9-0.1,1.3-0.2c0.4-0.2,0.7-0.4,1-0.7
		c0.3-0.3,0.5-0.6,0.6-1c0.1-0.4,0.2-0.8,0.2-1.3c0-0.5-0.1-0.9-0.2-1.3c-0.1-0.4-0.4-0.7-0.6-1c-0.3-0.3-0.6-0.5-1-0.7
		c-0.4-0.2-0.8-0.2-1.3-0.2c-0.5,0-0.9,0.1-1.3,0.2c-0.4,0.2-0.7,0.4-1,0.7c-0.3,0.3-0.5,0.6-0.6,1S94.6,5.3,94.6,5.8z"/>
	<path class="st0" d="M106,0.8h2.2v7.9h4v2H106V0.8z"/>
	<path class="st0" d="M114.9,0.8h2.2v7.9h4v2h-6.2V0.8z"/>
	<path class="st0" d="M123.8,0.8h6.7v2H126v1.8h4.3v2H126v2h4.8v2h-7V0.8z"/>
	<path class="st0" d="M142.9,10c-0.6,0.3-1.3,0.6-2,0.7c-0.7,0.1-1.4,0.2-2.1,0.2c-0.8,0-1.5-0.1-2.1-0.4c-0.7-0.2-1.2-0.6-1.7-1
		c-0.5-0.5-0.8-1-1.1-1.6s-0.4-1.4-0.4-2.2c0-0.8,0.1-1.5,0.4-2.2s0.6-1.2,1.1-1.6c0.5-0.5,1-0.8,1.7-1c0.7-0.2,1.4-0.4,2.1-0.4
		c0.8,0,1.5,0.1,2.2,0.3c0.7,0.2,1.3,0.5,1.8,1l-1.5,1.7c-0.3-0.3-0.6-0.5-1-0.7c-0.4-0.2-0.8-0.2-1.4-0.2c-0.5,0-0.9,0.1-1.3,0.2
		c-0.4,0.2-0.7,0.4-1,0.7c-0.3,0.3-0.5,0.6-0.6,1s-0.2,0.8-0.2,1.3c0,0.5,0.1,0.9,0.2,1.3s0.4,0.7,0.6,1c0.3,0.3,0.6,0.5,1,0.7
		s0.8,0.2,1.3,0.2c0.5,0,0.9-0.1,1.2-0.2c0.3-0.1,0.6-0.2,0.8-0.3V6.9H139v-2h3.9V10z"/>
	<path class="st0" d="M146.3,0.8h6.7v2h-4.6v1.8h4.3v2h-4.3v2h4.8v2h-7V0.8z"/>
	<path class="st0" d="M161.9,0.2h0.8V11h-0.8V0.2z"/>
	<path class="st0" d="M172.9,10.7h-1V0.8h1V10.7z"/>
	<path class="st0" d="M184.1,9.2L184.1,9.2l0-8.4h1v9.9h-1.3L178,2.3h0v8.5h-1V0.8h1.3L184.1,9.2z"/>
	<path class="st0" d="M192.4,10.7h-1v-9h-3.3V0.8h7.6v0.9h-3.3V10.7z"/>
	<path class="st0" d="M199.7,9.8h5.3v0.9h-6.3V0.8h6.1v0.9h-5.1v3.4h4.8V6h-4.8V9.8z"/>
	<path class="st0" d="M209.4,10.7h-1V0.8h3.1c1,0,1.8,0.2,2.4,0.7c0.6,0.4,0.9,1.1,0.9,2c0,0.7-0.2,1.3-0.7,1.7
		C213.6,5.7,213,6,212.2,6l2.9,4.7h-1.2l-2.7-4.6h-1.7V10.7z M209.4,5.2h1.8c0.4,0,0.8,0,1.1-0.1c0.3-0.1,0.6-0.2,0.7-0.4
		c0.2-0.2,0.3-0.3,0.4-0.5s0.1-0.4,0.1-0.7c0-0.2,0-0.5-0.1-0.7s-0.2-0.4-0.4-0.6c-0.2-0.2-0.4-0.3-0.7-0.4
		c-0.3-0.1-0.7-0.1-1.1-0.1h-1.8V5.2z"/>
	<path class="st0" d="M225.3,9.2L225.3,9.2l0-8.4h1v9.9h-1.3l-5.9-8.5h0v8.5h-1V0.8h1.3L225.3,9.2z"/>
	<path class="st0" d="M230.2,10.7h-1.2l4.3-9.9h1l4.3,9.9h-1.2l-1.1-2.6h-5.1L230.2,10.7z M231.7,7.2h4.3L233.9,2L231.7,7.2z"/>
	<path class="st0" d="M243.6,10.7h-1v-9h-3.3V0.8h7.6v0.9h-3.3V10.7z"/>
	<path class="st0" d="M250.9,10.7h-1V0.8h1V10.7z"/>
	<path class="st0" d="M264.6,5.8c0,0.8-0.1,1.5-0.4,2.1c-0.3,0.6-0.6,1.2-1.1,1.6s-1,0.8-1.6,1.1c-0.6,0.3-1.3,0.4-2.1,0.4
		s-1.4-0.1-2.1-0.4s-1.2-0.6-1.6-1.1c-0.5-0.5-0.8-1-1.1-1.6c-0.3-0.6-0.4-1.3-0.4-2.1s0.1-1.5,0.4-2.1s0.6-1.2,1.1-1.6
		c0.5-0.5,1-0.8,1.6-1.1s1.3-0.4,2.1-0.4s1.4,0.1,2.1,0.4c0.6,0.3,1.2,0.6,1.6,1.1s0.8,1,1.1,1.6S264.6,5,264.6,5.8z M263.5,5.8
		c0-0.6-0.1-1.1-0.3-1.6s-0.5-1-0.8-1.4c-0.4-0.4-0.8-0.7-1.3-0.9c-0.5-0.2-1.1-0.4-1.7-0.4s-1.2,0.1-1.7,0.4
		c-0.5,0.2-0.9,0.5-1.3,0.9s-0.6,0.8-0.8,1.4s-0.3,1.1-0.3,1.6s0.1,1.1,0.3,1.6c0.2,0.5,0.5,1,0.8,1.4s0.8,0.7,1.3,0.9
		s1.1,0.4,1.7,0.4s1.2-0.1,1.7-0.4s0.9-0.5,1.3-0.9c0.3-0.4,0.6-0.8,0.8-1.4C263.5,6.9,263.5,6.4,263.5,5.8z"/>
	<path class="st0" d="M275.2,9.2L275.2,9.2l0-8.4h1v9.9H275l-5.9-8.5h0v8.5h-1V0.8h1.3L275.2,9.2z"/>
	<path class="st0" d="M280.2,10.7H279l4.3-9.9h1l4.3,9.9h-1.2l-1.1-2.6h-5.1L280.2,10.7z M281.7,7.2h4.3L283.8,2L281.7,7.2z"/>
	<path class="st0" d="M292.4,9.8h4.6v0.9h-5.6V0.8h1V9.8z"/>
	<path class="st0" d="M304.8,0.2h0.8V11h-0.8V0.2z"/>
</g>
</svg>
